SplineFontDB: 3.0
FontName: GranadaKD
FullName: GranadaKD
FamilyName: GranadaKD
Weight: Book
Copyright: Typeface and data (c) 2003-2007, Arabeyes.org. Latin glyphs are based on "Free UCS Outline Fonts", www.nongnu.org/freefont. This font is distributed under the terms of GPL license with font embedding exception.
Version: 1.0 Wed May 31 17:30:40 1995
ItalicAngle: 0
UnderlinePosition: -187
UnderlineWidth: 116
Ascent: 1440
Descent: 360
sfntRevision: 0x00021999
LayerCount: 2
Layer: 0 1 "Back"  1
Layer: 1 1 "Fore"  0
XUID: [1021 469 952274731 14841936]
FSType: 4
OS2Version: 1
OS2_WeightWidthSlopeOnly: 0
OS2_UseTypoMetrics: 1
CreationTime: 1054131171
ModificationTime: 1350055208
PfmFamily: 17
TTFWeight: 400
TTFWidth: 5
LineGap: 360
VLineGap: 0
Panose: 2 6 6 3 5 6 5 2 2 4
OS2TypoAscent: 318
OS2TypoAOffset: 1
OS2TypoDescent: -72
OS2TypoDOffset: 1
OS2TypoLinegap: 0
OS2WinAscent: 61
OS2WinAOffset: 1
OS2WinDescent: 19
OS2WinDOffset: 1
HheadAscent: 61
HheadAOffset: 1
HheadDescent: -19
HheadDOffset: 1
OS2SubXSize: 1187
OS2SubYSize: 1079
OS2SubXOff: 0
OS2SubYOff: -392
OS2SupXSize: 1187
OS2SupYSize: 1079
OS2SupXOff: 0
OS2SupYOff: 523
OS2StrikeYSize: 117
OS2StrikeYPos: 540
OS2FamilyClass: 2
OS2Vendor: 'PYRS'
OS2CodePages: 000000d3.00000000
OS2UnicodeRanges: a000200f.c0000000.00000008.00000000
Lookup: 3 0 0 "'aalt' Access All Alternates in Latin lookup 0"  {"'aalt' Access All Alternates in Latin lookup 0"  } ['aalt' ('latn' <'dflt' > ) ]
Lookup: 1 0 0 "'aalt' Access All Alternates in Latin lookup 1"  {"'aalt' Access All Alternates in Latin lookup 1"  } ['aalt' ('latn' <'dflt' > ) ]
Lookup: 1 1 0 "'init' Initial Forms in Arabic lookup 2"  {"'init' Initial Forms in Arabic lookup 2" ("init" ) } ['init' ('arab' <'dflt' > ) ]
Lookup: 1 1 0 "'medi' Medial Forms in Arabic lookup 3"  {"'medi' Medial Forms in Arabic lookup 3" ("medi" ) } ['medi' ('arab' <'dflt' > ) ]

StartChar: uni067E.init
Encoding: 65536 -1 0
Width: 545
Flags: W
AnchorPoint: "ArabicAbove" 308 922 basechar 0
AnchorPoint: "ArabicBelow" 288 -753 basechar 0
LayerCount: 2
UndoRedoHistory
Layer: 1
Undoes
EndUndoes
Redoes
EndRedoes
EndUndoRedoHistory
Fore
SplineSet
369 -556.5 m 260,0,1
 369 -521.5 369 -521.5 344 -496 c 132,-1,2
 319 -470.5 319 -470.5 284 -470.5 c 260,3,4
 249 -470.5 249 -470.5 224 -496 c 132,-1,5
 199 -521.5 199 -521.5 199 -556.5 c 260,6,7
 199 -591.5 199 -591.5 224 -616.5 c 132,-1,8
 249 -641.5 249 -641.5 284 -641.5 c 260,9,10
 319 -641.5 319 -641.5 344 -616.5 c 132,-1,11
 369 -591.5 369 -591.5 369 -556.5 c 260,0,1
481 -363.5 m 260,12,13
 481 -328.5 481 -328.5 456 -303.5 c 132,-1,14
 431 -278.5 431 -278.5 396 -278.5 c 260,15,16
 361 -278.5 361 -278.5 335.5 -303.5 c 132,-1,17
 310 -328.5 310 -328.5 310 -363.5 c 260,18,19
 310 -398.5 310 -398.5 335.5 -424 c 132,-1,20
 361 -449.5 361 -449.5 396 -449.5 c 260,21,22
 431 -449.5 431 -449.5 456 -424 c 132,-1,23
 481 -398.5 481 -398.5 481 -363.5 c 260,12,13
256 -363.5 m 260,24,25
 256 -328.5 256 -328.5 231 -303.5 c 132,-1,26
 206 -278.5 206 -278.5 171 -278.5 c 4,27,28
 135 -278.5 135 -278.5 110 -303.5 c 132,-1,29
 85 -328.5 85 -328.5 85 -363.5 c 260,30,31
 85 -398.5 85 -398.5 110 -424 c 132,-1,32
 135 -449.5 135 -449.5 171 -449.5 c 4,33,34
 206 -449.5 206 -449.5 231 -424 c 132,-1,35
 256 -398.5 256 -398.5 256 -363.5 c 260,24,25
450 0 m 2,36,37
 450 -108 450 -108 416 -162 c 0,38,39
 375 -225 375 -225 281 -225 c 0,40,41
 188 -225 188 -225 148 -163 c 0,42,43
 112 -108 112 -108 112 0 c 1,44,-1
 0 0 l 1,45,-1
 0 112 l 1,46,-1
 225 112 l 1,47,-1
 225 0 l 2,48,49
 225 -56 225 -56 237.5 -84 c 128,-1,50
 250 -112 250 -112 281 -112 c 256,51,52
 312 -112 312 -112 325 -83.5 c 128,-1,53
 338 -55 338 -55 338 0 c 2,54,-1
 338 225 l 2,55,56
 338 269 338 269 321.5 307 c 128,-1,57
 305 345 305 345 272 371 c 1,58,-1
 272 404 l 1,59,60
 291 404 291 404 323 429.5 c 128,-1,61
 355 455 355 455 371 488.5 c 128,-1,62
 387 522 387 522 409 546 c 0,63,64
 416 553 416 553 426 562 c 1,65,-1
 450 562 l 1,66,-1
 450 0 l 2,36,37
EndSplineSet
Validated: 524297
EndChar

StartChar: exclam
Encoding: 33 33 6
Width: 500
GlyphClass: 2
Flags: W
LayerCount: 2
Fore
SplineSet
374 1313 m 1,0,-1
 374 703 l 1,1,-1
 335 302 l 1,2,-1
 264 302 l 1,3,-1
 226 703 l 1,4,-1
 226 1313 l 1,5,-1
 374 1313 l 1,0,-1
374 187 m 1,6,-1
 374 0 l 1,7,-1
 223 0 l 1,8,-1
 223 187 l 1,9,-1
 374 187 l 1,6,-1
EndSplineSet
Validated: 1
EndChar

StartChar: quotedbl
Encoding: 34 34 7
Width: 638
GlyphClass: 2
Flags: W
LayerCount: 2
Fore
SplineSet
94 1277 m 1,0,-1
 262 1277 l 1,1,-1
 262 1076 l 1,2,-1
 212 835 l 1,3,-1
 142 835 l 1,4,-1
 94 1076 l 1,5,-1
 94 1277 l 1,0,-1
382 1277 m 1,6,-1
 550 1277 l 1,7,-1
 550 1076 l 1,8,-1
 500 835 l 1,9,-1
 430 835 l 1,10,-1
 382 1076 l 1,11,-1
 382 1277 l 1,6,-1
EndSplineSet
Validated: 1
EndChar

StartChar: numbersign
Encoding: 35 35 8
Width: 1000
GlyphClass: 2
Flags: W
LayerCount: 2
Fore
SplineSet
874 1255 m 1,0,-1
 809 902 l 1,1,-1
 976 902 l 1,2,-1
 976 780 l 1,3,-1
 785 780 l 1,4,-1
 730 466 l 1,5,-1
 918 466 l 1,6,-1
 918 343 l 1,7,-1
 708 343 l 1,8,-1
 637 -36 l 1,9,-1
 500 -36 l 1,10,-1
 569 343 l 1,11,-1
 346 343 l 1,12,-1
 276 -36 l 1,13,-1
 139 -36 l 1,14,-1
 206 343 l 1,15,-1
 25 343 l 1,16,-1
 25 466 l 1,17,-1
 230 466 l 1,18,-1
 286 780 l 1,19,-1
 91 780 l 1,20,-1
 91 902 l 1,21,-1
 310 902 l 1,22,-1
 374 1255 l 1,23,-1
 511 1255 l 1,24,-1
 446 902 l 1,25,-1
 672 902 l 1,26,-1
 734 1255 l 1,27,-1
 874 1255 l 1,0,-1
648 780 m 1,28,-1
 425 780 l 1,29,-1
 367 466 l 1,30,-1
 593 466 l 1,31,-1
 648 780 l 1,28,-1
EndSplineSet
Validated: 1
EndChar

StartChar: dollar
Encoding: 36 36 9
Width: 1000
GlyphClass: 2
Flags: W
LayerCount: 2
Fore
SplineSet
932 350 m 0,0,1
 932 177 932 177 832 74.5 c 128,-1,2
 732 -28 732 -28 544 -41 c 1,3,-1
 544 -227 l 1,4,-1
 437 -227 l 1,5,-1
 437 -41 l 1,6,7
 255 -29 255 -29 157.5 70.5 c 128,-1,8
 60 170 60 170 60 343 c 2,9,-1
 60 374 l 1,10,-1
 202 374 l 1,11,12
 204 344 204 344 205.5 332.5 c 128,-1,13
 207 321 207 321 211 292 c 128,-1,14
 215 263 215 263 219.5 250 c 128,-1,15
 224 237 224 237 233 212.5 c 128,-1,16
 242 188 242 188 253 175.5 c 128,-1,17
 264 163 264 163 281.5 145 c 128,-1,18
 299 127 299 127 321 117 c 128,-1,19
 343 107 343 107 372.5 97.5 c 128,-1,20
 402 88 402 88 437 83 c 1,21,-1
 437 572 l 1,22,23
 336 603 336 603 290.5 621.5 c 128,-1,24
 245 640 245 640 211 666 c 1,25,26
 83 758 83 758 83 929 c 0,27,28
 83 1083 83 1083 173.5 1175 c 128,-1,29
 264 1267 264 1267 437 1289 c 1,30,-1
 437 1386 l 1,31,-1
 544 1386 l 1,32,-1
 544 1289 l 1,33,34
 707 1276 707 1276 800 1182 c 128,-1,35
 893 1088 893 1088 893 934 c 1,36,-1
 751 934 l 1,37,38
 750 1033 750 1033 692.5 1095.5 c 128,-1,39
 635 1158 635 1158 544 1163 c 1,40,-1
 544 715 l 1,41,42
 555 712 555 712 591 702 c 128,-1,43
 627 692 627 692 651 685 c 128,-1,44
 675 678 675 678 713.5 662.5 c 128,-1,45
 752 647 752 647 779 630 c 128,-1,46
 806 613 806 613 837 585.5 c 128,-1,47
 868 558 868 558 887 526 c 128,-1,48
 906 494 906 494 919 448.5 c 128,-1,49
 932 403 932 403 932 350 c 0,0,1
437 730 m 1,50,-1
 437 1162 l 1,51,52
 337 1147 337 1147 282.5 1091.5 c 128,-1,53
 228 1036 228 1036 228 947 c 0,54,55
 228 784 228 784 437 730 c 1,50,-1
544 83 m 1,56,57
 664 97 664 97 724.5 164 c 128,-1,58
 785 231 785 231 785 329 c 0,59,60
 785 419 785 419 733.5 467.5 c 128,-1,61
 682 516 682 516 544 557 c 1,62,-1
 544 83 l 1,56,57
EndSplineSet
Validated: 1
EndChar

StartChar: percent
Encoding: 37 37 10
Width: 1599
GlyphClass: 2
Flags: W
LayerCount: 2
Fore
SplineSet
358 1234 m 0,0,1
 487 1234 487 1234 576.5 1143.5 c 128,-1,2
 666 1053 666 1053 666 922 c 0,3,4
 666 797 666 797 576 707 c 128,-1,5
 486 617 486 617 360 617 c 0,6,7
 233 617 233 617 143 707.5 c 128,-1,8
 53 798 53 798 53 925 c 128,-1,9
 53 1052 53 1052 143 1143 c 128,-1,10
 233 1234 233 1234 358 1234 c 0,0,1
358 1106 m 0,11,12
 283 1106 283 1106 229.5 1053 c 128,-1,13
 176 1000 176 1000 176 925 c 0,14,15
 176 851 176 851 230 797.5 c 128,-1,16
 284 744 284 744 360 744 c 0,17,18
 434 744 434 744 488 797 c 128,-1,19
 542 850 542 850 542 924 c 0,20,21
 542 1000 542 1000 488.5 1053 c 128,-1,22
 435 1106 435 1106 358 1106 c 0,11,12
1097 1277 m 1,23,-1
 1214 1277 l 1,24,-1
 504 -36 l 1,25,-1
 385 -36 l 1,26,-1
 1097 1277 l 1,23,-1
1238 580 m 0,27,28
 1368 580 1368 580 1457 490 c 128,-1,29
 1546 400 1546 400 1546 270 c 0,30,31
 1546 146 1546 146 1455.5 56 c 128,-1,32
 1365 -34 1365 -34 1241 -34 c 0,33,34
 1113 -34 1113 -34 1022.5 56 c 128,-1,35
 932 146 932 146 932 274 c 0,36,37
 932 400 932 400 1022 490 c 128,-1,38
 1112 580 1112 580 1238 580 c 0,27,28
1238 454 m 0,39,40
 1164 454 1164 454 1110 400.5 c 128,-1,41
 1056 347 1056 347 1056 274 c 0,42,43
 1056 198 1056 198 1110.5 144.5 c 128,-1,44
 1165 91 1165 91 1241 91 c 0,45,46
 1315 91 1315 91 1368.5 144 c 128,-1,47
 1422 197 1422 197 1422 270 c 0,48,49
 1422 347 1422 347 1369 400.5 c 128,-1,50
 1316 454 1316 454 1238 454 c 0,39,40
EndSplineSet
Validated: 1
EndChar

StartChar: ampersand
Encoding: 38 38 11
Width: 1200
GlyphClass: 2
Flags: W
LayerCount: 2
Fore
SplineSet
839 140 m 1,0,1
 827 126 827 126 805.5 107 c 128,-1,2
 784 88 784 88 761.5 68 c 128,-1,3
 739 48 739 48 706 28.5 c 128,-1,4
 673 9 673 9 638.5 -6.5 c 128,-1,5
 604 -22 604 -22 558 -31.5 c 128,-1,6
 512 -41 512 -41 463 -41 c 0,7,8
 296 -41 296 -41 195 57 c 128,-1,9
 94 155 94 155 94 317 c 0,10,11
 94 440 94 440 156 522 c 128,-1,12
 218 604 218 604 385 701 c 1,13,14
 302 805 302 805 271 868 c 128,-1,15
 240 931 240 931 240 994 c 0,16,17
 240 1112 240 1112 329.5 1194.5 c 128,-1,18
 419 1277 419 1277 547 1277 c 128,-1,19
 675 1277 675 1277 757.5 1197.5 c 128,-1,20
 840 1118 840 1118 840 994 c 0,21,22
 840 896 840 896 786.5 828 c 128,-1,23
 733 760 733 760 593 680 c 1,24,-1
 832 386 l 1,25,26
 888 490 888 490 888 594 c 2,27,-1
 888 601 l 1,28,-1
 1032 601 l 1,29,30
 1032 432 1032 432 926 271 c 1,31,-1
 1147 0 l 1,32,-1
 950 0 l 1,33,-1
 839 140 l 1,0,1
514 775 m 1,34,35
 619 842 619 842 658.5 889.5 c 128,-1,36
 698 937 698 937 698 997 c 0,37,38
 698 1063 698 1063 653.5 1106.5 c 128,-1,39
 609 1150 609 1150 542 1150 c 0,40,41
 472 1150 472 1150 429 1108 c 128,-1,42
 386 1066 386 1066 386 996 c 0,43,44
 386 948 386 948 408.5 909 c 128,-1,45
 431 870 431 870 514 775 c 1,34,35
752 247 m 1,46,-1
 464 607 l 1,47,48
 342 529 342 529 293.5 467 c 128,-1,49
 245 405 245 405 245 329 c 0,50,51
 245 235 245 235 314 166.5 c 128,-1,52
 383 98 383 98 480 98 c 0,53,54
 551 98 551 98 614 132.5 c 128,-1,55
 677 167 677 167 752 247 c 1,46,-1
EndSplineSet
Validated: 1
EndChar

StartChar: quotesingle
Encoding: 39 39 12
Width: 343
GlyphClass: 2
Flags: W
LayerCount: 2
Fore
SplineSet
86 1277 m 1,0,-1
 256 1277 l 1,1,-1
 256 1076 l 1,2,-1
 206 835 l 1,3,-1
 134 835 l 1,4,-1
 86 1076 l 1,5,-1
 86 1277 l 1,0,-1
EndSplineSet
Validated: 1
EndChar

StartChar: parenleft
Encoding: 40 40 13
Width: 598
GlyphClass: 2
Flags: W
LayerCount: 2
Fore
SplineSet
425 1313 m 1,0,-1
 523 1313 l 1,1,2
 405 1120 405 1120 341 900.5 c 128,-1,3
 277 681 277 681 277 466 c 0,4,5
 277 250 277 250 340.5 30.5 c 128,-1,6
 404 -189 404 -189 523 -382 c 1,7,-1
 425 -382 l 1,8,9
 290 -205 290 -205 211 24 c 128,-1,10
 132 253 132 253 132 466 c 0,11,12
 132 678 132 678 211 906.5 c 128,-1,13
 290 1135 290 1135 425 1313 c 1,0,-1
EndSplineSet
Validated: 1
EndChar

StartChar: parenright
Encoding: 41 41 14
Width: 598
GlyphClass: 2
Flags: W
LayerCount: 2
Fore
SplineSet
168 -382 m 1,0,-1
 68 -382 l 1,1,2
 187 -191 187 -191 250.5 29 c 128,-1,3
 314 249 314 249 314 464 c 0,4,5
 314 681 314 681 250.5 900.5 c 128,-1,6
 187 1120 187 1120 68 1313 c 1,7,-1
 168 1313 l 1,8,9
 303 1135 303 1135 382 906.5 c 128,-1,10
 461 678 461 678 461 464 c 0,11,12
 461 252 461 252 382 23.5 c 128,-1,13
 303 -205 303 -205 168 -382 c 1,0,-1
EndSplineSet
Validated: 1
EndChar

StartChar: asterisk
Encoding: 42 42 15
Width: 699
GlyphClass: 2
Flags: W
LayerCount: 2
Fore
SplineSet
288 1313 m 1,0,-1
 401 1313 l 1,1,-1
 392 1111 l 1,2,-1
 583 1178 l 1,3,-1
 617 1073 l 1,4,-1
 422 1019 l 1,5,-1
 550 859 l 1,6,-1
 457 794 l 1,7,-1
 346 961 l 1,8,-1
 233 794 l 1,9,-1
 142 859 l 1,10,-1
 266 1019 l 1,11,-1
 72 1073 l 1,12,-1
 106 1178 l 1,13,-1
 298 1111 l 1,14,-1
 288 1313 l 1,0,-1
EndSplineSet
Validated: 1
EndChar

StartChar: plus
Encoding: 43 43 16
Width: 1051
GlyphClass: 2
Flags: W
LayerCount: 2
Fore
SplineSet
961 480 m 1,0,-1
 961 355 l 1,1,-1
 588 355 l 1,2,-1
 588 -18 l 1,3,-1
 463 -18 l 1,4,-1
 463 355 l 1,5,-1
 90 355 l 1,6,-1
 90 480 l 1,7,-1
 463 480 l 1,8,-1
 463 853 l 1,9,-1
 588 853 l 1,10,-1
 588 480 l 1,11,-1
 961 480 l 1,0,-1
EndSplineSet
Validated: 1
EndChar

StartChar: comma
Encoding: 44 44 17
Width: 500
GlyphClass: 2
Flags: W
LayerCount: 2
Fore
SplineSet
156 187 m 1,0,-1
 346 187 l 1,1,-1
 346 -29 l 2,2,3
 346 -264 346 -264 156 -264 c 1,4,-1
 156 -197 l 1,5,6
 220 -193 220 -193 242 -159 c 128,-1,7
 264 -125 264 -125 264 -32 c 2,8,-1
 264 0 l 1,9,-1
 156 0 l 1,10,-1
 156 187 l 1,0,-1
EndSplineSet
Validated: 1
EndChar

StartChar: hyphen
Encoding: 45 45 18
Width: 598
GlyphClass: 2
Flags: W
LayerCount: 2
Fore
SplineSet
511 562 m 1,0,-1
 511 432 l 1,1,-1
 83 432 l 1,2,-1
 83 562 l 1,3,-1
 511 562 l 1,0,-1
EndSplineSet
Validated: 1
EndChar

StartChar: period
Encoding: 46 46 19
Width: 500
GlyphClass: 2
Flags: W
LayerCount: 2
Fore
SplineSet
343 187 m 1,0,-1
 343 0 l 1,1,-1
 156 0 l 1,2,-1
 156 187 l 1,3,-1
 343 187 l 1,0,-1
EndSplineSet
Validated: 1
EndChar

StartChar: slash
Encoding: 47 47 20
Width: 500
GlyphClass: 2
Flags: W
LayerCount: 2
Fore
SplineSet
413 1313 m 1,0,-1
 511 1313 l 1,1,-1
 84 -36 l 1,2,-1
 -14 -36 l 1,3,-1
 413 1313 l 1,0,-1
EndSplineSet
Validated: 1
EndChar

StartChar: zero
Encoding: 48 48 21
Width: 1000
GlyphClass: 2
Flags: W
LayerCount: 2
Fore
SplineSet
77 617 m 0,0,1
 77 778 77 778 104 900 c 128,-1,2
 131 1022 131 1022 172 1092 c 128,-1,3
 213 1162 213 1162 271 1205.5 c 128,-1,4
 329 1249 329 1249 382 1263 c 128,-1,5
 435 1277 435 1277 494 1277 c 0,6,7
 587 1277 587 1277 659 1242.5 c 128,-1,8
 731 1208 731 1208 778 1148 c 128,-1,9
 825 1088 825 1088 855.5 1002 c 128,-1,10
 886 916 886 916 899 819 c 128,-1,11
 912 722 912 722 912 607 c 0,12,13
 912 292 912 292 805 125.5 c 128,-1,14
 698 -41 698 -41 494 -41 c 0,15,16
 289 -41 289 -41 183 126.5 c 128,-1,17
 77 294 77 294 77 617 c 0,0,1
494 1135 m 0,18,19
 240 1135 240 1135 240 616 c 0,20,21
 240 90 240 90 492 90 c 0,22,23
 624 90 624 90 687.5 220 c 128,-1,24
 751 350 751 350 751 622 c 0,25,26
 751 1135 751 1135 494 1135 c 0,18,19
EndSplineSet
Validated: 1
EndChar

StartChar: one
Encoding: 49 49 22
Width: 1000
GlyphClass: 2
Flags: W
LayerCount: 2
Fore
SplineSet
466 910 m 1,0,-1
 184 910 l 1,1,-1
 184 1022 l 1,2,3
 250 1031 250 1031 290 1038 c 128,-1,4
 330 1045 330 1045 366.5 1058.5 c 128,-1,5
 403 1072 403 1072 423 1087 c 128,-1,6
 443 1102 443 1102 462 1130.5 c 128,-1,7
 481 1159 481 1159 493.5 1191.5 c 128,-1,8
 506 1224 506 1224 521 1277 c 1,9,-1
 624 1277 l 1,10,-1
 624 0 l 1,11,-1
 466 0 l 1,12,-1
 466 910 l 1,0,-1
EndSplineSet
Validated: 1
EndChar

StartChar: two
Encoding: 50 50 23
Width: 1000
GlyphClass: 2
Flags: W
LayerCount: 2
Fore
SplineSet
90 833 m 1,0,1
 103 1277 103 1277 511 1277 c 0,2,3
 692 1277 692 1277 805.5 1172.5 c 128,-1,4
 919 1068 919 1068 919 902 c 0,5,6
 919 664 919 664 650 516 c 1,7,-1
 470 420 l 2,8,9
 353 357 353 357 302.5 297.5 c 128,-1,10
 252 238 252 238 240 156 c 1,11,-1
 911 156 l 1,12,-1
 911 0 l 1,13,-1
 61 0 l 1,14,15
 72 211 72 211 146.5 325 c 128,-1,16
 221 439 221 439 420 552 c 2,17,-1
 586 646 l 2,18,19
 758 744 758 744 758 898 c 0,20,21
 758 1000 758 1000 686 1069 c 128,-1,22
 614 1138 614 1138 506 1138 c 0,23,24
 443 1138 443 1138 395.5 1117 c 128,-1,25
 348 1096 348 1096 322 1066 c 128,-1,26
 296 1036 296 1036 279 991 c 128,-1,27
 262 946 262 946 256.5 911.5 c 128,-1,28
 251 877 251 877 248 833 c 1,29,-1
 90 833 l 1,0,1
EndSplineSet
Validated: 1
EndChar

StartChar: three
Encoding: 51 51 24
Width: 1000
GlyphClass: 2
Flags: W
LayerCount: 2
Fore
SplineSet
486 1138 m 0,0,1
 427 1138 427 1138 383.5 1122.5 c 128,-1,2
 340 1107 340 1107 314 1082 c 128,-1,3
 288 1057 288 1057 272 1020 c 128,-1,4
 256 983 256 983 250 946.5 c 128,-1,5
 244 910 244 910 242 864 c 1,6,-1
 84 864 l 1,7,8
 89 1067 89 1067 190.5 1172 c 128,-1,9
 292 1277 292 1277 485 1277 c 0,10,11
 667 1277 667 1277 770.5 1183.5 c 128,-1,12
 874 1090 874 1090 874 925 c 0,13,14
 874 732 874 732 695 660 c 1,15,16
 809 621 809 621 860 549 c 128,-1,17
 911 477 911 477 911 356 c 0,18,19
 911 175 911 175 793.5 67 c 128,-1,20
 676 -41 676 -41 479 -41 c 0,21,22
 279 -41 279 -41 175.5 61 c 128,-1,23
 72 163 72 163 58 371 c 1,24,-1
 216 371 l 1,25,26
 224 231 224 231 289.5 164.5 c 128,-1,27
 355 98 355 98 485 98 c 0,28,29
 609 98 609 98 679 166 c 128,-1,30
 749 234 749 234 749 355 c 0,31,32
 749 470 749 470 682.5 528.5 c 128,-1,33
 616 587 616 587 485 587 c 1,34,-1
 418 586 l 1,35,-1
 398 586 l 1,36,-1
 398 720 l 1,37,38
 568 723 568 723 639 762.5 c 128,-1,39
 710 802 710 802 710 919 c 0,40,41
 710 1021 710 1021 650.5 1079.5 c 128,-1,42
 591 1138 591 1138 486 1138 c 0,0,1
EndSplineSet
Validated: 1
EndChar

StartChar: four
Encoding: 52 52 25
Width: 1000
GlyphClass: 2
Flags: W
LayerCount: 2
Fore
SplineSet
588 306 m 1,0,-1
 50 306 l 1,1,-1
 50 473 l 1,2,-1
 630 1277 l 1,3,-1
 746 1277 l 1,4,-1
 746 449 l 1,5,-1
 936 449 l 1,6,-1
 936 306 l 1,7,-1
 746 306 l 1,8,-1
 746 0 l 1,9,-1
 588 0 l 1,10,-1
 588 306 l 1,0,-1
588 449 m 1,11,-1
 588 1006 l 1,12,-1
 190 449 l 1,13,-1
 588 449 l 1,11,-1
EndSplineSet
Validated: 1
EndChar

StartChar: five
Encoding: 53 53 26
Width: 1000
GlyphClass: 2
Flags: W
LayerCount: 2
Fore
SplineSet
857 1277 m 1,0,-1
 857 1120 l 1,1,-1
 326 1120 l 1,2,-1
 276 763 l 1,3,4
 380 840 380 840 511 840 c 0,5,6
 695 840 695 840 809.5 722 c 128,-1,7
 924 604 924 604 924 415 c 0,8,9
 924 213 924 213 802 86 c 128,-1,10
 680 -41 680 -41 486 -41 c 0,11,12
 428 -41 428 -41 377 -31 c 128,-1,13
 326 -21 326 -21 289 -6.5 c 128,-1,14
 252 8 252 8 219.5 33 c 128,-1,15
 187 58 187 58 166.5 78.5 c 128,-1,16
 146 99 146 99 127.5 132 c 128,-1,17
 109 165 109 165 99.5 183.5 c 128,-1,18
 90 202 90 202 80.5 235.5 c 128,-1,19
 71 269 71 269 69 278.5 c 128,-1,20
 67 288 67 288 62 313 c 1,21,-1
 221 313 l 1,22,23
 278 98 278 98 482 98 c 0,24,25
 612 98 612 98 686.5 177.5 c 128,-1,26
 761 257 761 257 761 394 c 0,27,28
 761 536 761 536 685.5 618.5 c 128,-1,29
 610 701 610 701 482 701 c 0,30,31
 408 701 408 701 355.5 674 c 128,-1,32
 303 647 303 647 248 581 c 1,33,-1
 103 581 l 1,34,-1
 198 1277 l 1,35,-1
 857 1277 l 1,0,-1
EndSplineSet
Validated: 1
EndChar

StartChar: six
Encoding: 54 54 27
Width: 1000
GlyphClass: 2
Flags: W
LayerCount: 2
Fore
SplineSet
77 581 m 0,0,1
 77 703 77 703 93 805 c 128,-1,2
 109 907 109 907 135 977.5 c 128,-1,3
 161 1048 161 1048 198.5 1102.5 c 128,-1,4
 236 1157 236 1157 276 1189.5 c 128,-1,5
 316 1222 316 1222 363 1242 c 128,-1,6
 410 1262 410 1262 450.5 1269.5 c 128,-1,7
 491 1277 491 1277 535 1277 c 0,8,9
 681 1277 681 1277 777.5 1188.5 c 128,-1,10
 874 1100 874 1100 896 943 c 1,11,-1
 738 943 l 1,12,13
 719 1035 719 1035 663.5 1085 c 128,-1,14
 608 1135 608 1135 523 1135 c 0,15,16
 387 1135 387 1135 314 1010 c 128,-1,17
 241 885 241 885 240 652 c 1,18,19
 342 794 342 794 533 794 c 0,20,21
 704 794 704 794 814 680.5 c 128,-1,22
 924 567 924 567 924 389 c 0,23,24
 924 202 924 202 806 80.5 c 128,-1,25
 688 -41 688 -41 506 -41 c 0,26,27
 77 -41 77 -41 77 581 c 0,0,1
514 653 m 0,28,29
 396 653 396 653 322 578.5 c 128,-1,30
 248 504 248 504 248 385 c 0,31,32
 248 262 248 262 322.5 180 c 128,-1,33
 397 98 397 98 508 98 c 0,34,35
 617 98 617 98 689 177 c 128,-1,36
 761 256 761 256 761 377 c 0,37,38
 761 504 761 504 694.5 578.5 c 128,-1,39
 628 653 628 653 514 653 c 0,28,29
EndSplineSet
Validated: 1
EndChar

StartChar: seven
Encoding: 55 55 28
Width: 1000
GlyphClass: 2
Flags: W
LayerCount: 2
Fore
SplineSet
936 1277 m 1,0,-1
 936 1142 l 1,1,2
 719 855 719 855 594.5 580 c 128,-1,3
 470 305 470 305 418 0 c 1,4,-1
 248 0 l 1,5,6
 319 315 319 315 431.5 554.5 c 128,-1,7
 544 794 544 794 773 1120 c 1,8,-1
 83 1120 l 1,9,-1
 83 1277 l 1,10,-1
 936 1277 l 1,0,-1
EndSplineSet
Validated: 1
EndChar

StartChar: eight
Encoding: 56 56 29
Width: 1000
GlyphClass: 2
Flags: W
LayerCount: 2
Fore
SplineSet
703 672 m 1,0,1
 924 567 924 567 924 353 c 0,2,3
 924 179 924 179 803.5 69 c 128,-1,4
 683 -41 683 -41 494 -41 c 128,-1,5
 305 -41 305 -41 186 69 c 128,-1,6
 67 179 67 179 67 355 c 0,7,8
 67 566 67 566 284 672 c 1,9,10
 187 732 187 732 149.5 789.5 c 128,-1,11
 112 847 112 847 112 936 c 0,12,13
 112 1085 112 1085 219 1181 c 128,-1,14
 326 1277 326 1277 494 1277 c 0,15,16
 664 1277 664 1277 771 1181.5 c 128,-1,17
 878 1086 878 1086 878 936 c 0,18,19
 878 846 878 846 840 788.5 c 128,-1,20
 802 731 802 731 703 672 c 1,0,1
494 1135 m 0,21,22
 395 1135 395 1135 334.5 1080 c 128,-1,23
 274 1025 274 1025 274 934 c 0,24,25
 274 844 274 844 334.5 789 c 128,-1,26
 395 734 395 734 494 734 c 0,27,28
 595 734 595 734 655.5 788.5 c 128,-1,29
 716 843 716 843 716 932 c 0,30,31
 716 1025 716 1025 656 1080 c 128,-1,32
 596 1135 596 1135 494 1135 c 0,21,22
494 601 m 128,-1,34
 375 601 375 601 301.5 531.5 c 128,-1,35
 228 462 228 462 228 350 c 0,36,37
 228 239 228 239 301.5 168.5 c 128,-1,38
 375 98 375 98 492 98 c 0,39,40
 613 98 613 98 687 167.5 c 128,-1,41
 761 237 761 237 761 350 c 0,42,43
 761 462 761 462 687 531.5 c 128,-1,33
 613 601 613 601 494 601 c 128,-1,34
EndSplineSet
Validated: 1
EndChar

StartChar: nine
Encoding: 57 57 30
Width: 1000
GlyphClass: 2
Flags: W
LayerCount: 2
Fore
SplineSet
917 653 m 0,0,1
 917 483 917 483 886.5 354.5 c 128,-1,2
 856 226 856 226 809.5 152.5 c 128,-1,3
 763 79 763 79 699 33.5 c 128,-1,4
 635 -12 635 -12 577.5 -26.5 c 128,-1,5
 520 -41 520 -41 457 -41 c 0,6,7
 311 -41 311 -41 214.5 47.5 c 128,-1,8
 118 136 118 136 96 292 c 1,9,-1
 254 292 l 1,10,11
 272 200 272 200 328 149 c 128,-1,12
 384 98 384 98 468 98 c 0,13,14
 604 98 604 98 677.5 223.5 c 128,-1,15
 751 349 751 349 752 583 c 1,16,17
 691 510 691 510 621 476 c 128,-1,18
 551 442 551 442 461 442 c 0,19,20
 288 442 288 442 178 555 c 128,-1,21
 68 668 68 668 68 846 c 0,22,23
 68 1034 68 1034 185.5 1155.5 c 128,-1,24
 303 1277 303 1277 486 1277 c 0,25,26
 602 1277 602 1277 686.5 1231.5 c 128,-1,27
 771 1186 771 1186 821 1101 c 128,-1,28
 871 1016 871 1016 894 905 c 128,-1,29
 917 794 917 794 917 653 c 0,0,1
485 1138 m 128,-1,31
 375 1138 375 1138 302.5 1059 c 128,-1,32
 230 980 230 980 230 859 c 0,33,34
 230 731 230 731 297 656 c 128,-1,35
 364 581 364 581 479 581 c 0,36,37
 595 581 595 581 669.5 657 c 128,-1,38
 744 733 744 733 744 850 c 0,39,40
 744 973 744 973 669.5 1055.5 c 128,-1,30
 595 1138 595 1138 485 1138 c 128,-1,31
EndSplineSet
Validated: 1
EndChar

StartChar: colon
Encoding: 58 58 31
Width: 500
GlyphClass: 2
Flags: W
LayerCount: 2
Fore
SplineSet
385 187 m 1,0,-1
 385 0 l 1,1,-1
 198 0 l 1,2,-1
 198 187 l 1,3,-1
 385 187 l 1,0,-1
385 943 m 1,4,-1
 385 756 l 1,5,-1
 198 756 l 1,6,-1
 198 943 l 1,7,-1
 385 943 l 1,4,-1
EndSplineSet
Validated: 1
EndChar

StartChar: semicolon
Encoding: 59 59 32
Width: 500
GlyphClass: 2
Flags: W
LayerCount: 2
Fore
SplineSet
386 943 m 1,0,-1
 386 756 l 1,1,-1
 199 756 l 1,2,-1
 199 943 l 1,3,-1
 386 943 l 1,0,-1
198 187 m 1,4,-1
 386 187 l 1,5,-1
 386 -29 l 2,6,7
 386 -264 386 -264 198 -264 c 1,8,-1
 198 -197 l 1,9,10
 262 -193 262 -193 284 -159 c 128,-1,11
 306 -125 306 -125 306 -32 c 2,12,-1
 306 0 l 1,13,-1
 198 0 l 1,14,-1
 198 187 l 1,4,-1
EndSplineSet
Validated: 1
EndChar

StartChar: less
Encoding: 60 60 33
Width: 1051
GlyphClass: 2
Flags: W
LayerCount: 2
Fore
SplineSet
82 356 m 1,0,-1
 82 480 l 1,1,-1
 961 853 l 1,2,-1
 961 710 l 1,3,-1
 252 421 l 1,4,-1
 961 126 l 1,5,-1
 961 -17 l 1,6,-1
 82 356 l 1,0,-1
EndSplineSet
Validated: 1
EndChar

StartChar: equal
Encoding: 61 61 34
Width: 1051
GlyphClass: 2
Flags: W
LayerCount: 2
Fore
SplineSet
961 636 m 1,0,-1
 961 509 l 1,1,-1
 90 509 l 1,2,-1
 90 636 l 1,3,-1
 961 636 l 1,0,-1
961 326 m 1,4,-1
 961 199 l 1,5,-1
 90 199 l 1,6,-1
 90 326 l 1,7,-1
 961 326 l 1,4,-1
EndSplineSet
Validated: 1
EndChar

StartChar: greater
Encoding: 62 62 35
Width: 1051
GlyphClass: 2
Flags: W
LayerCount: 2
Fore
SplineSet
970 480 m 1,0,-1
 970 356 l 1,1,-1
 90 -17 l 1,2,-1
 90 126 l 1,3,-1
 799 415 l 1,4,-1
 90 710 l 1,5,-1
 90 853 l 1,6,-1
 970 480 l 1,0,-1
EndSplineSet
Validated: 1
EndChar

StartChar: question
Encoding: 63 63 36
Width: 1000
GlyphClass: 2
Flags: W
LayerCount: 2
Fore
SplineSet
917 989 m 0,0,1
 917 929 917 929 899 877 c 128,-1,2
 881 825 881 825 852.5 787.5 c 128,-1,3
 824 750 824 750 790 717 c 128,-1,4
 756 684 756 684 721.5 654 c 128,-1,5
 687 624 687 624 658.5 593.5 c 128,-1,6
 630 563 630 563 612 524.5 c 128,-1,7
 594 486 594 486 594 443 c 2,8,-1
 594 358 l 1,9,-1
 432 358 l 1,10,-1
 432 457 l 2,11,12
 432 507 432 507 450 551.5 c 128,-1,13
 468 596 468 596 496 630 c 128,-1,14
 524 664 524 664 558.5 697 c 128,-1,15
 593 730 593 730 627.5 761.5 c 128,-1,16
 662 793 662 793 690 826 c 128,-1,17
 718 859 718 859 736 901 c 128,-1,18
 754 943 754 943 754 989 c 0,19,20
 754 1081 754 1081 690.5 1137 c 128,-1,21
 627 1193 627 1193 523 1193 c 0,22,23
 455 1193 455 1193 408.5 1172.5 c 128,-1,24
 362 1152 362 1152 337 1112 c 128,-1,25
 312 1072 312 1072 302 1024.5 c 128,-1,26
 292 977 292 977 292 912 c 1,27,-1
 139 912 l 1,28,29
 139 1120 139 1120 239 1227 c 128,-1,30
 339 1334 339 1334 533 1334 c 0,31,32
 708 1334 708 1334 812.5 1240.5 c 128,-1,33
 917 1147 917 1147 917 989 c 0,0,1
594 187 m 1,34,-1
 594 0 l 1,35,-1
 432 0 l 1,36,-1
 432 187 l 1,37,-1
 594 187 l 1,34,-1
EndSplineSet
Validated: 1
EndChar

StartChar: at
Encoding: 64 64 37
Width: 1826
GlyphClass: 2
Flags: W
LayerCount: 2
Fore
SplineSet
1198 902 m 1,0,-1
 1346 902 l 1,1,-1
 1184 398 l 2,2,3
 1163 335 1163 335 1163 307 c 0,4,5
 1163 275 1163 275 1190 251.5 c 128,-1,6
 1217 228 1217 228 1253 228 c 0,7,8
 1328 228 1328 228 1398.5 287 c 128,-1,9
 1469 346 1469 346 1512 443 c 128,-1,10
 1555 540 1555 540 1555 643 c 0,11,12
 1555 790 1555 790 1469 917.5 c 128,-1,13
 1383 1045 1383 1045 1237 1120 c 128,-1,14
 1091 1195 1091 1195 922 1195 c 0,15,16
 782 1195 782 1195 651.5 1137.5 c 128,-1,17
 521 1080 521 1080 425 985 c 128,-1,18
 329 890 329 890 271.5 760.5 c 128,-1,19
 214 631 214 631 214 492 c 0,20,21
 214 365 214 365 266.5 252 c 128,-1,22
 319 139 319 139 408.5 58 c 128,-1,23
 498 -23 498 -23 623 -70.5 c 128,-1,24
 748 -118 748 -118 889 -118 c 0,25,26
 1029 -118 1029 -118 1236 -60 c 1,27,-1
 1286 -180 l 1,28,29
 1082 -256 1082 -256 881 -256 c 0,30,31
 713 -256 713 -256 561 -199 c 128,-1,32
 409 -142 409 -142 299.5 -46 c 128,-1,33
 190 50 190 50 125.5 183.5 c 128,-1,34
 61 317 61 317 61 464 c 0,35,36
 61 641 61 641 137 811 c 128,-1,37
 213 981 213 981 346 1102 c 0,38,39
 465 1210 465 1210 625 1272 c 128,-1,40
 785 1334 785 1334 946 1334 c 0,41,42
 1151 1334 1151 1334 1327.5 1243.5 c 128,-1,43
 1504 1153 1504 1153 1607.5 998.5 c 128,-1,44
 1711 844 1711 844 1711 665 c 0,45,46
 1711 558 1711 558 1671 453.5 c 128,-1,47
 1631 349 1631 349 1558 263 c 0,48,49
 1420 103 1420 103 1222 103 c 0,50,51
 1048 103 1048 103 1025 241 c 1,52,53
 962 173 962 173 901 142.5 c 128,-1,54
 840 112 840 112 768 112 c 0,55,56
 643 112 643 112 559 206.5 c 128,-1,57
 475 301 475 301 475 442 c 0,58,59
 475 537 475 537 513.5 629 c 128,-1,60
 552 721 552 721 615.5 789 c 128,-1,61
 679 857 679 857 764 898.5 c 128,-1,62
 849 940 849 940 938 940 c 0,63,64
 1089 940 1089 940 1157 782 c 1,65,-1
 1198 902 l 1,0,-1
816 227 m 0,66,67
 876 227 876 227 931 273 c 128,-1,68
 986 319 986 319 1021 386.5 c 128,-1,69
 1056 454 1056 454 1076.5 528 c 128,-1,70
 1097 602 1097 602 1097 662 c 0,71,72
 1097 731 1097 731 1048.5 777.5 c 128,-1,73
 1000 824 1000 824 926 824 c 0,74,75
 813 824 813 824 725 707 c 128,-1,76
 637 590 637 590 637 439 c 0,77,78
 637 350 637 350 689 288.5 c 128,-1,79
 741 227 741 227 816 227 c 0,66,67
EndSplineSet
Validated: 1
EndChar

StartChar: A
Encoding: 65 65 38
Width: 1200
GlyphClass: 2
Flags: W
LayerCount: 2
Fore
SplineSet
853 394 m 1,0,-1
 348 394 l 1,1,-1
 209 0 l 1,2,-1
 31 0 l 1,3,-1
 499 1313 l 1,4,-1
 715 1313 l 1,5,-1
 1176 0 l 1,6,-1
 989 0 l 1,7,-1
 853 394 l 1,0,-1
806 535 m 1,8,-1
 605 1133 l 1,9,-1
 389 535 l 1,10,-1
 806 535 l 1,8,-1
EndSplineSet
Validated: 1
EndChar

StartChar: B
Encoding: 66 66 39
Width: 1200
GlyphClass: 2
Flags: W
LayerCount: 2
Fore
SplineSet
1121 374 m 0,0,1
 1121 205 1121 205 1015 102.5 c 128,-1,2
 909 0 909 0 734 0 c 2,3,-1
 142 0 l 1,4,-1
 142 1313 l 1,5,-1
 674 1313 l 2,6,7
 764 1313 764 1313 834 1290.5 c 128,-1,8
 904 1268 904 1268 946 1234 c 128,-1,9
 988 1200 988 1200 1015.5 1154 c 128,-1,10
 1043 1108 1043 1108 1053 1065.5 c 128,-1,11
 1063 1023 1063 1023 1063 979 c 0,12,13
 1063 778 1063 778 882 694 c 1,14,15
 1007 645 1007 645 1064 569 c 128,-1,16
 1121 493 1121 493 1121 374 c 0,0,1
896 955 m 0,17,18
 896 1017 896 1017 875.5 1059.5 c 128,-1,19
 855 1102 855 1102 816.5 1124 c 128,-1,20
 778 1146 778 1146 734.5 1155 c 128,-1,21
 691 1164 691 1164 634 1164 c 2,22,-1
 310 1164 l 1,23,-1
 310 746 l 1,24,-1
 634 746 l 2,25,26
 760 746 760 746 828 794.5 c 128,-1,27
 896 843 896 843 896 955 c 0,17,18
718 148 m 2,28,29
 785 148 785 148 834 169.5 c 128,-1,30
 883 191 883 191 907.5 226.5 c 128,-1,31
 932 262 932 262 943 298 c 128,-1,32
 954 334 954 334 954 372 c 0,33,34
 954 476 954 476 893 538 c 128,-1,35
 832 600 832 600 718 600 c 2,36,-1
 310 600 l 1,37,-1
 310 148 l 1,38,-1
 718 148 l 2,28,29
EndSplineSet
Validated: 1
EndChar

StartChar: C
Encoding: 67 67 40
Width: 1299
GlyphClass: 2
Flags: W
LayerCount: 2
Fore
SplineSet
86 641 m 0,0,1
 86 703 86 703 94 765.5 c 128,-1,2
 102 828 102 828 121.5 897.5 c 128,-1,3
 141 967 141 967 171 1028.5 c 128,-1,4
 201 1090 201 1090 248.5 1147 c 128,-1,5
 296 1204 296 1204 356.5 1244.5 c 128,-1,6
 417 1285 417 1285 501.5 1309.5 c 128,-1,7
 586 1334 586 1334 686 1334 c 0,8,9
 1115 1334 1115 1334 1192 905 c 1,10,-1
 1020 905 l 1,11,12
 992 1047 992 1047 907 1116.5 c 128,-1,13
 822 1186 822 1186 666 1186 c 0,14,15
 476 1186 476 1186 365 1040.5 c 128,-1,16
 254 895 254 895 254 643 c 0,17,18
 254 396 254 396 369.5 251 c 128,-1,19
 485 106 485 106 680 106 c 0,20,21
 842 106 842 106 928.5 197.5 c 128,-1,22
 1015 289 1015 289 1046 479 c 1,23,-1
 1219 479 l 1,24,25
 1158 -41 1158 -41 679 -41 c 0,26,27
 565 -41 565 -41 471 -9.5 c 128,-1,28
 377 22 377 22 314 76.5 c 128,-1,29
 251 131 251 131 205 198.5 c 128,-1,30
 159 266 159 266 134 345 c 128,-1,31
 109 424 109 424 97.5 496.5 c 128,-1,32
 86 569 86 569 86 641 c 0,0,1
EndSplineSet
Validated: 1
EndChar

StartChar: D
Encoding: 68 68 41
Width: 1299
GlyphClass: 2
Flags: W
LayerCount: 2
Fore
SplineSet
161 0 m 1,0,-1
 161 1313 l 1,1,-1
 666 1313 l 2,2,3
 915 1313 915 1313 1057.5 1137.5 c 128,-1,4
 1200 962 1200 962 1200 658 c 0,5,6
 1200 351 1200 351 1057.5 175.5 c 128,-1,7
 915 0 915 0 666 0 c 2,8,-1
 161 0 l 1,0,-1
328 148 m 1,9,-1
 637 148 l 2,10,11
 831 148 831 148 932 277.5 c 128,-1,12
 1033 407 1033 407 1033 655 c 0,13,14
 1033 906 1033 906 932.5 1035 c 128,-1,15
 832 1164 832 1164 637 1164 c 2,16,-1
 328 1164 l 1,17,-1
 328 148 l 1,9,-1
EndSplineSet
Validated: 1
EndChar

StartChar: E
Encoding: 69 69 42
Width: 1200
GlyphClass: 2
Flags: W
LayerCount: 2
Fore
SplineSet
329 598 m 1,0,-1
 329 148 l 1,1,-1
 1104 148 l 1,2,-1
 1104 0 l 1,3,-1
 162 0 l 1,4,-1
 162 1313 l 1,5,-1
 1070 1313 l 1,6,-1
 1070 1164 l 1,7,-1
 329 1164 l 1,8,-1
 329 745 l 1,9,-1
 1044 745 l 1,10,-1
 1044 598 l 1,11,-1
 329 598 l 1,0,-1
EndSplineSet
Validated: 1
EndChar

StartChar: F
Encoding: 70 70 43
Width: 1099
GlyphClass: 2
Flags: W
LayerCount: 2
Fore
SplineSet
329 598 m 1,0,-1
 329 0 l 1,1,-1
 162 0 l 1,2,-1
 162 1313 l 1,3,-1
 1042 1313 l 1,4,-1
 1042 1164 l 1,5,-1
 329 1164 l 1,6,-1
 329 745 l 1,7,-1
 955 745 l 1,8,-1
 955 598 l 1,9,-1
 329 598 l 1,0,-1
EndSplineSet
Validated: 1
EndChar

StartChar: G
Encoding: 71 71 44
Width: 1400
GlyphClass: 2
Flags: W
LayerCount: 2
Fore
SplineSet
247 652 m 0,0,1
 247 583 247 583 259 514 c 128,-1,2
 271 445 271 445 304.5 369.5 c 128,-1,3
 338 294 338 294 388.5 237 c 128,-1,4
 439 180 439 180 524 143 c 128,-1,5
 609 106 609 106 716 106 c 0,6,7
 895 106 895 106 1011.5 220 c 128,-1,8
 1128 334 1128 334 1128 509 c 2,9,-1
 1128 545 l 1,10,-1
 730 545 l 1,11,-1
 730 694 l 1,12,-1
 1277 694 l 1,13,-1
 1277 -7 l 1,14,-1
 1170 -7 l 1,15,-1
 1128 168 l 1,16,17
 1033 61 1033 61 923.5 10 c 128,-1,18
 814 -41 814 -41 680 -41 c 0,19,20
 505 -41 505 -41 368 45.5 c 128,-1,21
 231 132 231 132 155 288 c 128,-1,22
 79 444 79 444 79 643 c 0,23,24
 79 729 79 729 95.5 816 c 128,-1,25
 112 903 112 903 156.5 998.5 c 128,-1,26
 201 1094 201 1094 269 1166.5 c 128,-1,27
 337 1239 337 1239 451 1286.5 c 128,-1,28
 565 1334 565 1334 709 1334 c 0,29,30
 935 1334 935 1334 1079.5 1224 c 128,-1,31
 1224 1114 1224 1114 1258 914 c 1,32,-1
 1087 914 l 1,33,34
 1060 1041 1060 1041 959 1113.5 c 128,-1,35
 858 1186 858 1186 708 1186 c 0,36,37
 500 1186 500 1186 373.5 1040 c 128,-1,38
 247 894 247 894 247 652 c 0,0,1
EndSplineSet
Validated: 1
EndChar

StartChar: H
Encoding: 72 72 45
Width: 1299
GlyphClass: 2
Flags: W
LayerCount: 2
Fore
SplineSet
991 598 m 1,0,-1
 317 598 l 1,1,-1
 317 0 l 1,2,-1
 149 0 l 1,3,-1
 149 1313 l 1,4,-1
 317 1313 l 1,5,-1
 317 745 l 1,6,-1
 991 745 l 1,7,-1
 991 1313 l 1,8,-1
 1159 1313 l 1,9,-1
 1159 0 l 1,10,-1
 991 0 l 1,11,-1
 991 598 l 1,0,-1
EndSplineSet
Validated: 1
EndChar

StartChar: I
Encoding: 73 73 46
Width: 500
GlyphClass: 2
Flags: W
LayerCount: 2
Fore
SplineSet
349 1313 m 1,0,-1
 349 0 l 1,1,-1
 180 0 l 1,2,-1
 180 1313 l 1,3,-1
 349 1313 l 1,0,-1
EndSplineSet
Validated: 1
EndChar

StartChar: J
Encoding: 74 74 47
Width: 900
GlyphClass: 2
Flags: W
LayerCount: 2
Fore
SplineSet
398 98 m 0,0,1
 512 98 512 98 556 174 c 128,-1,2
 600 250 600 250 600 389 c 2,3,-1
 600 1313 l 1,4,-1
 767 1313 l 1,5,-1
 767 328 l 2,6,7
 767 158 767 158 667 58.5 c 128,-1,8
 567 -41 567 -41 396 -41 c 0,9,10
 227 -41 227 -41 129 52.5 c 128,-1,11
 31 146 31 146 31 306 c 2,12,-1
 31 421 l 1,13,-1
 202 421 l 1,14,-1
 202 336 l 2,15,16
 202 222 202 222 252.5 160 c 128,-1,17
 303 98 303 98 398 98 c 0,0,1
EndSplineSet
Validated: 1
EndChar

StartChar: K
Encoding: 75 75 48
Width: 1200
GlyphClass: 2
Flags: W
LayerCount: 2
Fore
SplineSet
310 458 m 1,0,-1
 310 0 l 1,1,-1
 142 0 l 1,2,-1
 142 1313 l 1,3,-1
 310 1313 l 1,4,-1
 310 648 l 1,5,-1
 962 1313 l 1,6,-1
 1178 1313 l 1,7,-1
 644 778 l 1,8,-1
 1184 0 l 1,9,-1
 986 0 l 1,10,-1
 523 673 l 1,11,-1
 310 458 l 1,0,-1
EndSplineSet
Validated: 1
EndChar

StartChar: L
Encoding: 76 76 49
Width: 1000
GlyphClass: 2
Flags: W
LayerCount: 2
Fore
SplineSet
312 1313 m 1,0,-1
 312 148 l 1,1,-1
 960 148 l 1,2,-1
 960 0 l 1,3,-1
 144 0 l 1,4,-1
 144 1313 l 1,5,-1
 312 1313 l 1,0,-1
EndSplineSet
Validated: 1
EndChar

StartChar: M
Encoding: 77 77 50
Width: 1498
GlyphClass: 2
Flags: W
LayerCount: 2
Fore
SplineSet
842 0 m 1,0,-1
 666 0 l 1,1,-1
 293 1099 l 1,2,-1
 293 0 l 1,3,-1
 134 0 l 1,4,-1
 134 1313 l 1,5,-1
 367 1313 l 1,6,-1
 756 169 l 1,7,-1
 1138 1313 l 1,8,-1
 1370 1313 l 1,9,-1
 1370 0 l 1,10,-1
 1212 0 l 1,11,-1
 1212 1099 l 1,12,-1
 842 0 l 1,0,-1
EndSplineSet
Validated: 1
EndChar

StartChar: N
Encoding: 78 78 51
Width: 1299
GlyphClass: 2
Flags: W
LayerCount: 2
Fore
SplineSet
1163 1313 m 1,0,-1
 1163 0 l 1,1,-1
 974 0 l 1,2,-1
 295 1063 l 1,3,-1
 295 0 l 1,4,-1
 137 0 l 1,5,-1
 137 1313 l 1,6,-1
 319 1313 l 1,7,-1
 1004 240 l 1,8,-1
 1004 1313 l 1,9,-1
 1163 1313 l 1,0,-1
EndSplineSet
Validated: 1
EndChar

StartChar: O
Encoding: 79 79 52
Width: 1400
GlyphClass: 2
Flags: W
LayerCount: 2
Fore
SplineSet
1336 636 m 0,0,1
 1336 494 1336 494 1291.5 370.5 c 128,-1,2
 1247 247 1247 247 1166.5 155.5 c 128,-1,3
 1086 64 1086 64 966 11.5 c 128,-1,4
 846 -41 846 -41 702 -41 c 0,5,6
 418 -41 418 -41 243 148.5 c 128,-1,7
 68 338 68 338 68 646 c 0,8,9
 68 953 68 953 243 1143.5 c 128,-1,10
 418 1334 418 1334 701 1334 c 0,11,12
 989 1334 989 1334 1162.5 1143.5 c 128,-1,13
 1336 953 1336 953 1336 636 c 0,0,1
701 1186 m 0,14,15
 492 1186 492 1186 363.5 1037.5 c 128,-1,16
 235 889 235 889 235 646 c 128,-1,17
 235 403 235 403 363.5 254.5 c 128,-1,18
 492 106 492 106 702 106 c 0,19,20
 910 106 910 106 1039.5 253.5 c 128,-1,21
 1169 401 1169 401 1169 638 c 0,22,23
 1169 887 1169 887 1041 1036.5 c 128,-1,24
 913 1186 913 1186 701 1186 c 0,14,15
EndSplineSet
Validated: 1
EndChar

StartChar: P
Encoding: 80 80 53
Width: 1200
GlyphClass: 2
Flags: W
LayerCount: 2
Fore
SplineSet
1111 926 m 0,0,1
 1111 759 1111 759 1009 658 c 128,-1,2
 907 557 907 557 744 557 c 2,3,-1
 331 557 l 1,4,-1
 331 0 l 1,5,-1
 163 0 l 1,6,-1
 163 1313 l 1,7,-1
 706 1313 l 2,8,9
 900 1313 900 1313 1005.5 1212.5 c 128,-1,10
 1111 1112 1111 1112 1111 926 c 0,0,1
331 703 m 1,11,-1
 680 703 l 2,12,13
 800 703 800 703 868 764.5 c 128,-1,14
 936 826 936 826 936 934 c 128,-1,15
 936 1042 936 1042 868 1103 c 128,-1,16
 800 1164 800 1164 680 1164 c 2,17,-1
 331 1164 l 1,18,-1
 331 703 l 1,11,-1
EndSplineSet
Validated: 1
EndChar

StartChar: Q
Encoding: 81 81 54
Width: 1400
GlyphClass: 2
Flags: W
LayerCount: 2
Fore
SplineSet
1320 -2 m 1,0,-1
 1235 -106 l 1,1,-1
 1046 50 l 1,2,3
 890 -41 890 -41 702 -41 c 0,4,5
 418 -41 418 -41 243 148.5 c 128,-1,6
 68 338 68 338 68 646 c 128,-1,7
 68 954 68 954 243.5 1144 c 128,-1,8
 419 1334 419 1334 702 1334 c 128,-1,9
 985 1334 985 1334 1160.5 1144.5 c 128,-1,10
 1336 955 1336 955 1336 650 c 0,11,12
 1336 342 1336 342 1150 137 c 1,13,-1
 1320 -2 l 1,0,-1
866 370 m 1,14,-1
 1026 238 l 1,15,16
 1169 400 1169 400 1169 648 c 0,17,18
 1169 890 1169 890 1040.5 1038 c 128,-1,19
 912 1186 912 1186 702 1186 c 128,-1,20
 492 1186 492 1186 363.5 1037.5 c 128,-1,21
 235 889 235 889 235 646 c 128,-1,22
 235 403 235 403 363 254.5 c 128,-1,23
 491 106 491 106 701 106 c 0,24,25
 809 106 809 106 917 156 c 1,26,-1
 782 269 l 1,27,-1
 866 370 l 1,14,-1
EndSplineSet
Validated: 1
EndChar

StartChar: R
Encoding: 82 82 55
Width: 1299
GlyphClass: 2
Flags: W
LayerCount: 2
Fore
SplineSet
965 648 m 1,0,1
 1031 620 1031 620 1071.5 577.5 c 128,-1,2
 1112 535 1112 535 1126 488.5 c 128,-1,3
 1140 442 1140 442 1143 391 c 128,-1,4
 1146 340 1146 340 1144.5 289.5 c 128,-1,5
 1143 239 1143 239 1145 193.5 c 128,-1,6
 1147 148 1147 148 1165.5 107.5 c 128,-1,7
 1184 67 1184 67 1222 41 c 1,8,-1
 1222 0 l 1,9,-1
 1019 0 l 1,10,11
 983 85 983 85 983 214 c 2,12,-1
 983 331 l 2,13,14
 983 453 983 453 931 509 c 128,-1,15
 879 565 879 565 767 565 c 2,16,-1
 335 565 l 1,17,-1
 335 0 l 1,18,-1
 168 0 l 1,19,-1
 168 1313 l 1,20,-1
 773 1313 l 2,21,22
 966 1313 966 1313 1068.5 1222 c 128,-1,23
 1171 1131 1171 1131 1171 961 c 0,24,25
 1171 848 1171 848 1123 775 c 128,-1,26
 1075 702 1075 702 965 648 c 1,0,1
997 938 m 0,27,28
 997 1006 997 1006 977.5 1052 c 128,-1,29
 958 1098 958 1098 920.5 1121.5 c 128,-1,30
 883 1145 883 1145 840 1154.5 c 128,-1,31
 797 1164 797 1164 739 1164 c 2,32,-1
 335 1164 l 1,33,-1
 335 713 l 1,34,-1
 739 713 l 2,35,36
 873 713 873 713 935 767 c 128,-1,37
 997 821 997 821 997 938 c 0,27,28
EndSplineSet
Validated: 33
EndChar

StartChar: S
Encoding: 83 83 56
Width: 1200
GlyphClass: 2
Flags: W
LayerCount: 2
Fore
SplineSet
616 106 m 0,0,1
 697 106 697 106 759 122 c 128,-1,2
 821 138 821 138 856.5 162 c 128,-1,3
 892 186 892 186 914 219.5 c 128,-1,4
 936 253 936 253 943 282 c 128,-1,5
 950 311 950 311 950 343 c 0,6,7
 950 421 950 421 891.5 473 c 128,-1,8
 833 525 833 525 709 557 c 2,9,-1
 384 643 l 1,10,11
 126 710 126 710 126 948 c 0,12,13
 126 1127 126 1127 251.5 1230.5 c 128,-1,14
 377 1334 377 1334 593 1334 c 0,15,16
 819 1334 819 1334 945 1227 c 128,-1,17
 1071 1120 1071 1120 1073 926 c 1,18,-1
 914 926 l 1,19,20
 912 1055 912 1055 828 1124 c 128,-1,21
 744 1193 744 1193 587 1193 c 0,22,23
 454 1193 454 1193 373.5 1132.5 c 128,-1,24
 293 1072 293 1072 293 972 c 0,25,26
 293 896 293 896 341 853 c 128,-1,27
 389 810 389 810 509 778 c 2,28,-1
 839 689 l 2,29,30
 973 653 973 653 1045.5 567.5 c 128,-1,31
 1118 482 1118 482 1118 360 c 0,32,33
 1118 307 1118 307 1104.5 256 c 128,-1,34
 1091 205 1091 205 1055 150 c 128,-1,35
 1019 95 1019 95 963.5 53.5 c 128,-1,36
 908 12 908 12 815.5 -14.5 c 128,-1,37
 723 -41 723 -41 605 -41 c 0,38,39
 531 -41 531 -41 463.5 -29.5 c 128,-1,40
 396 -18 396 -18 326 14 c 128,-1,41
 256 46 256 46 205 95.5 c 128,-1,42
 154 145 154 145 120.5 228 c 128,-1,43
 87 311 87 311 86 418 c 1,44,-1
 245 418 l 1,45,-1
 245 408 l 2,46,47
 245 353 245 353 262 304 c 128,-1,48
 279 255 279 255 318 208.5 c 128,-1,49
 357 162 357 162 433.5 134 c 128,-1,50
 510 106 510 106 616 106 c 0,0,1
EndSplineSet
Validated: 1
EndChar

StartChar: T
Encoding: 84 84 57
Width: 1099
GlyphClass: 2
Flags: W
LayerCount: 2
Fore
SplineSet
637 1164 m 1,0,-1
 637 0 l 1,1,-1
 470 0 l 1,2,-1
 470 1164 l 1,3,-1
 38 1164 l 1,4,-1
 38 1313 l 1,5,-1
 1068 1313 l 1,6,-1
 1068 1164 l 1,7,-1
 637 1164 l 1,0,-1
EndSplineSet
Validated: 1
EndChar

StartChar: U
Encoding: 85 85 58
Width: 1299
GlyphClass: 2
Flags: W
LayerCount: 2
Fore
SplineSet
994 1313 m 1,0,-1
 1162 1313 l 1,1,-1
 1162 391 l 2,2,3
 1162 193 1162 193 1024 76 c 128,-1,4
 886 -41 886 -41 655 -41 c 0,5,6
 422 -41 422 -41 288 75 c 128,-1,7
 154 191 154 191 154 391 c 2,8,-1
 154 1313 l 1,9,-1
 320 1313 l 1,10,-1
 320 391 l 2,11,12
 320 248 320 248 411.5 177 c 128,-1,13
 503 106 503 106 655 106 c 0,14,15
 813 106 813 106 903.5 182 c 128,-1,16
 994 258 994 258 994 391 c 2,17,-1
 994 1313 l 1,0,-1
EndSplineSet
Validated: 1
EndChar

StartChar: V
Encoding: 86 86 59
Width: 1200
GlyphClass: 2
Flags: W
LayerCount: 2
Fore
SplineSet
706 0 m 1,0,-1
 526 0 l 1,1,-1
 54 1313 l 1,2,-1
 234 1313 l 1,3,-1
 619 202 l 1,4,-1
 983 1313 l 1,5,-1
 1162 1313 l 1,6,-1
 706 0 l 1,0,-1
EndSplineSet
Validated: 1
EndChar

StartChar: W
Encoding: 87 87 60
Width: 1699
GlyphClass: 2
Flags: W
LayerCount: 2
Fore
SplineSet
1339 0 m 1,0,-1
 1156 0 l 1,1,-1
 853 1078 l 1,2,-1
 559 0 l 1,3,-1
 377 0 l 1,4,-1
 40 1313 l 1,5,-1
 227 1313 l 1,6,-1
 473 247 l 1,7,-1
 766 1313 l 1,8,-1
 946 1313 l 1,9,-1
 1243 247 l 1,10,-1
 1486 1313 l 1,11,-1
 1673 1313 l 1,12,-1
 1339 0 l 1,0,-1
EndSplineSet
Validated: 1
EndChar

StartChar: X
Encoding: 88 88 61
Width: 1200
GlyphClass: 2
Flags: W
LayerCount: 2
Fore
SplineSet
703 673 m 1,0,-1
 1169 0 l 1,1,-1
 961 0 l 1,2,-1
 602 547 l 1,3,-1
 242 0 l 1,4,-1
 40 0 l 1,5,-1
 504 673 l 1,6,-1
 68 1313 l 1,7,-1
 271 1313 l 1,8,-1
 608 797 l 1,9,-1
 947 1313 l 1,10,-1
 1147 1313 l 1,11,-1
 703 673 l 1,0,-1
EndSplineSet
Validated: 1
EndChar

StartChar: Y
Encoding: 89 89 62
Width: 1200
GlyphClass: 2
Flags: W
LayerCount: 2
Fore
SplineSet
696 515 m 1,0,-1
 696 0 l 1,1,-1
 529 0 l 1,2,-1
 529 515 l 1,3,-1
 24 1313 l 1,4,-1
 230 1313 l 1,5,-1
 616 673 l 1,6,-1
 990 1313 l 1,7,-1
 1190 1313 l 1,8,-1
 696 515 l 1,0,-1
EndSplineSet
Validated: 1
EndChar

StartChar: Z
Encoding: 90 90 63
Width: 1099
GlyphClass: 2
Flags: W
LayerCount: 2
Fore
SplineSet
1046 1313 m 1,0,-1
 1046 1162 l 1,1,-1
 262 148 l 1,2,-1
 1049 148 l 1,3,-1
 1049 0 l 1,4,-1
 50 0 l 1,5,-1
 50 148 l 1,6,-1
 839 1164 l 1,7,-1
 101 1164 l 1,8,-1
 101 1313 l 1,9,-1
 1046 1313 l 1,0,-1
EndSplineSet
Validated: 1
EndChar

StartChar: bracketleft
Encoding: 91 91 64
Width: 500
GlyphClass: 2
Flags: W
LayerCount: 2
Fore
SplineSet
450 1313 m 1,0,-1
 450 1183 l 1,1,-1
 264 1183 l 1,2,-1
 264 -252 l 1,3,-1
 450 -252 l 1,4,-1
 450 -382 l 1,5,-1
 115 -382 l 1,6,-1
 115 1313 l 1,7,-1
 450 1313 l 1,0,-1
EndSplineSet
Validated: 1
EndChar

StartChar: backslash
Encoding: 92 92 65
Width: 500
GlyphClass: 2
Flags: W
LayerCount: 2
Fore
SplineSet
84 1313 m 1,0,-1
 511 -36 l 1,1,-1
 413 -36 l 1,2,-1
 -14 1313 l 1,3,-1
 84 1313 l 1,0,-1
EndSplineSet
Validated: 1
EndChar

StartChar: bracketright
Encoding: 93 93 66
Width: 500
GlyphClass: 2
Flags: W
LayerCount: 2
Fore
SplineSet
41 -382 m 1,0,-1
 41 -252 l 1,1,-1
 227 -252 l 1,2,-1
 227 1183 l 1,3,-1
 41 1183 l 1,4,-1
 41 1313 l 1,5,-1
 377 1313 l 1,6,-1
 377 -382 l 1,7,-1
 41 -382 l 1,0,-1
EndSplineSet
Validated: 1
EndChar

StartChar: asciicircum
Encoding: 94 94 67
Width: 843
GlyphClass: 2
Flags: W
LayerCount: 2
Fore
SplineSet
355 1277 m 1,0,-1
 486 1277 l 1,1,-1
 766 593 l 1,2,-1
 641 593 l 1,3,-1
 421 1133 l 1,4,-1
 204 593 l 1,5,-1
 79 593 l 1,6,-1
 355 1277 l 1,0,-1
EndSplineSet
Validated: 1
EndChar

StartChar: underscore
Encoding: 95 95 68
Width: 1000
GlyphClass: 2
Flags: W
LayerCount: 2
Fore
SplineSet
1040 -227 m 1,0,-1
 1040 -317 l 1,1,-1
 -40 -317 l 1,2,-1
 -40 -227 l 1,3,-1
 1040 -227 l 1,0,-1
EndSplineSet
Validated: 1
EndChar

StartChar: grave
Encoding: 96 96 69
Width: 598
GlyphClass: 2
Flags: W
LayerCount: 2
Fore
SplineSet
242 1332 m 1,0,-1
 415 1066 l 1,1,-1
 307 1066 l 1,2,-1
 40 1332 l 1,3,-1
 242 1332 l 1,0,-1
EndSplineSet
Validated: 1
EndChar

StartChar: a
Encoding: 97 97 70
Width: 1000
GlyphClass: 2
Flags: W
LayerCount: 2
Fore
SplineSet
118 665 m 1,0,1
 120 738 120 738 144.5 794 c 128,-1,2
 169 850 169 850 205 882.5 c 128,-1,3
 241 915 241 915 292 935.5 c 128,-1,4
 343 956 343 956 391 963 c 128,-1,5
 439 970 439 970 494 970 c 0,6,7
 669 970 669 970 759.5 904.5 c 128,-1,8
 850 839 850 839 850 713 c 2,9,-1
 850 158 l 2,10,11
 850 123 850 123 871 103.5 c 128,-1,12
 892 84 892 84 931 84 c 0,13,14
 947 84 947 84 962 89 c 1,15,-1
 962 -25 l 1,16,17
 903 -41 903 -41 860 -41 c 0,18,19
 787 -41 787 -41 750.5 -7.5 c 128,-1,20
 714 26 714 26 706 97 c 1,21,22
 627 24 627 24 550.5 -8.5 c 128,-1,23
 474 -41 474 -41 385 -41 c 0,24,25
 242 -41 242 -41 159 34 c 128,-1,26
 76 109 76 109 76 238 c 0,27,28
 76 396 76 396 186 462 c 0,29,30
 262 508 262 508 445 534 c 0,31,32
 471 537 471 537 544 547 c 0,33,34
 633 558 633 558 667 581 c 128,-1,35
 701 604 701 604 701 652 c 2,36,-1
 701 691 l 2,37,38
 701 758 701 758 646 795 c 128,-1,39
 591 832 591 832 490 832 c 0,40,41
 384 832 384 832 331 791.5 c 128,-1,42
 278 751 278 751 269 665 c 1,43,-1
 118 665 l 1,0,1
418 90 m 0,44,45
 542 90 542 90 621.5 156 c 128,-1,46
 701 222 701 222 701 298 c 2,47,-1
 701 466 l 1,48,49
 662 448 662 448 594.5 436.5 c 128,-1,50
 527 425 527 425 468.5 416 c 128,-1,51
 410 407 410 407 354.5 390.5 c 128,-1,52
 299 374 299 374 266 337 c 128,-1,53
 233 300 233 300 233 241 c 0,54,55
 233 170 233 170 281.5 130 c 128,-1,56
 330 90 330 90 418 90 c 0,44,45
EndSplineSet
Validated: 1
EndChar

StartChar: b
Encoding: 98 98 71
Width: 1000
GlyphClass: 2
Flags: W
LayerCount: 2
Fore
SplineSet
97 1313 m 1,0,-1
 247 1313 l 1,1,-1
 247 816 l 1,2,3
 299 895 299 895 369.5 932.5 c 128,-1,4
 440 970 440 970 538 970 c 0,5,6
 725 970 725 970 833 837 c 128,-1,7
 941 704 941 704 941 475 c 0,8,9
 941 240 941 240 829 99.5 c 128,-1,10
 717 -41 717 -41 530 -41 c 0,11,12
 339 -41 339 -41 233 120 c 1,13,-1
 233 0 l 1,14,-1
 97 0 l 1,15,-1
 97 1313 l 1,0,-1
509 830 m 0,16,17
 390 830 390 830 318.5 730.5 c 128,-1,18
 247 631 247 631 247 464 c 128,-1,19
 247 297 247 297 318.5 197.5 c 128,-1,20
 390 98 390 98 509 98 c 0,21,22
 632 98 632 98 708.5 198 c 128,-1,23
 785 298 785 298 785 458 c 0,24,25
 785 628 785 628 710 729 c 128,-1,26
 635 830 635 830 509 830 c 0,16,17
EndSplineSet
Validated: 1
EndChar

StartChar: c
Encoding: 99 99 72
Width: 900
GlyphClass: 2
Flags: W
LayerCount: 2
Fore
SplineSet
847 626 m 1,0,-1
 696 626 l 1,1,2
 683 725 683 725 625.5 778.5 c 128,-1,3
 568 832 568 832 473 832 c 0,4,5
 351 832 351 832 281.5 732 c 128,-1,6
 212 632 212 632 212 456 c 0,7,8
 212 289 212 289 283 193 c 128,-1,9
 354 97 354 97 478 97 c 0,10,11
 669 97 669 97 708 324 c 1,12,-1
 859 324 l 1,13,14
 845 151 845 151 743.5 55 c 128,-1,15
 642 -41 642 -41 473 -41 c 0,16,17
 281 -41 281 -41 168 93.5 c 128,-1,18
 55 228 55 228 55 456 c 0,19,20
 55 690 55 690 169.5 830 c 128,-1,21
 284 970 284 970 475 970 c 0,22,23
 639 970 639 970 736.5 881.5 c 128,-1,24
 834 793 834 793 847 626 c 1,0,-1
EndSplineSet
Validated: 1
EndChar

StartChar: d
Encoding: 100 100 73
Width: 1000
GlyphClass: 2
Flags: W
LayerCount: 2
Fore
SplineSet
890 1313 m 1,0,-1
 890 0 l 1,1,-1
 758 0 l 1,2,-1
 758 125 l 1,3,4
 698 37 698 37 626.5 -2 c 128,-1,5
 555 -41 555 -41 457 -41 c 0,6,7
 267 -41 267 -41 157 97 c 128,-1,8
 47 235 47 235 47 473 c 0,9,10
 47 699 47 699 157 834.5 c 128,-1,11
 267 970 267 970 451 970 c 0,12,13
 645 970 645 970 742 824 c 1,14,-1
 742 1313 l 1,15,-1
 890 1313 l 1,0,-1
478 830 m 0,16,17
 354 830 354 830 279 729.5 c 128,-1,18
 204 629 204 629 204 464 c 128,-1,19
 204 299 204 299 279.5 198.5 c 128,-1,20
 355 98 355 98 479 98 c 0,21,22
 598 98 598 98 670 197.5 c 128,-1,23
 742 297 742 297 742 461 c 0,24,25
 742 630 742 630 670 730 c 128,-1,26
 598 830 598 830 478 830 c 0,16,17
EndSplineSet
Validated: 1
EndChar

StartChar: e
Encoding: 101 101 74
Width: 1000
GlyphClass: 2
Flags: W
LayerCount: 2
Fore
SplineSet
924 421 m 1,0,-1
 228 421 l 1,1,2
 230 350 230 350 240.5 305 c 128,-1,3
 251 260 251 260 278 220 c 1,4,5
 356 97 356 97 506 97 c 0,6,7
 688 97 688 97 752 286 c 1,8,-1
 904 286 l 1,9,10
 875 133 875 133 768.5 46 c 128,-1,11
 662 -41 662 -41 500 -41 c 0,12,13
 301 -41 301 -41 186.5 92.5 c 128,-1,14
 72 226 72 226 72 458 c 0,15,16
 72 691 72 691 189.5 830.5 c 128,-1,17
 307 970 307 970 504 970 c 0,18,19
 636 970 636 970 737.5 904 c 128,-1,20
 839 838 839 838 886 722 c 1,21,22
 924 620 924 620 924 421 c 1,0,-1
233 544 m 1,23,-1
 761 544 l 1,24,25
 763 547 763 547 763 554 c 0,26,27
 763 671 763 671 688 751.5 c 128,-1,28
 613 832 613 832 502 832 c 0,29,30
 388 832 388 832 315 753.5 c 128,-1,31
 242 675 242 675 233 544 c 1,23,-1
EndSplineSet
Validated: 1
EndChar

StartChar: f
Encoding: 102 102 75
Width: 500
GlyphClass: 2
Flags: W
LayerCount: 2
Fore
SplineSet
464 943 m 1,0,-1
 464 821 l 1,1,-1
 307 821 l 1,2,-1
 307 0 l 1,3,-1
 158 0 l 1,4,-1
 158 821 l 1,5,-1
 32 821 l 1,6,-1
 32 943 l 1,7,-1
 158 943 l 1,8,-1
 158 1104 l 2,9,10
 158 1204 158 1204 216.5 1261 c 128,-1,11
 275 1318 275 1318 379 1318 c 0,12,13
 415 1318 415 1318 464 1308 c 1,14,-1
 464 1184 l 1,15,16
 430 1186 430 1186 413 1186 c 0,17,18
 307 1186 307 1186 307 1091 c 2,19,-1
 307 943 l 1,20,-1
 464 943 l 1,0,-1
EndSplineSet
Validated: 1
EndChar

StartChar: g
Encoding: 103 103 76
Width: 1000
GlyphClass: 2
Flags: W
LayerCount: 2
Fore
SplineSet
442 -41 m 0,0,1
 276 -41 276 -41 164.5 95 c 128,-1,2
 53 231 53 231 53 456 c 0,3,4
 53 685 53 685 163.5 827.5 c 128,-1,5
 274 970 274 970 454 970 c 0,6,7
 631 970 631 970 742 806 c 1,8,-1
 742 943 l 1,9,-1
 881 943 l 1,10,-1
 881 155 l 2,11,12
 881 49 881 49 871.5 -28.5 c 128,-1,13
 862 -106 862 -106 835 -178 c 128,-1,14
 808 -250 808 -250 762 -294.5 c 128,-1,15
 716 -339 716 -339 639.5 -365.5 c 128,-1,16
 563 -392 563 -392 458 -392 c 0,17,18
 293 -392 293 -392 193.5 -316.5 c 128,-1,19
 94 -241 94 -241 83 -108 c 1,20,-1
 235 -108 l 1,21,22
 243 -152 243 -152 265.5 -183.5 c 128,-1,23
 288 -215 288 -215 313 -230.5 c 128,-1,24
 338 -246 338 -246 372 -254.5 c 128,-1,25
 406 -263 406 -263 424.5 -264.5 c 128,-1,26
 443 -266 443 -266 464 -266 c 0,27,28
 542 -266 542 -266 594.5 -243.5 c 128,-1,29
 647 -221 647 -221 675.5 -174 c 128,-1,30
 704 -127 704 -127 715.5 -67 c 128,-1,31
 727 -7 727 -7 727 79 c 2,32,-1
 727 127 l 1,33,34
 664 39 664 39 596.5 -1 c 128,-1,35
 529 -41 529 -41 442 -41 c 0,0,1
470 832 m 0,36,37
 350 832 350 832 279.5 733 c 128,-1,38
 209 634 209 634 209 464 c 0,39,40
 209 292 209 292 278.5 194.5 c 128,-1,41
 348 97 348 97 472 97 c 0,42,43
 591 97 591 97 659 193.5 c 128,-1,44
 727 290 727 290 727 458 c 0,45,46
 727 635 727 635 659 733.5 c 128,-1,47
 591 832 591 832 470 832 c 0,36,37
EndSplineSet
Validated: 1
EndChar

StartChar: h
Encoding: 104 104 77
Width: 1000
GlyphClass: 2
Flags: W
LayerCount: 2
Fore
SplineSet
725 653 m 2,0,1
 725 706 725 706 706 744.5 c 128,-1,2
 687 783 687 783 656 802.5 c 128,-1,3
 625 822 625 822 594 830.5 c 128,-1,4
 563 839 563 839 530 839 c 0,5,6
 415 839 415 839 345.5 752 c 128,-1,7
 276 665 276 665 276 521 c 2,8,-1
 276 0 l 1,9,-1
 126 0 l 1,10,-1
 126 1313 l 1,11,-1
 276 1313 l 1,12,-1
 276 814 l 1,13,14
 342 900 342 900 409.5 935 c 128,-1,15
 477 970 477 970 578 970 c 0,16,17
 715 970 715 970 795 901 c 128,-1,18
 875 832 875 832 875 713 c 2,19,-1
 875 0 l 1,20,-1
 725 0 l 1,21,-1
 725 653 l 2,0,1
EndSplineSet
Validated: 1
EndChar

StartChar: i
Encoding: 105 105 78
Width: 399
GlyphClass: 2
Flags: W
LayerCount: 2
Fore
SplineSet
270 1313 m 1,0,-1
 270 1123 l 1,1,-1
 119 1123 l 1,2,-1
 119 1313 l 1,3,-1
 270 1313 l 1,0,-1
271 943 m 1,4,-1
 271 0 l 1,5,-1
 121 0 l 1,6,-1
 121 943 l 1,7,-1
 271 943 l 1,4,-1
EndSplineSet
Validated: 1
EndChar

StartChar: j
Encoding: 106 106 79
Width: 399
GlyphClass: 2
Flags: W
LayerCount: 2
Fore
SplineSet
126 943 m 1,0,-1
 276 943 l 1,1,-1
 276 -197 l 2,2,3
 276 -292 276 -292 210.5 -342 c 128,-1,4
 145 -392 145 -392 18 -392 c 0,5,6
 -10 -392 -10 -392 -32 -386 c 1,7,-1
 -32 -259 l 1,8,9
 -2 -262 -2 -262 4 -262 c 0,10,11
 73 -262 73 -262 99.5 -234.5 c 128,-1,12
 126 -207 126 -207 126 -137 c 2,13,-1
 126 943 l 1,0,-1
276 1313 m 1,14,-1
 276 1123 l 1,15,-1
 126 1123 l 1,16,-1
 126 1313 l 1,17,-1
 276 1313 l 1,14,-1
EndSplineSet
Validated: 1
EndChar

StartChar: k
Encoding: 107 107 80
Width: 900
GlyphClass: 2
Flags: W
LayerCount: 2
Fore
SplineSet
254 1313 m 1,0,-1
 254 544 l 1,1,-1
 653 943 l 1,2,-1
 846 943 l 1,3,-1
 518 617 l 1,4,-1
 904 0 l 1,5,-1
 718 0 l 1,6,-1
 400 511 l 1,7,-1
 254 367 l 1,8,-1
 254 0 l 1,9,-1
 104 0 l 1,10,-1
 104 1313 l 1,11,-1
 254 1313 l 1,0,-1
EndSplineSet
Validated: 1
EndChar

StartChar: l
Encoding: 108 108 81
Width: 399
GlyphClass: 2
Flags: W
LayerCount: 2
Fore
SplineSet
274 1313 m 1,0,-1
 274 0 l 1,1,-1
 122 0 l 1,2,-1
 122 1313 l 1,3,-1
 274 1313 l 1,0,-1
EndSplineSet
Validated: 1
EndChar

StartChar: m
Encoding: 109 109 82
Width: 1498
GlyphClass: 2
Flags: W
LayerCount: 2
Fore
SplineSet
126 943 m 1,0,-1
 264 943 l 1,1,-1
 264 810 l 1,2,3
 326 896 326 896 393 933 c 128,-1,4
 460 970 460 970 554 970 c 0,5,6
 646 970 646 970 706 935.5 c 128,-1,7
 766 901 766 901 809 826 c 1,8,9
 874 906 874 906 939 938 c 128,-1,10
 1004 970 1004 970 1098 970 c 0,11,12
 1230 970 1230 970 1301 902 c 128,-1,13
 1372 834 1372 834 1372 708 c 2,14,-1
 1372 0 l 1,15,-1
 1220 0 l 1,16,-1
 1220 650 l 2,17,18
 1220 739 1220 739 1174 789 c 128,-1,19
 1128 839 1128 839 1046 839 c 0,20,21
 954 839 954 839 889 767 c 128,-1,22
 824 695 824 695 824 593 c 2,23,-1
 824 0 l 1,24,-1
 673 0 l 1,25,-1
 673 650 l 2,26,27
 673 740 673 740 627.5 789.5 c 128,-1,28
 582 839 582 839 499 839 c 0,29,30
 407 839 407 839 342 767 c 128,-1,31
 277 695 277 695 277 593 c 2,32,-1
 277 0 l 1,33,-1
 126 0 l 1,34,-1
 126 943 l 1,0,-1
EndSplineSet
Validated: 1
EndChar

StartChar: n
Encoding: 110 110 83
Width: 1000
GlyphClass: 2
Flags: W
LayerCount: 2
Fore
SplineSet
126 943 m 1,0,-1
 264 943 l 1,1,-1
 264 785 l 1,2,3
 327 884 327 884 399.5 927 c 128,-1,4
 472 970 472 970 578 970 c 0,5,6
 714 970 714 970 795 900 c 128,-1,7
 876 830 876 830 876 713 c 2,8,-1
 876 0 l 1,9,-1
 727 0 l 1,10,-1
 727 653 l 2,11,12
 727 739 727 739 674.5 789 c 128,-1,13
 622 839 622 839 533 839 c 0,14,15
 417 839 417 839 347 752 c 128,-1,16
 277 665 277 665 277 521 c 2,17,-1
 277 0 l 1,18,-1
 126 0 l 1,19,-1
 126 943 l 1,0,-1
EndSplineSet
Validated: 1
EndChar

StartChar: o
Encoding: 111 111 84
Width: 1000
GlyphClass: 2
Flags: W
LayerCount: 2
Fore
SplineSet
490 970 m 0,0,1
 693 970 693 970 805.5 835.5 c 128,-1,2
 918 701 918 701 918 457 c 0,3,4
 918 225 918 225 804 92 c 128,-1,5
 690 -41 690 -41 492 -41 c 0,6,7
 291 -41 291 -41 178 93 c 128,-1,8
 65 227 65 227 65 464 c 128,-1,9
 65 701 65 701 178.5 835.5 c 128,-1,10
 292 970 292 970 490 970 c 0,0,1
492 832 m 128,-1,12
 366 832 366 832 293.5 733 c 128,-1,13
 221 634 221 634 221 464 c 0,14,15
 221 293 221 293 293.5 195 c 128,-1,16
 366 97 366 97 492 97 c 0,17,18
 616 97 616 97 688.5 194.5 c 128,-1,19
 761 292 761 292 761 458 c 0,20,21
 761 635 761 635 689.5 733.5 c 128,-1,11
 618 832 618 832 492 832 c 128,-1,12
EndSplineSet
Validated: 1
EndChar

StartChar: p
Encoding: 112 112 85
Width: 1000
GlyphClass: 2
Flags: W
LayerCount: 2
Fore
SplineSet
97 -392 m 1,0,-1
 97 943 l 1,1,-1
 235 943 l 1,2,-1
 235 802 l 1,3,4
 343 970 343 970 536 970 c 0,5,6
 724 970 724 970 832.5 832 c 128,-1,7
 941 694 941 694 941 456 c 0,8,9
 941 230 941 230 830.5 94.5 c 128,-1,10
 720 -41 720 -41 538 -41 c 0,11,12
 446 -41 446 -41 377 -7.5 c 128,-1,13
 308 26 308 26 248 98 c 1,14,-1
 248 -392 l 1,15,-1
 97 -392 l 1,0,-1
511 830 m 0,16,17
 392 830 392 830 320 730 c 128,-1,18
 248 630 248 630 248 464 c 128,-1,19
 248 298 248 298 320 198 c 128,-1,20
 392 98 392 98 511 98 c 0,21,22
 633 98 633 98 709 198 c 128,-1,23
 785 298 785 298 785 458 c 0,24,25
 785 627 785 627 710.5 728.5 c 128,-1,26
 636 830 636 830 511 830 c 0,16,17
EndSplineSet
Validated: 1
EndChar

StartChar: q
Encoding: 113 113 86
Width: 1000
GlyphClass: 2
Flags: W
LayerCount: 2
Fore
SplineSet
890 -392 m 1,0,-1
 742 -392 l 1,1,-1
 742 108 l 1,2,3
 690 31 690 31 619 -5 c 128,-1,4
 548 -41 548 -41 450 -41 c 0,5,6
 264 -41 264 -41 155.5 92 c 128,-1,7
 47 225 47 225 47 454 c 0,8,9
 47 689 47 689 159 829.5 c 128,-1,10
 271 970 271 970 457 970 c 0,11,12
 551 970 551 970 628.5 931 c 128,-1,13
 706 892 706 892 758 817 c 1,14,-1
 758 943 l 1,15,-1
 890 943 l 1,16,-1
 890 -392 l 1,0,-1
479 830 m 0,17,18
 355 830 355 830 279.5 729 c 128,-1,19
 204 628 204 628 204 464 c 0,20,21
 204 299 204 299 279.5 198.5 c 128,-1,22
 355 98 355 98 479 98 c 0,23,24
 597 98 597 98 669.5 197 c 128,-1,25
 742 296 742 296 742 458 c 0,26,27
 742 628 742 628 670.5 729 c 128,-1,28
 599 830 599 830 479 830 c 0,17,18
EndSplineSet
Validated: 1
EndChar

StartChar: r
Encoding: 114 114 87
Width: 598
GlyphClass: 2
Flags: W
LayerCount: 2
Fore
SplineSet
578 811 m 1,0,1
 504 810 504 810 453 796.5 c 128,-1,2
 402 783 402 783 359.5 749 c 128,-1,3
 317 715 317 715 296.5 650.5 c 128,-1,4
 276 586 276 586 276 490 c 2,5,-1
 276 0 l 1,6,-1
 125 0 l 1,7,-1
 125 943 l 1,8,-1
 263 943 l 1,9,-1
 263 773 l 1,10,11
 328 878 328 878 387.5 924 c 128,-1,12
 447 970 447 970 521 970 c 0,13,14
 535 970 535 970 578 965 c 1,15,-1
 578 811 l 1,0,1
EndSplineSet
Validated: 1
EndChar

StartChar: s
Encoding: 115 115 88
Width: 900
GlyphClass: 2
Flags: W
LayerCount: 2
Fore
SplineSet
220 281 m 1,0,1
 224 250 224 250 231 226.5 c 128,-1,2
 238 203 238 203 254 177 c 128,-1,3
 270 151 270 151 293.5 135 c 128,-1,4
 317 119 317 119 357 108 c 128,-1,5
 397 97 397 97 450 97 c 0,6,7
 548 97 548 97 609 137.5 c 128,-1,8
 670 178 670 178 670 245 c 0,9,10
 670 296 670 296 636 326.5 c 128,-1,11
 602 357 602 357 523 377 c 1,12,-1
 384 410 l 2,13,14
 217 450 217 450 150.5 511 c 128,-1,15
 84 572 84 572 84 682 c 0,16,17
 84 813 84 813 183 891.5 c 128,-1,18
 282 970 282 970 446 970 c 128,-1,19
 610 970 610 970 698.5 895 c 128,-1,20
 787 820 787 820 788 680 c 1,21,-1
 630 680 l 1,22,23
 624 832 624 832 442 832 c 0,24,25
 350 832 350 832 295.5 793 c 128,-1,26
 241 754 241 754 241 689 c 0,27,28
 241 640 241 640 282 608 c 128,-1,29
 323 576 323 576 415 554 c 2,30,-1
 559 521 l 1,31,32
 700 486 700 486 763 424 c 128,-1,33
 826 362 826 362 826 257 c 0,34,35
 826 121 826 121 720.5 40 c 128,-1,36
 615 -41 615 -41 437 -41 c 0,37,38
 252 -41 252 -41 159 38 c 128,-1,39
 66 117 66 117 61 281 c 1,40,-1
 220 281 l 1,0,1
EndSplineSet
Validated: 1
EndChar

StartChar: t
Encoding: 116 116 89
Width: 500
GlyphClass: 2
Flags: W
LayerCount: 2
Fore
SplineSet
457 943 m 1,0,-1
 457 821 l 1,1,-1
 302 821 l 1,2,-1
 302 175 l 2,3,4
 302 125 302 125 319 107.5 c 128,-1,5
 336 90 336 90 385 90 c 128,-1,6
 434 90 434 90 457 97 c 1,7,-1
 457 -29 l 1,8,9
 390 -41 390 -41 335 -41 c 0,10,11
 247 -41 247 -41 200.5 -2.5 c 128,-1,12
 154 36 154 36 154 108 c 2,13,-1
 154 821 l 1,14,-1
 25 821 l 1,15,-1
 25 943 l 1,16,-1
 154 943 l 1,17,-1
 154 1202 l 1,18,-1
 302 1202 l 1,19,-1
 302 943 l 1,20,-1
 457 943 l 1,0,-1
EndSplineSet
Validated: 1
EndChar

StartChar: u
Encoding: 117 117 90
Width: 1000
GlyphClass: 2
Flags: W
LayerCount: 2
Fore
SplineSet
868 0 m 1,0,-1
 732 0 l 1,1,-1
 732 132 l 1,2,3
 666 38 666 38 594 -1.5 c 128,-1,4
 522 -41 522 -41 418 -41 c 0,5,6
 280 -41 280 -41 199 29 c 128,-1,7
 118 99 118 99 118 216 c 2,8,-1
 118 943 l 1,9,-1
 266 943 l 1,10,-1
 266 276 l 2,11,12
 266 191 266 191 319 140.5 c 128,-1,13
 372 90 372 90 461 90 c 0,14,15
 578 90 578 90 648 177 c 128,-1,16
 718 264 718 264 718 408 c 2,17,-1
 718 943 l 1,18,-1
 868 943 l 1,19,-1
 868 0 l 1,0,-1
EndSplineSet
Validated: 1
EndChar

StartChar: v
Encoding: 118 118 91
Width: 900
GlyphClass: 2
Flags: W
LayerCount: 2
Fore
SplineSet
514 0 m 1,0,-1
 349 0 l 1,1,-1
 18 943 l 1,2,-1
 187 943 l 1,3,-1
 439 178 l 1,4,-1
 706 943 l 1,5,-1
 875 943 l 1,6,-1
 514 0 l 1,0,-1
EndSplineSet
Validated: 1
EndChar

StartChar: w
Encoding: 119 119 92
Width: 1299
GlyphClass: 2
Flags: W
LayerCount: 2
Fore
SplineSet
997 0 m 1,0,-1
 826 0 l 1,1,-1
 636 739 l 1,2,-1
 454 0 l 1,3,-1
 284 0 l 1,4,-1
 11 943 l 1,5,-1
 176 943 l 1,6,-1
 370 209 l 1,7,-1
 550 943 l 1,8,-1
 732 943 l 1,9,-1
 918 209 l 1,10,-1
 1105 943 l 1,11,-1
 1274 943 l 1,12,-1
 997 0 l 1,0,-1
EndSplineSet
Validated: 1
EndChar

StartChar: x
Encoding: 120 120 93
Width: 900
GlyphClass: 2
Flags: W
LayerCount: 2
Fore
SplineSet
526 487 m 1,0,-1
 852 0 l 1,1,-1
 677 0 l 1,2,-1
 442 362 l 1,3,-1
 202 0 l 1,4,-1
 31 0 l 1,5,-1
 364 480 l 1,6,-1
 48 943 l 1,7,-1
 220 943 l 1,8,-1
 446 601 l 1,9,-1
 673 943 l 1,10,-1
 842 943 l 1,11,-1
 526 487 l 1,0,-1
EndSplineSet
Validated: 1
EndChar

StartChar: y
Encoding: 121 121 94
Width: 900
GlyphClass: 2
Flags: W
LayerCount: 2
Fore
SplineSet
698 943 m 1,0,-1
 860 943 l 1,1,-1
 442 -198 l 1,2,3
 367 -392 367 -392 198 -392 c 0,4,5
 141 -392 141 -392 97 -370 c 1,6,-1
 97 -234 l 1,7,8
 149 -245 149 -245 176 -245 c 0,9,10
 224 -245 224 -245 251 -224.5 c 128,-1,11
 278 -204 278 -204 298 -154 c 2,12,-1
 355 -4 l 1,13,-1
 36 943 l 1,14,-1
 197 943 l 1,15,-1
 437 209 l 1,16,-1
 698 943 l 1,0,-1
EndSplineSet
Validated: 1
EndChar

StartChar: z
Encoding: 122 122 95
Width: 900
GlyphClass: 2
Flags: W
LayerCount: 2
Fore
SplineSet
797 943 m 1,0,-1
 797 810 l 1,1,-1
 238 132 l 1,2,-1
 823 132 l 1,3,-1
 823 0 l 1,4,-1
 55 0 l 1,5,-1
 55 134 l 1,6,-1
 619 811 l 1,7,-1
 94 811 l 1,8,-1
 94 943 l 1,9,-1
 797 943 l 1,0,-1
EndSplineSet
Validated: 1
EndChar

StartChar: braceleft
Encoding: 123 123 96
Width: 601
GlyphClass: 2
Flags: W
LayerCount: 2
Fore
SplineSet
497 1313 m 1,0,-1
 497 1195 l 1,1,-1
 470 1195 l 2,2,3
 404 1195 404 1195 380 1170 c 128,-1,4
 356 1145 356 1145 356 1075 c 2,5,-1
 356 749 l 2,6,7
 356 624 356 624 323.5 561 c 128,-1,8
 291 498 291 498 209 466 c 1,9,10
 285 432 285 432 320.5 363 c 128,-1,11
 356 294 356 294 356 182 c 2,12,-1
 356 -144 l 2,13,14
 356 -214 356 -214 380 -239 c 128,-1,15
 404 -264 404 -264 470 -264 c 2,16,-1
 497 -264 l 1,17,-1
 497 -382 l 1,18,-1
 414 -382 l 2,19,20
 321 -382 321 -382 269.5 -320 c 128,-1,21
 218 -258 218 -258 218 -146 c 2,22,-1
 218 155 l 2,23,24
 218 279 218 279 187.5 333 c 128,-1,25
 157 387 157 387 77 403 c 1,26,-1
 77 528 l 1,27,28
 157 545 157 545 187.5 597.5 c 128,-1,29
 218 650 218 650 218 775 c 2,30,-1
 218 1076 l 2,31,32
 218 1188 218 1188 269.5 1250.5 c 128,-1,33
 321 1313 321 1313 414 1313 c 2,34,-1
 497 1313 l 1,0,-1
EndSplineSet
Validated: 1
EndChar

StartChar: bar
Encoding: 124 124 97
Width: 468
GlyphClass: 2
Flags: W
LayerCount: 2
Fore
SplineSet
180 1313 m 1,0,-1
 288 1313 l 1,1,-1
 288 -382 l 1,2,-1
 180 -382 l 1,3,-1
 180 1313 l 1,0,-1
EndSplineSet
Validated: 1
EndChar

StartChar: braceright
Encoding: 125 125 98
Width: 601
GlyphClass: 2
Flags: W
LayerCount: 2
Fore
SplineSet
53 -382 m 1,0,-1
 53 -264 l 1,1,-1
 82 -264 l 2,2,3
 148 -264 148 -264 172.5 -239 c 128,-1,4
 197 -214 197 -214 197 -144 c 2,5,-1
 197 182 l 2,6,7
 197 294 197 294 232.5 362.5 c 128,-1,8
 268 431 268 431 343 464 c 1,9,10
 268 499 268 499 232.5 568.5 c 128,-1,11
 197 638 197 638 197 749 c 2,12,-1
 197 1075 l 2,13,14
 197 1145 197 1145 172.5 1170 c 128,-1,15
 148 1195 148 1195 82 1195 c 2,16,-1
 53 1195 l 1,17,-1
 53 1313 l 1,18,-1
 137 1313 l 2,19,20
 231 1313 231 1313 283 1251 c 128,-1,21
 335 1189 335 1189 335 1076 c 2,22,-1
 335 775 l 2,23,24
 335 652 335 652 365 598.5 c 128,-1,25
 395 545 395 545 472 528 c 1,26,-1
 472 403 l 1,27,28
 395 387 395 387 365 332.5 c 128,-1,29
 335 278 335 278 335 155 c 2,30,-1
 335 -146 l 2,31,32
 335 -258 335 -258 283 -320 c 128,-1,33
 231 -382 231 -382 137 -382 c 2,34,-1
 53 -382 l 1,0,-1
EndSplineSet
Validated: 1
EndChar

StartChar: asciitilde
Encoding: 126 126 99
Width: 1051
GlyphClass: 2
Flags: W
LayerCount: 2
Fore
SplineSet
326 667 m 0,0,1
 242 667 242 667 230 528 c 1,2,-1
 134 528 l 1,3,4
 142 654 142 654 191.5 721 c 128,-1,5
 241 788 241 788 329 788 c 0,6,7
 379 788 379 788 427 760 c 2,8,-1
 637 636 l 2,9,10
 688 605 688 605 727 605 c 0,11,12
 775 605 775 605 796.5 635 c 128,-1,13
 818 665 818 665 818 731 c 2,14,-1
 818 739 l 1,15,-1
 914 739 l 1,16,-1
 914 710 l 2,17,18
 914 606 914 606 862.5 544 c 128,-1,19
 811 482 811 482 725 482 c 0,20,21
 655 482 655 482 580 529 c 1,22,-1
 403 643 l 2,23,24
 389 651 389 651 363.5 659 c 128,-1,25
 338 667 338 667 326 667 c 0,0,1
EndSplineSet
Validated: 1
EndChar

StartChar: cent
Encoding: 162 162 102
Width: 1000
GlyphClass: 2
Flags: W
LayerCount: 2
Fore
SplineSet
562 832 m 1,0,-1
 562 96 l 1,1,2
 734 114 734 114 767 324 c 1,3,-1
 918 324 l 1,4,5
 908 162 908 162 813 64 c 128,-1,6
 718 -34 718 -34 562 -41 c 1,7,-1
 562 -216 l 1,8,-1
 486 -216 l 1,9,-1
 486 -40 l 1,10,11
 303 -23 303 -23 198.5 109 c 128,-1,12
 94 241 94 241 94 456 c 0,13,14
 94 676 94 676 198.5 812.5 c 128,-1,15
 303 949 303 949 486 968 c 1,16,-1
 486 1130 l 1,17,-1
 562 1130 l 1,18,-1
 562 970 l 1,19,20
 720 959 720 959 809.5 870 c 128,-1,21
 899 781 899 781 907 626 c 1,22,-1
 756 626 l 1,23,24
 747 716 747 716 695.5 770.5 c 128,-1,25
 644 825 644 825 562 832 c 1,0,-1
486 98 m 1,26,-1
 486 830 l 1,27,28
 370 809 370 809 310 714 c 128,-1,29
 250 619 250 619 250 456 c 0,30,31
 250 303 250 303 311.5 209.5 c 128,-1,32
 373 116 373 116 486 98 c 1,26,-1
EndSplineSet
Validated: 1
EndChar

StartChar: sterling
Encoding: 163 163 103
Width: 1000
GlyphClass: 2
Flags: W
LayerCount: 2
Fore
SplineSet
264 941 m 0,0,1
 264 891 264 891 278 851.5 c 128,-1,2
 292 812 292 812 325.5 757 c 128,-1,3
 359 702 359 702 371 677 c 1,4,-1
 659 677 l 1,5,-1
 659 578 l 1,6,-1
 414 578 l 1,7,8
 442 497 442 497 442 450 c 0,9,10
 442 379 442 379 396 306 c 128,-1,11
 350 233 350 233 228 110 c 1,12,13
 336 180 336 180 449 180 c 0,14,15
 509 180 509 180 601.5 152.5 c 128,-1,16
 694 125 694 125 738 125 c 0,17,18
 810 125 810 125 888 178 c 1,19,-1
 962 60 l 1,20,21
 908 7 908 7 852.5 -17 c 128,-1,22
 797 -41 797 -41 727 -41 c 0,23,24
 649 -41 649 -41 529.5 0 c 128,-1,25
 410 41 410 41 346 41 c 0,26,27
 252 41 252 41 149 -25 c 1,28,-1
 62 94 l 1,29,30
 186 199 186 199 237 277 c 128,-1,31
 288 355 288 355 288 437 c 0,32,33
 288 504 288 504 245 578 c 1,34,-1
 47 578 l 1,35,-1
 47 677 l 1,36,-1
 192 677 l 1,37,38
 130 780 130 780 113.5 823.5 c 128,-1,39
 97 867 97 867 97 926 c 0,40,41
 97 1090 97 1090 220.5 1201.5 c 128,-1,42
 344 1313 344 1313 526 1313 c 0,43,44
 578 1313 578 1313 626 1304.5 c 128,-1,45
 674 1296 674 1296 729.5 1269 c 128,-1,46
 785 1242 785 1242 825 1198 c 128,-1,47
 865 1154 865 1154 893 1076 c 128,-1,48
 921 998 921 998 922 895 c 1,49,-1
 763 895 l 1,50,51
 756 1171 756 1171 518 1171 c 0,52,53
 403 1171 403 1171 333.5 1108 c 128,-1,54
 264 1045 264 1045 264 941 c 0,0,1
EndSplineSet
Validated: 1
EndChar

StartChar: currency
Encoding: 164 164 104
Width: 1000
GlyphClass: 2
Flags: W
LayerCount: 2
Fore
SplineSet
874 342 m 1,0,-1
 768 245 l 1,1,-1
 673 341 l 1,2,3
 598 286 598 286 493 286 c 0,4,5
 397 286 397 286 324 331 c 1,6,-1
 233 240 l 1,7,-1
 132 342 l 1,8,-1
 218 430 l 1,9,10
 161 508 161 508 161 614 c 0,11,12
 161 716 161 716 218 797 c 1,13,-1
 120 896 l 1,14,-1
 221 991 l 1,15,-1
 320 893 l 1,16,17
 399 940 399 940 494 940 c 0,18,19
 598 940 598 940 672 889 c 1,20,-1
 778 984 l 1,21,-1
 881 881 l 1,22,-1
 781 781 l 1,23,24
 828 710 828 710 828 614 c 0,25,26
 828 522 828 522 775 439 c 1,27,-1
 874 342 l 1,0,-1
493 802 m 0,28,29
 415 802 415 802 358.5 746 c 128,-1,30
 302 690 302 690 302 612 c 0,31,32
 302 535 302 535 358.5 480 c 128,-1,33
 415 425 415 425 494 425 c 0,34,35
 572 425 572 425 629 479.5 c 128,-1,36
 686 534 686 534 686 610 c 0,37,38
 686 690 686 690 630 746 c 128,-1,39
 574 802 574 802 493 802 c 0,28,29
EndSplineSet
Validated: 1
EndChar

StartChar: yen
Encoding: 165 165 105
Width: 1000
GlyphClass: 2
Flags: W
LayerCount: 2
Fore
SplineSet
890 637 m 1,0,-1
 890 545 l 1,1,-1
 586 545 l 1,2,-1
 586 407 l 1,3,-1
 890 407 l 1,4,-1
 890 314 l 1,5,-1
 586 314 l 1,6,-1
 586 0 l 1,7,-1
 427 0 l 1,8,-1
 427 314 l 1,9,-1
 118 314 l 1,10,-1
 118 407 l 1,11,-1
 427 407 l 1,12,-1
 427 545 l 1,13,-1
 118 545 l 1,14,-1
 118 637 l 1,15,-1
 389 637 l 1,16,-1
 19 1277 l 1,17,-1
 173 1277 l 1,18,-1
 506 696 l 1,19,-1
 828 1277 l 1,20,-1
 982 1277 l 1,21,-1
 619 637 l 1,22,-1
 890 637 l 1,0,-1
EndSplineSet
Validated: 1
EndChar

StartChar: brokenbar
Encoding: 166 166 106
Width: 468
GlyphClass: 2
Flags: W
LayerCount: 2
Fore
SplineSet
180 1313 m 1,0,-1
 288 1313 l 1,1,-1
 288 590 l 1,2,-1
 180 590 l 1,3,-1
 180 1313 l 1,0,-1
180 341 m 1,4,-1
 288 341 l 1,5,-1
 288 -382 l 1,6,-1
 180 -382 l 1,7,-1
 180 341 l 1,4,-1
EndSplineSet
Validated: 1
EndChar

StartChar: section
Encoding: 167 167 107
Width: 1000
GlyphClass: 2
Flags: W
LayerCount: 2
Fore
SplineSet
292 -25 m 1,0,1
 292 -91 292 -91 309.5 -137.5 c 128,-1,2
 327 -184 327 -184 356.5 -206 c 128,-1,3
 386 -228 386 -228 414.5 -236.5 c 128,-1,4
 443 -245 443 -245 475 -245 c 0,5,6
 552 -245 552 -245 600 -202 c 128,-1,7
 648 -159 648 -159 648 -90 c 0,8,9
 648 -42 648 -42 625 -5.5 c 128,-1,10
 602 31 602 31 550 68 c 1,11,-1
 242 278 l 1,12,13
 155 340 155 340 116 407 c 128,-1,14
 77 474 77 474 77 562 c 0,15,16
 77 651 77 651 121.5 715 c 128,-1,17
 166 779 166 779 266 832 c 1,18,19
 224 881 224 881 205.5 923 c 128,-1,20
 187 965 187 965 187 1015 c 0,21,22
 187 1140 187 1140 284 1226.5 c 128,-1,23
 381 1313 381 1313 521 1313 c 128,-1,24
 661 1313 661 1313 748 1224.5 c 128,-1,25
 835 1136 835 1136 835 994 c 2,26,-1
 835 943 l 1,27,-1
 684 943 l 1,28,-1
 684 990 l 2,29,30
 684 1074 684 1074 636.5 1124 c 128,-1,31
 589 1174 589 1174 509 1174 c 0,32,33
 440 1174 440 1174 394.5 1130.5 c 128,-1,34
 349 1087 349 1087 349 1020 c 0,35,36
 349 981 349 981 372 950.5 c 128,-1,37
 395 920 395 920 451 882 c 1,38,-1
 715 713 l 1,39,40
 824 642 824 642 867.5 576 c 128,-1,41
 911 510 911 510 911 413 c 0,42,43
 911 204 911 204 715 132 c 1,44,45
 769 71 769 71 789.5 24 c 128,-1,46
 810 -23 810 -23 810 -82 c 0,47,48
 810 -211 810 -211 714 -297.5 c 128,-1,49
 618 -384 618 -384 473 -384 c 0,50,51
 429 -384 429 -384 388 -376.5 c 128,-1,52
 347 -369 347 -369 300 -345 c 128,-1,53
 253 -321 253 -321 218.5 -283 c 128,-1,54
 184 -245 184 -245 161.5 -178.5 c 128,-1,55
 139 -112 139 -112 139 -25 c 1,56,-1
 292 -25 l 1,0,1
338 413 m 1,57,-1
 637 191 l 1,58,59
 700 224 700 224 734 271.5 c 128,-1,60
 768 319 768 319 768 374 c 0,61,62
 768 485 768 485 637 576 c 1,63,-1
 348 773 l 1,64,65
 277 726 277 726 248.5 685 c 128,-1,66
 220 644 220 644 220 590 c 0,67,68
 220 535 220 535 243.5 499.5 c 128,-1,69
 267 464 267 464 338 413 c 1,57,-1
EndSplineSet
Validated: 1
EndChar

StartChar: dieresis
Encoding: 168 168 108
Width: 598
GlyphClass: 2
Flags: W
LayerCount: 2
Fore
SplineSet
241 1286 m 1,0,-1
 241 1102 l 1,1,-1
 54 1102 l 1,2,-1
 54 1286 l 1,3,-1
 241 1286 l 1,0,-1
533 1286 m 1,4,-1
 533 1102 l 1,5,-1
 346 1102 l 1,6,-1
 346 1286 l 1,7,-1
 533 1286 l 1,4,-1
EndSplineSet
Validated: 1
EndChar

StartChar: copyright
Encoding: 169 169 109
Width: 1326
GlyphClass: 2
Flags: W
LayerCount: 2
Fore
SplineSet
994 562 m 1,0,1
 994 560 994 560 992 555 c 1,2,3
 986 524 986 524 981.5 504.5 c 128,-1,4
 977 485 977 485 964 446.5 c 128,-1,5
 951 408 951 408 937 382.5 c 128,-1,6
 923 357 923 357 898 325 c 128,-1,7
 873 293 873 293 843 273.5 c 128,-1,8
 813 254 813 254 769.5 240.5 c 128,-1,9
 726 227 726 227 674 227 c 0,10,11
 520 227 520 227 423 343 c 128,-1,12
 326 459 326 459 326 643 c 0,13,14
 326 832 326 832 423.5 949 c 128,-1,15
 521 1066 521 1066 680 1066 c 0,16,17
 800 1066 800 1066 873.5 997.5 c 128,-1,18
 947 929 947 929 979 787 c 1,19,-1
 852 787 l 1,20,21
 829 876 829 876 787.5 915 c 128,-1,22
 746 954 746 954 674 954 c 0,23,24
 572 954 572 954 511 870 c 128,-1,25
 450 786 450 786 450 644 c 0,26,27
 450 515 450 515 511.5 426.5 c 128,-1,28
 573 338 573 338 674 338 c 0,29,30
 750 338 750 338 799 395 c 128,-1,31
 848 452 848 452 866 562 c 1,32,-1
 994 562 l 1,0,1
665 1336 m 128,-1,34
 805 1336 805 1336 932 1281.5 c 128,-1,35
 1059 1227 1059 1227 1150.5 1135 c 128,-1,36
 1242 1043 1242 1043 1296.5 916 c 128,-1,37
 1351 789 1351 789 1351 650 c 0,38,39
 1351 508 1351 508 1296.5 380 c 128,-1,40
 1242 252 1242 252 1149 160 c 128,-1,41
 1056 68 1056 68 927 14 c 128,-1,42
 798 -40 798 -40 655 -40 c 0,43,44
 474 -40 474 -40 317 53.5 c 128,-1,45
 160 147 160 147 68 305.5 c 128,-1,46
 -24 464 -24 464 -24 648 c 0,47,48
 -24 788 -24 788 30.5 915 c 128,-1,49
 85 1042 85 1042 177 1134.5 c 128,-1,50
 269 1227 269 1227 397 1281.5 c 128,-1,33
 525 1336 525 1336 665 1336 c 128,-1,34
665 1224 m 0,51,52
 512 1224 512 1224 381 1146.5 c 128,-1,53
 250 1069 250 1069 174 936.5 c 128,-1,54
 98 804 98 804 98 648 c 0,55,56
 98 494 98 494 174 361 c 128,-1,57
 250 228 250 228 379 150 c 128,-1,58
 508 72 508 72 658 72 c 0,59,60
 815 72 815 72 946.5 149 c 128,-1,61
 1078 226 1078 226 1153.5 358.5 c 128,-1,62
 1229 491 1229 491 1229 650 c 0,63,64
 1229 766 1229 766 1184.5 872 c 128,-1,65
 1140 978 1140 978 1064 1055.5 c 128,-1,66
 988 1133 988 1133 883.5 1178.5 c 128,-1,67
 779 1224 779 1224 665 1224 c 0,51,52
EndSplineSet
Validated: 1
EndChar

StartChar: ordfeminine
Encoding: 170 170 110
Width: 666
GlyphClass: 2
Flags: W
LayerCount: 2
Fore
SplineSet
576 637 m 1,0,-1
 576 545 l 1,1,-1
 77 545 l 1,2,-1
 77 637 l 1,3,-1
 576 637 l 1,0,-1
600 809 m 1,4,-1
 600 730 l 1,5,6
 571 718 571 718 542 718 c 0,7,8
 497 718 497 718 474 735.5 c 128,-1,9
 451 753 451 753 443 796 c 1,10,11
 354 718 354 718 254 718 c 0,12,13
 168 718 168 718 117.5 764.5 c 128,-1,14
 67 811 67 811 67 890 c 0,15,16
 67 979 67 979 127.5 1023.5 c 128,-1,17
 188 1068 188 1068 349 1080 c 0,18,19
 400 1084 400 1084 418.5 1096.5 c 128,-1,20
 437 1109 437 1109 437 1140 c 2,21,-1
 437 1163 l 2,22,23
 437 1201 437 1201 406 1221.5 c 128,-1,24
 375 1242 375 1242 317 1242 c 0,25,26
 255 1242 255 1242 229 1220.5 c 128,-1,27
 203 1199 203 1199 194 1141 c 1,28,-1
 89 1141 l 1,29,30
 90 1237 90 1237 149.5 1286.5 c 128,-1,31
 209 1336 209 1336 320 1336 c 0,32,33
 540 1336 540 1336 540 1166 c 2,34,-1
 540 845 l 2,35,36
 540 803 540 803 581 803 c 0,37,38
 592 803 592 803 600 809 c 1,4,-1
437 1022 m 1,39,40
 411 1011 411 1011 371 1004 c 128,-1,41
 331 997 331 997 298.5 993 c 128,-1,42
 266 989 266 989 235.5 980 c 128,-1,43
 205 971 205 971 187.5 950.5 c 128,-1,44
 170 930 170 930 170 896 c 0,45,46
 170 856 170 856 197.5 833.5 c 128,-1,47
 225 811 225 811 274 811 c 0,48,49
 340 811 340 811 388.5 847 c 128,-1,50
 437 883 437 883 437 931 c 2,51,-1
 437 1022 l 1,39,40
EndSplineSet
Validated: 1
EndChar

StartChar: guillemotleft
Encoding: 171 171 111
Width: 1000
GlyphClass: 2
Flags: W
LayerCount: 2
Fore
SplineSet
176 408 m 1,0,-1
 176 569 l 1,1,-1
 450 788 l 1,2,-1
 450 638 l 1,3,-1
 259 490 l 1,4,-1
 450 341 l 1,5,-1
 450 191 l 1,6,-1
 176 408 l 1,0,-1
545 408 m 1,7,-1
 545 569 l 1,8,-1
 818 788 l 1,9,-1
 818 638 l 1,10,-1
 629 490 l 1,11,-1
 818 341 l 1,12,-1
 818 191 l 1,13,-1
 545 408 l 1,7,-1
EndSplineSet
Validated: 1
EndChar

StartChar: logicalnot
Encoding: 172 172 112
Width: 1051
GlyphClass: 2
Flags: W
LayerCount: 2
Fore
SplineSet
72 674 m 1,0,-1
 979 674 l 1,1,-1
 979 155 l 1,2,-1
 853 155 l 1,3,-1
 853 550 l 1,4,-1
 72 550 l 1,5,-1
 72 674 l 1,0,-1
EndSplineSet
Validated: 1
EndChar

StartChar: sfthyphen
Encoding: 173 173 113
Width: 598
GlyphClass: 2
Flags: W
LayerCount: 2
Fore
SplineSet
511 562 m 1,0,-1
 511 432 l 1,1,-1
 83 432 l 1,2,-1
 83 562 l 1,3,-1
 511 562 l 1,0,-1
EndSplineSet
Validated: 1
EndChar

StartChar: registered
Encoding: 174 174 114
Width: 1326
GlyphClass: 2
Flags: W
LayerCount: 2
Fore
SplineSet
890 648 m 1,0,1
 933 620 933 620 952.5 580.5 c 128,-1,2
 972 541 972 541 972.5 501.5 c 128,-1,3
 973 462 973 462 971 424 c 128,-1,4
 969 386 969 386 977.5 352 c 128,-1,5
 986 318 986 318 1013 298 c 1,6,-1
 1013 252 l 1,7,-1
 871 252 l 1,8,9
 841 320 841 320 845 391 c 1,10,-1
 846 463 l 2,11,12
 846 528 846 528 818.5 557 c 128,-1,13
 791 586 791 586 731 586 c 2,14,-1
 490 586 l 1,15,-1
 490 252 l 1,16,-1
 364 252 l 1,17,-1
 364 1054 l 1,18,-1
 734 1054 l 2,19,20
 989 1054 989 1054 989 826 c 0,21,22
 989 765 989 765 967.5 727 c 128,-1,23
 946 689 946 689 890 648 c 1,0,1
490 698 m 1,24,-1
 722 698 l 2,25,26
 792 698 792 698 824.5 727.5 c 128,-1,27
 857 757 857 757 857 818 c 0,28,29
 857 882 857 882 825 911 c 128,-1,30
 793 940 793 940 722 940 c 2,31,-1
 490 940 l 1,32,-1
 490 698 l 1,24,-1
665 1336 m 128,-1,34
 805 1336 805 1336 932 1281.5 c 128,-1,35
 1059 1227 1059 1227 1150.5 1135 c 128,-1,36
 1242 1043 1242 1043 1296.5 916 c 128,-1,37
 1351 789 1351 789 1351 650 c 0,38,39
 1351 508 1351 508 1296.5 380 c 128,-1,40
 1242 252 1242 252 1149 160 c 128,-1,41
 1056 68 1056 68 927 14 c 128,-1,42
 798 -40 798 -40 655 -40 c 0,43,44
 474 -40 474 -40 317 53.5 c 128,-1,45
 160 147 160 147 68 305.5 c 128,-1,46
 -24 464 -24 464 -24 648 c 0,47,48
 -24 788 -24 788 30.5 915 c 128,-1,49
 85 1042 85 1042 177 1134.5 c 128,-1,50
 269 1227 269 1227 397 1281.5 c 128,-1,33
 525 1336 525 1336 665 1336 c 128,-1,34
665 1224 m 0,51,52
 512 1224 512 1224 381 1146.5 c 128,-1,53
 250 1069 250 1069 174 936.5 c 128,-1,54
 98 804 98 804 98 648 c 0,55,56
 98 494 98 494 174 361 c 128,-1,57
 250 228 250 228 379 150 c 128,-1,58
 508 72 508 72 658 72 c 0,59,60
 815 72 815 72 946.5 149 c 128,-1,61
 1078 226 1078 226 1153.5 358.5 c 128,-1,62
 1229 491 1229 491 1229 650 c 0,63,64
 1229 766 1229 766 1184.5 872 c 128,-1,65
 1140 978 1140 978 1064 1055.5 c 128,-1,66
 988 1133 988 1133 883.5 1178.5 c 128,-1,67
 779 1224 779 1224 665 1224 c 0,51,52
EndSplineSet
Validated: 33
EndChar

StartChar: macron
Encoding: 175 175 115
Width: 598
GlyphClass: 2
Flags: W
LayerCount: 2
Fore
SplineSet
544 1262 m 1,0,-1
 544 1135 l 1,1,-1
 50 1135 l 1,2,-1
 50 1262 l 1,3,-1
 544 1262 l 1,0,-1
EndSplineSet
Validated: 1
EndChar

StartChar: degree
Encoding: 176 176 116
Width: 1090
GlyphClass: 2
Flags: W
LayerCount: 2
Fore
SplineSet
545 1235 m 0,0,1
 657 1235 657 1235 737 1155 c 128,-1,2
 817 1075 817 1075 817 962 c 0,3,4
 817 848 817 848 737 768.5 c 128,-1,5
 657 689 657 689 542 689 c 0,6,7
 431 689 431 689 351 770 c 128,-1,8
 271 851 271 851 271 962 c 0,9,10
 271 1075 271 1075 351.5 1155 c 128,-1,11
 432 1235 432 1235 545 1235 c 0,0,1
545 1133 m 128,-1,13
 475 1133 475 1133 424.5 1082.5 c 128,-1,14
 374 1032 374 1032 374 962 c 128,-1,15
 374 892 374 892 424 842 c 128,-1,16
 474 792 474 792 542 792 c 0,17,18
 614 792 614 792 664.5 841.5 c 128,-1,19
 715 891 715 891 715 962 c 0,20,21
 715 1032 715 1032 665 1082.5 c 128,-1,12
 615 1133 615 1133 545 1133 c 128,-1,13
EndSplineSet
Validated: 1
EndChar

StartChar: plusminus
Encoding: 177 177 117
Width: 1051
GlyphClass: 2
Flags: W
LayerCount: 2
Fore
SplineSet
961 749 m 1,0,-1
 961 623 l 1,1,-1
 588 623 l 1,2,-1
 588 250 l 1,3,-1
 463 250 l 1,4,-1
 463 623 l 1,5,-1
 90 623 l 1,6,-1
 90 749 l 1,7,-1
 463 749 l 1,8,-1
 463 1121 l 1,9,-1
 588 1121 l 1,10,-1
 588 749 l 1,11,-1
 961 749 l 1,0,-1
961 106 m 1,12,-1
 961 -19 l 1,13,-1
 90 -19 l 1,14,-1
 90 106 l 1,15,-1
 961 106 l 1,12,-1
EndSplineSet
Validated: 1
EndChar

StartChar: twosuperior
Encoding: 178 178 118
Width: 631
GlyphClass: 2
Flags: W
LayerCount: 2
Fore
SplineSet
320 1181 m 0,0,1
 273 1181 273 1181 241 1165 c 128,-1,2
 209 1149 209 1149 193.5 1119.5 c 128,-1,3
 178 1090 178 1090 172 1064.5 c 128,-1,4
 166 1039 166 1039 163 1003 c 1,5,-1
 53 1003 l 1,6,7
 57 1142 57 1142 124 1209.5 c 128,-1,8
 191 1277 191 1277 324 1277 c 0,9,10
 440 1277 440 1277 513.5 1213.5 c 128,-1,11
 587 1150 587 1150 587 1049 c 0,12,13
 587 904 587 904 414 817 c 2,14,-1
 300 760 l 1,15,16
 242 728 242 728 213.5 697.5 c 128,-1,17
 185 667 185 667 169 616 c 1,18,-1
 581 616 l 1,19,-1
 581 511 l 1,20,-1
 34 511 l 1,21,22
 41 642 41 642 87 710.5 c 128,-1,23
 133 779 133 779 263 847 c 1,24,-1
 367 904 l 1,25,26
 473 960 473 960 473 1046 c 0,27,28
 473 1104 473 1104 429 1142.5 c 128,-1,29
 385 1181 385 1181 320 1181 c 0,0,1
EndSplineSet
Validated: 1
EndChar

StartChar: threesuperior
Encoding: 179 179 119
Width: 631
GlyphClass: 2
Flags: W
LayerCount: 2
Fore
SplineSet
305 1181 m 0,0,1
 221 1181 221 1181 189.5 1140 c 128,-1,2
 158 1099 158 1099 158 1020 c 1,3,-1
 46 1020 l 1,4,5
 47 1147 47 1147 113 1212 c 128,-1,6
 179 1277 179 1277 305 1277 c 0,7,8
 420 1277 420 1277 487 1218.5 c 128,-1,9
 554 1160 554 1160 554 1061 c 0,10,11
 554 955 554 955 451 907 c 1,12,13
 580 864 580 864 580 727 c 0,14,15
 580 617 580 617 503.5 551.5 c 128,-1,16
 427 486 427 486 300 486 c 0,17,18
 171 486 171 486 100 553 c 128,-1,19
 29 620 29 620 29 742 c 1,20,-1
 140 742 l 1,21,22
 144 658 144 658 184 619.5 c 128,-1,23
 224 581 224 581 305 581 c 0,24,25
 381 581 381 581 423.5 620 c 128,-1,26
 466 659 466 659 466 727 c 0,27,28
 466 776 466 776 437.5 810.5 c 128,-1,29
 409 845 409 845 362 853 c 0,30,31
 335 857 335 857 242 857 c 1,32,-1
 242 948 l 1,33,34
 358 948 358 948 400 971.5 c 128,-1,35
 442 995 442 995 442 1058 c 0,36,37
 442 1115 442 1115 405 1148 c 128,-1,38
 368 1181 368 1181 305 1181 c 0,0,1
EndSplineSet
Validated: 1
EndChar

StartChar: acute
Encoding: 180 180 120
Width: 598
GlyphClass: 2
Flags: W
LayerCount: 2
Fore
SplineSet
338 1332 m 1,0,-1
 542 1332 l 1,1,-1
 274 1066 l 1,2,-1
 166 1066 l 1,3,-1
 338 1332 l 1,0,-1
EndSplineSet
Validated: 1
EndChar

StartChar: mu
Encoding: 181 181 121
Width: 1033
GlyphClass: 2
Flags: W
LayerCount: 2
Fore
SplineSet
518 -22 m 0,0,1
 441 -22 441 -22 392.5 5.5 c 128,-1,2
 344 33 344 33 299 94 c 1,3,-1
 299 -360 l 1,4,-1
 140 -360 l 1,5,-1
 140 932 l 1,6,-1
 299 932 l 1,7,-1
 299 540 l 2,8,9
 299 322 299 322 320 262 c 1,10,11
 340 198 340 198 391 160 c 128,-1,12
 442 122 442 122 515 122 c 0,13,14
 591 122 591 122 646 166 c 128,-1,15
 701 210 701 210 710 247 c 1,16,17
 742 343 742 343 742 536 c 2,18,-1
 742 932 l 1,19,-1
 896 932 l 1,20,-1
 896 0 l 1,21,-1
 752 0 l 1,22,-1
 752 112 l 1,23,24
 711 45 711 45 657 11.5 c 128,-1,25
 603 -22 603 -22 518 -22 c 0,0,1
EndSplineSet
Validated: 1
EndChar

StartChar: paragraph
Encoding: 182 182 122
Width: 966
GlyphClass: 2
Flags: W
LayerCount: 2
Fore
SplineSet
458 466 m 1,0,1
 341 472 341 472 255 531 c 128,-1,2
 169 590 169 590 127.5 681 c 128,-1,3
 86 772 86 772 86 881 c 0,4,5
 86 1063 86 1063 203 1188 c 128,-1,6
 320 1313 320 1313 490 1313 c 2,7,-1
 940 1313 l 1,8,-1
 940 1198 l 1,9,-1
 838 1198 l 1,10,-1
 838 -319 l 1,11,-1
 722 -319 l 1,12,-1
 722 1198 l 1,13,-1
 574 1198 l 1,14,-1
 574 -319 l 1,15,-1
 458 -319 l 1,16,-1
 458 466 l 1,0,1
EndSplineSet
Validated: 1
EndChar

StartChar: periodcentered
Encoding: 183 183 123
Width: 500
GlyphClass: 2
Flags: W
LayerCount: 2
Fore
SplineSet
379 768 m 1,0,-1
 379 544 l 1,1,-1
 156 544 l 1,2,-1
 156 768 l 1,3,-1
 379 768 l 1,0,-1
EndSplineSet
Validated: 1
EndChar

StartChar: cedilla
Encoding: 184 184 124
Width: 598
GlyphClass: 2
Flags: W
LayerCount: 2
Fore
SplineSet
108 -252 m 1,0,1
 153 -275 153 -275 197.5 -293.5 c 128,-1,2
 242 -312 242 -312 284 -312 c 0,3,4
 327 -312 327 -312 354.5 -288.5 c 128,-1,5
 382 -265 382 -265 382 -230 c 0,6,7
 382 -200 382 -200 359.5 -181.5 c 128,-1,8
 337 -163 337 -163 299 -163 c 0,9,10
 275 -163 275 -163 242 -178 c 1,11,-1
 221 -166 l 1,12,-1
 298 0 l 1,13,-1
 365 0 l 1,14,-1
 324 -101 l 1,15,16
 348 -97 348 -97 374 -97 c 0,17,18
 442 -97 442 -97 479 -128.5 c 128,-1,19
 516 -160 516 -160 516 -218 c 0,20,21
 516 -295 516 -295 456.5 -340 c 128,-1,22
 397 -385 397 -385 295 -385 c 0,23,24
 244 -385 244 -385 199.5 -373 c 128,-1,25
 155 -361 155 -361 70 -324 c 1,26,-1
 108 -252 l 1,0,1
EndSplineSet
Validated: 1
EndChar

StartChar: onesuperior
Encoding: 185 185 125
Width: 631
GlyphClass: 2
Flags: W
LayerCount: 2
Fore
SplineSet
288 1044 m 1,0,-1
 110 1044 l 1,1,-1
 110 1127 l 1,2,-1
 137 1128 l 1,3,4
 234 1138 234 1138 266.5 1164.5 c 128,-1,5
 299 1191 299 1191 322 1277 c 1,6,-1
 400 1277 l 1,7,-1
 400 511 l 1,8,-1
 288 511 l 1,9,-1
 288 1044 l 1,0,-1
EndSplineSet
Validated: 1
EndChar

StartChar: ordmasculine
Encoding: 186 186 126
Width: 656
GlyphClass: 2
Flags: W
LayerCount: 2
Fore
SplineSet
565 637 m 1,0,-1
 565 545 l 1,1,-1
 91 545 l 1,2,-1
 91 637 l 1,3,-1
 565 637 l 1,0,-1
328 1336 m 0,4,5
 451 1336 451 1336 517 1254.5 c 128,-1,6
 583 1173 583 1173 583 1022 c 0,7,8
 583 880 583 880 515 799 c 128,-1,9
 447 718 447 718 328 718 c 0,10,11
 207 718 207 718 139.5 799.5 c 128,-1,12
 72 881 72 881 72 1027 c 128,-1,13
 72 1173 72 1173 139.5 1254.5 c 128,-1,14
 207 1336 207 1336 328 1336 c 0,4,5
328 1242 m 128,-1,16
 257 1242 257 1242 216.5 1185 c 128,-1,17
 176 1128 176 1128 176 1027 c 0,18,19
 176 927 176 927 216.5 869 c 128,-1,20
 257 811 257 811 328 811 c 0,21,22
 398 811 398 811 438.5 868.5 c 128,-1,23
 479 926 479 926 479 1025 c 0,24,25
 479 1127 479 1127 439 1184.5 c 128,-1,15
 399 1242 399 1242 328 1242 c 128,-1,16
EndSplineSet
Validated: 1
EndChar

StartChar: guillemotright
Encoding: 187 187 127
Width: 1000
GlyphClass: 2
Flags: W
LayerCount: 2
Fore
SplineSet
454 571 m 1,0,-1
 454 410 l 1,1,-1
 176 191 l 1,2,-1
 176 341 l 1,3,-1
 371 490 l 1,4,-1
 176 638 l 1,5,-1
 176 788 l 1,6,-1
 454 571 l 1,0,-1
811 571 m 1,7,-1
 811 410 l 1,8,-1
 535 191 l 1,9,-1
 535 341 l 1,10,-1
 730 490 l 1,11,-1
 535 638 l 1,12,-1
 535 788 l 1,13,-1
 811 571 l 1,7,-1
EndSplineSet
Validated: 1
EndChar

StartChar: onequarter
Encoding: 188 188 128
Width: 1563
GlyphClass: 2
Flags: W
LayerCount: 2
Fore
SplineSet
288 1044 m 1,0,-1
 110 1044 l 1,1,-1
 110 1127 l 1,2,-1
 137 1128 l 1,3,4
 234 1138 234 1138 266.5 1164.5 c 128,-1,5
 299 1191 299 1191 322 1277 c 1,6,-1
 400 1277 l 1,7,-1
 400 511 l 1,8,-1
 288 511 l 1,9,-1
 288 1044 l 1,0,-1
1157 1277 m 1,10,-1
 1262 1277 l 1,11,-1
 449 -36 l 1,12,-1
 343 -36 l 1,13,-1
 1157 1277 l 1,10,-1
1296 180 m 1,14,-1
 958 180 l 1,15,-1
 958 286 l 1,16,-1
 1325 766 l 1,17,-1
 1408 766 l 1,18,-1
 1408 276 l 1,19,-1
 1529 276 l 1,20,-1
 1529 180 l 1,21,-1
 1408 180 l 1,22,-1
 1408 0 l 1,23,-1
 1296 0 l 1,24,-1
 1296 180 l 1,14,-1
1296 276 m 1,25,-1
 1296 581 l 1,26,-1
 1063 276 l 1,27,-1
 1296 276 l 1,25,-1
EndSplineSet
Validated: 1
EndChar

StartChar: onehalf
Encoding: 189 189 129
Width: 1563
GlyphClass: 2
Flags: W
LayerCount: 2
Fore
SplineSet
288 1044 m 1,0,-1
 110 1044 l 1,1,-1
 110 1127 l 1,2,-1
 137 1128 l 1,3,4
 234 1138 234 1138 266.5 1164.5 c 128,-1,5
 299 1191 299 1191 322 1277 c 1,6,-1
 400 1277 l 1,7,-1
 400 511 l 1,8,-1
 288 511 l 1,9,-1
 288 1044 l 1,0,-1
1114 1277 m 1,10,-1
 1219 1277 l 1,11,-1
 406 -36 l 1,12,-1
 300 -36 l 1,13,-1
 1114 1277 l 1,10,-1
1253 670 m 0,14,15
 1206 670 1206 670 1174 654 c 128,-1,16
 1142 638 1142 638 1126.5 608.5 c 128,-1,17
 1111 579 1111 579 1105 553 c 128,-1,18
 1099 527 1099 527 1097 492 c 1,19,-1
 984 492 l 1,20,21
 989 631 989 631 1056 698.5 c 128,-1,22
 1123 766 1123 766 1256 766 c 0,23,24
 1372 766 1372 766 1445.5 702.5 c 128,-1,25
 1519 639 1519 639 1519 538 c 0,26,27
 1519 392 1519 392 1346 306 c 1,28,-1
 1234 248 l 2,29,30
 1174 216 1174 216 1145.5 185.5 c 128,-1,31
 1117 155 1117 155 1102 104 c 1,32,-1
 1514 104 l 1,33,-1
 1514 0 l 1,34,-1
 967 0 l 1,35,36
 974 132 974 132 1020 200 c 128,-1,37
 1066 268 1066 268 1195 336 c 2,38,-1
 1300 392 l 1,39,40
 1406 450 1406 450 1406 535 c 0,41,42
 1406 593 1406 593 1362 631.5 c 128,-1,43
 1318 670 1318 670 1253 670 c 0,14,15
EndSplineSet
Validated: 1
EndChar

StartChar: threequarters
Encoding: 190 190 130
Width: 1563
GlyphClass: 2
Flags: W
LayerCount: 2
Fore
SplineSet
305 1181 m 0,0,1
 221 1181 221 1181 189.5 1140 c 128,-1,2
 158 1099 158 1099 158 1020 c 1,3,-1
 46 1020 l 1,4,5
 47 1147 47 1147 113 1212 c 128,-1,6
 179 1277 179 1277 305 1277 c 0,7,8
 420 1277 420 1277 487 1218.5 c 128,-1,9
 554 1160 554 1160 554 1061 c 0,10,11
 554 955 554 955 451 907 c 1,12,13
 580 864 580 864 580 727 c 0,14,15
 580 617 580 617 503.5 551.5 c 128,-1,16
 427 486 427 486 300 486 c 0,17,18
 171 486 171 486 100 553 c 128,-1,19
 29 620 29 620 29 742 c 1,20,-1
 140 742 l 1,21,22
 144 658 144 658 184 619.5 c 128,-1,23
 224 581 224 581 305 581 c 0,24,25
 381 581 381 581 423.5 620 c 128,-1,26
 466 659 466 659 466 727 c 0,27,28
 466 776 466 776 437.5 810.5 c 128,-1,29
 409 845 409 845 362 853 c 0,30,31
 335 857 335 857 242 857 c 1,32,-1
 242 948 l 1,33,34
 358 948 358 948 400 971.5 c 128,-1,35
 442 995 442 995 442 1058 c 0,36,37
 442 1115 442 1115 405 1148 c 128,-1,38
 368 1181 368 1181 305 1181 c 0,0,1
1176 1277 m 1,39,-1
 1279 1277 l 1,40,-1
 466 -36 l 1,41,-1
 362 -36 l 1,42,-1
 1176 1277 l 1,39,-1
1296 180 m 1,43,-1
 958 180 l 1,44,-1
 958 286 l 1,45,-1
 1325 766 l 1,46,-1
 1408 766 l 1,47,-1
 1408 276 l 1,48,-1
 1529 276 l 1,49,-1
 1529 180 l 1,50,-1
 1408 180 l 1,51,-1
 1408 0 l 1,52,-1
 1296 0 l 1,53,-1
 1296 180 l 1,43,-1
1296 276 m 1,54,-1
 1296 581 l 1,55,-1
 1063 276 l 1,56,-1
 1296 276 l 1,54,-1
EndSplineSet
Validated: 1
EndChar

StartChar: Agrave
Encoding: 192 192 132
Width: 1200
GlyphClass: 2
Flags: W
LayerCount: 2
Fore
SplineSet
544 1690 m 1,0,-1
 717 1424 l 1,1,-1
 609 1424 l 1,2,-1
 342 1690 l 1,3,-1
 544 1690 l 1,0,-1
853 394 m 1,4,-1
 348 394 l 1,5,-1
 209 0 l 1,6,-1
 31 0 l 1,7,-1
 499 1313 l 1,8,-1
 715 1313 l 1,9,-1
 1176 0 l 1,10,-1
 989 0 l 1,11,-1
 853 394 l 1,4,-1
806 535 m 1,12,-1
 605 1133 l 1,13,-1
 389 535 l 1,14,-1
 806 535 l 1,12,-1
EndSplineSet
Validated: 1
EndChar

StartChar: Aacute
Encoding: 193 193 133
Width: 1200
GlyphClass: 2
Flags: W
LayerCount: 2
Fore
SplineSet
666 1690 m 1,0,-1
 870 1690 l 1,1,-1
 602 1424 l 1,2,-1
 494 1424 l 1,3,-1
 666 1690 l 1,0,-1
853 394 m 1,4,-1
 348 394 l 1,5,-1
 209 0 l 1,6,-1
 31 0 l 1,7,-1
 499 1313 l 1,8,-1
 715 1313 l 1,9,-1
 1176 0 l 1,10,-1
 989 0 l 1,11,-1
 853 394 l 1,4,-1
806 535 m 1,12,-1
 605 1133 l 1,13,-1
 389 535 l 1,14,-1
 806 535 l 1,12,-1
EndSplineSet
Validated: 1
EndChar

StartChar: Acircumflex
Encoding: 194 194 134
Width: 1200
GlyphClass: 2
Flags: W
LayerCount: 2
Fore
SplineSet
519 1692 m 1,0,-1
 689 1692 l 1,1,-1
 862 1421 l 1,2,-1
 749 1421 l 1,3,-1
 603 1594 l 1,4,-1
 461 1421 l 1,5,-1
 346 1421 l 1,6,-1
 519 1692 l 1,0,-1
853 394 m 1,7,-1
 348 394 l 1,8,-1
 209 0 l 1,9,-1
 31 0 l 1,10,-1
 499 1313 l 1,11,-1
 715 1313 l 1,12,-1
 1176 0 l 1,13,-1
 989 0 l 1,14,-1
 853 394 l 1,7,-1
806 535 m 1,15,-1
 605 1133 l 1,16,-1
 389 535 l 1,17,-1
 806 535 l 1,15,-1
EndSplineSet
Validated: 1
EndChar

StartChar: Atilde
Encoding: 195 195 135
Width: 1200
GlyphClass: 2
Flags: W
LayerCount: 2
Fore
SplineSet
477 1629 m 0,0,1
 523 1629 523 1629 602.5 1595.5 c 128,-1,2
 682 1562 682 1562 717 1562 c 0,3,4
 763 1562 763 1562 784 1629 c 1,5,-1
 888 1629 l 1,6,7
 863 1442 863 1442 728 1442 c 0,8,9
 693 1442 693 1442 602.5 1475.5 c 128,-1,10
 512 1509 512 1509 487 1509 c 0,11,12
 446 1509 446 1509 427 1443 c 1,13,-1
 324 1443 l 1,14,15
 338 1532 338 1532 378 1580.5 c 128,-1,16
 418 1629 418 1629 477 1629 c 0,0,1
853 394 m 1,17,-1
 348 394 l 1,18,-1
 209 0 l 1,19,-1
 31 0 l 1,20,-1
 499 1313 l 1,21,-1
 715 1313 l 1,22,-1
 1176 0 l 1,23,-1
 989 0 l 1,24,-1
 853 394 l 1,17,-1
806 535 m 1,25,-1
 605 1133 l 1,26,-1
 389 535 l 1,27,-1
 806 535 l 1,25,-1
EndSplineSet
Validated: 1
EndChar

StartChar: Aring
Encoding: 197 197 137
Width: 1200
GlyphClass: 2
Flags: W
LayerCount: 2
Fore
SplineSet
602 1715 m 0,0,1
 668 1715 668 1715 714 1669 c 128,-1,2
 760 1623 760 1623 760 1557 c 0,3,4
 760 1492 760 1492 713.5 1446 c 128,-1,5
 667 1400 667 1400 602 1400 c 0,6,7
 538 1400 538 1400 491 1447 c 128,-1,8
 444 1494 444 1494 444 1558 c 128,-1,9
 444 1622 444 1622 491 1668.5 c 128,-1,10
 538 1715 538 1715 602 1715 c 0,0,1
602 1636 m 0,11,12
 570 1636 570 1636 546.5 1613 c 128,-1,13
 523 1590 523 1590 523 1558 c 128,-1,14
 523 1526 523 1526 546.5 1502.5 c 128,-1,15
 570 1479 570 1479 602 1479 c 128,-1,16
 634 1479 634 1479 657.5 1502 c 128,-1,17
 681 1525 681 1525 681 1557 c 0,18,19
 681 1590 681 1590 658.5 1613 c 128,-1,20
 636 1636 636 1636 602 1636 c 0,11,12
853 394 m 1,21,-1
 348 394 l 1,22,-1
 209 0 l 1,23,-1
 31 0 l 1,24,-1
 499 1313 l 1,25,-1
 715 1313 l 1,26,-1
 1176 0 l 1,27,-1
 989 0 l 1,28,-1
 853 394 l 1,21,-1
806 535 m 1,29,-1
 605 1133 l 1,30,-1
 389 535 l 1,31,-1
 806 535 l 1,29,-1
EndSplineSet
Validated: 1
EndChar

StartChar: AE
Encoding: 198 198 138
Width: 1800
GlyphClass: 2
Flags: W
LayerCount: 2
Fore
SplineSet
842 385 m 1,0,-1
 358 385 l 1,1,-1
 205 0 l 1,2,-1
 19 0 l 1,3,-1
 558 1313 l 1,4,-1
 1678 1313 l 1,5,-1
 1678 1164 l 1,6,-1
 1010 1164 l 1,7,-1
 1010 745 l 1,8,-1
 1644 745 l 1,9,-1
 1644 598 l 1,10,-1
 1010 598 l 1,11,-1
 1010 148 l 1,12,-1
 1710 148 l 1,13,-1
 1710 0 l 1,14,-1
 842 0 l 1,15,-1
 842 385 l 1,0,-1
842 533 m 1,16,-1
 842 1164 l 1,17,-1
 662 1164 l 1,18,-1
 414 533 l 1,19,-1
 842 533 l 1,16,-1
EndSplineSet
Validated: 1
EndChar

StartChar: Ccedilla
Encoding: 199 199 139
Width: 1299
GlyphClass: 2
Flags: W
LayerCount: 2
Fore
SplineSet
680 104 m 0,0,1
 842 104 842 104 928 195 c 128,-1,2
 1014 286 1014 286 1046 479 c 1,3,-1
 1219 479 l 1,4,5
 1157 -41 1157 -41 682 -41 c 1,6,-1
 659 -101 l 1,7,8
 682 -97 682 -97 709 -97 c 0,9,10
 777 -97 777 -97 814.5 -128.5 c 128,-1,11
 852 -160 852 -160 852 -218 c 0,12,13
 852 -295 852 -295 792 -340 c 128,-1,14
 732 -385 732 -385 630 -385 c 0,15,16
 579 -385 579 -385 533.5 -372.5 c 128,-1,17
 488 -360 488 -360 406 -324 c 1,18,-1
 443 -252 l 1,19,20
 456 -258 456 -258 483.5 -271.5 c 128,-1,21
 511 -285 511 -285 527.5 -292 c 128,-1,22
 544 -299 544 -299 569.5 -305.5 c 128,-1,23
 595 -312 595 -312 619 -312 c 0,24,25
 660 -312 660 -312 688 -288.5 c 128,-1,26
 716 -265 716 -265 716 -230 c 0,27,28
 716 -200 716 -200 694 -181.5 c 128,-1,29
 672 -163 672 -163 634 -163 c 0,30,31
 611 -163 611 -163 578 -178 c 1,32,-1
 558 -166 l 1,33,-1
 614 -41 l 1,34,35
 512 -27 512 -27 457.5 -7.5 c 128,-1,36
 403 12 403 12 346 53 c 0,37,38
 223 140 223 140 154.5 294.5 c 128,-1,39
 86 449 86 449 86 641 c 0,40,41
 86 703 86 703 94 765.5 c 128,-1,42
 102 828 102 828 121.5 897.5 c 128,-1,43
 141 967 141 967 171 1028.5 c 128,-1,44
 201 1090 201 1090 248.5 1147 c 128,-1,45
 296 1204 296 1204 356.5 1244.5 c 128,-1,46
 417 1285 417 1285 501.5 1309.5 c 128,-1,47
 586 1334 586 1334 686 1334 c 0,48,49
 1115 1334 1115 1334 1192 905 c 1,50,-1
 1020 905 l 1,51,52
 992 1045 992 1045 909 1115.5 c 128,-1,53
 826 1186 826 1186 667 1186 c 0,54,55
 476 1186 476 1186 365 1040.5 c 128,-1,56
 254 895 254 895 254 643 c 0,57,58
 254 396 254 396 369.5 250 c 128,-1,59
 485 104 485 104 680 104 c 0,0,1
EndSplineSet
Validated: 1
EndChar

StartChar: Egrave
Encoding: 200 200 140
Width: 1200
GlyphClass: 2
Flags: W
LayerCount: 2
Fore
SplineSet
576 1690 m 1,0,-1
 749 1424 l 1,1,-1
 641 1424 l 1,2,-1
 374 1690 l 1,3,-1
 576 1690 l 1,0,-1
329 598 m 1,4,-1
 329 148 l 1,5,-1
 1104 148 l 1,6,-1
 1104 0 l 1,7,-1
 162 0 l 1,8,-1
 162 1313 l 1,9,-1
 1070 1313 l 1,10,-1
 1070 1164 l 1,11,-1
 329 1164 l 1,12,-1
 329 745 l 1,13,-1
 1044 745 l 1,14,-1
 1044 598 l 1,15,-1
 329 598 l 1,4,-1
EndSplineSet
Validated: 1
EndChar

StartChar: Eacute
Encoding: 201 201 141
Width: 1200
GlyphClass: 2
Flags: W
LayerCount: 2
Fore
SplineSet
658 1690 m 1,0,-1
 862 1690 l 1,1,-1
 594 1424 l 1,2,-1
 486 1424 l 1,3,-1
 658 1690 l 1,0,-1
329 598 m 1,4,-1
 329 148 l 1,5,-1
 1104 148 l 1,6,-1
 1104 0 l 1,7,-1
 162 0 l 1,8,-1
 162 1313 l 1,9,-1
 1070 1313 l 1,10,-1
 1070 1164 l 1,11,-1
 329 1164 l 1,12,-1
 329 745 l 1,13,-1
 1044 745 l 1,14,-1
 1044 598 l 1,15,-1
 329 598 l 1,4,-1
EndSplineSet
Validated: 1
EndChar

StartChar: Ecircumflex
Encoding: 202 202 142
Width: 1200
GlyphClass: 2
Flags: W
LayerCount: 2
Fore
SplineSet
535 1690 m 1,0,-1
 705 1690 l 1,1,-1
 878 1419 l 1,2,-1
 765 1419 l 1,3,-1
 619 1592 l 1,4,-1
 477 1419 l 1,5,-1
 362 1419 l 1,6,-1
 535 1690 l 1,0,-1
329 598 m 1,7,-1
 329 148 l 1,8,-1
 1104 148 l 1,9,-1
 1104 0 l 1,10,-1
 162 0 l 1,11,-1
 162 1313 l 1,12,-1
 1070 1313 l 1,13,-1
 1070 1164 l 1,14,-1
 329 1164 l 1,15,-1
 329 745 l 1,16,-1
 1044 745 l 1,17,-1
 1044 598 l 1,18,-1
 329 598 l 1,7,-1
EndSplineSet
Validated: 1
EndChar

StartChar: Igrave
Encoding: 204 204 144
Width: 500
GlyphClass: 2
Flags: W
LayerCount: 2
Fore
SplineSet
202 1690 m 1,0,-1
 375 1424 l 1,1,-1
 267 1424 l 1,2,-1
 0 1690 l 1,3,-1
 202 1690 l 1,0,-1
349 1313 m 1,4,-1
 349 0 l 1,5,-1
 180 0 l 1,6,-1
 180 1313 l 1,7,-1
 349 1313 l 1,4,-1
EndSplineSet
Validated: 1
EndChar

StartChar: Iacute
Encoding: 205 205 145
Width: 500
GlyphClass: 2
Flags: W
LayerCount: 2
Fore
SplineSet
300 1690 m 1,0,-1
 504 1690 l 1,1,-1
 236 1424 l 1,2,-1
 128 1424 l 1,3,-1
 300 1690 l 1,0,-1
349 1313 m 1,4,-1
 349 0 l 1,5,-1
 180 0 l 1,6,-1
 180 1313 l 1,7,-1
 349 1313 l 1,4,-1
EndSplineSet
Validated: 1
EndChar

StartChar: Icircumflex
Encoding: 206 206 146
Width: 500
GlyphClass: 2
Flags: W
LayerCount: 2
Fore
SplineSet
171 1692 m 1,0,-1
 341 1692 l 1,1,-1
 514 1421 l 1,2,-1
 401 1421 l 1,3,-1
 255 1594 l 1,4,-1
 113 1421 l 1,5,-1
 -2 1421 l 1,6,-1
 171 1692 l 1,0,-1
349 1313 m 1,7,-1
 349 0 l 1,8,-1
 180 0 l 1,9,-1
 180 1313 l 1,10,-1
 349 1313 l 1,7,-1
EndSplineSet
Validated: 1
EndChar

StartChar: Eth
Encoding: 208 208 148
Width: 1299
GlyphClass: 2
Flags: W
LayerCount: 2
Fore
SplineSet
161 610 m 1,0,-1
 36 610 l 1,1,-1
 36 731 l 1,2,-1
 161 731 l 1,3,-1
 161 1313 l 1,4,-1
 667 1313 l 2,5,6
 915 1313 915 1313 1057.5 1137.5 c 128,-1,7
 1200 962 1200 962 1200 658 c 0,8,9
 1200 351 1200 351 1057.5 175.5 c 128,-1,10
 915 0 915 0 667 0 c 2,11,-1
 161 0 l 1,12,-1
 161 610 l 1,0,-1
328 610 m 1,13,-1
 328 148 l 1,14,-1
 638 148 l 2,15,16
 832 148 832 148 932.5 277.5 c 128,-1,17
 1033 407 1033 407 1033 658 c 0,18,19
 1033 907 1033 907 932.5 1035.5 c 128,-1,20
 832 1164 832 1164 638 1164 c 2,21,-1
 328 1164 l 1,22,-1
 328 731 l 1,23,-1
 636 731 l 1,24,-1
 636 610 l 1,25,-1
 328 610 l 1,13,-1
EndSplineSet
Validated: 1
EndChar

StartChar: Ntilde
Encoding: 209 209 149
Width: 1299
GlyphClass: 2
Flags: W
LayerCount: 2
Fore
SplineSet
521 1629 m 0,0,1
 567 1629 567 1629 646.5 1595.5 c 128,-1,2
 726 1562 726 1562 761 1562 c 0,3,4
 807 1562 807 1562 828 1629 c 1,5,-1
 932 1629 l 1,6,7
 907 1442 907 1442 772 1442 c 0,8,9
 737 1442 737 1442 646.5 1475.5 c 128,-1,10
 556 1509 556 1509 531 1509 c 0,11,12
 490 1509 490 1509 471 1443 c 1,13,-1
 368 1443 l 1,14,15
 382 1532 382 1532 422 1580.5 c 128,-1,16
 462 1629 462 1629 521 1629 c 0,0,1
1163 1313 m 1,17,-1
 1163 0 l 1,18,-1
 974 0 l 1,19,-1
 295 1063 l 1,20,-1
 295 0 l 1,21,-1
 137 0 l 1,22,-1
 137 1313 l 1,23,-1
 319 1313 l 1,24,-1
 1004 240 l 1,25,-1
 1004 1313 l 1,26,-1
 1163 1313 l 1,17,-1
EndSplineSet
Validated: 1
EndChar

StartChar: Ograve
Encoding: 210 210 150
Width: 1400
GlyphClass: 2
Flags: W
LayerCount: 2
Fore
SplineSet
645 1690 m 1,0,-1
 818 1424 l 1,1,-1
 710 1424 l 1,2,-1
 443 1690 l 1,3,-1
 645 1690 l 1,0,-1
1336 636 m 0,4,5
 1336 494 1336 494 1291.5 370.5 c 128,-1,6
 1247 247 1247 247 1166.5 155.5 c 128,-1,7
 1086 64 1086 64 966 11.5 c 128,-1,8
 846 -41 846 -41 702 -41 c 0,9,10
 418 -41 418 -41 243 148.5 c 128,-1,11
 68 338 68 338 68 646 c 0,12,13
 68 953 68 953 243 1143.5 c 128,-1,14
 418 1334 418 1334 701 1334 c 0,15,16
 989 1334 989 1334 1162.5 1143.5 c 128,-1,17
 1336 953 1336 953 1336 636 c 0,4,5
701 1186 m 0,18,19
 492 1186 492 1186 363.5 1037.5 c 128,-1,20
 235 889 235 889 235 646 c 128,-1,21
 235 403 235 403 363.5 254.5 c 128,-1,22
 492 106 492 106 702 106 c 0,23,24
 910 106 910 106 1039.5 253.5 c 128,-1,25
 1169 401 1169 401 1169 638 c 0,26,27
 1169 887 1169 887 1041 1036.5 c 128,-1,28
 913 1186 913 1186 701 1186 c 0,18,19
EndSplineSet
Validated: 1
EndChar

StartChar: Oacute
Encoding: 211 211 151
Width: 1400
GlyphClass: 2
Flags: W
LayerCount: 2
Fore
SplineSet
751 1690 m 1,0,-1
 955 1690 l 1,1,-1
 687 1424 l 1,2,-1
 579 1424 l 1,3,-1
 751 1690 l 1,0,-1
1336 636 m 0,4,5
 1336 494 1336 494 1291.5 370.5 c 128,-1,6
 1247 247 1247 247 1166.5 155.5 c 128,-1,7
 1086 64 1086 64 966 11.5 c 128,-1,8
 846 -41 846 -41 702 -41 c 0,9,10
 418 -41 418 -41 243 148.5 c 128,-1,11
 68 338 68 338 68 646 c 0,12,13
 68 953 68 953 243 1143.5 c 128,-1,14
 418 1334 418 1334 701 1334 c 0,15,16
 989 1334 989 1334 1162.5 1143.5 c 128,-1,17
 1336 953 1336 953 1336 636 c 0,4,5
701 1186 m 0,18,19
 492 1186 492 1186 363.5 1037.5 c 128,-1,20
 235 889 235 889 235 646 c 128,-1,21
 235 403 235 403 363.5 254.5 c 128,-1,22
 492 106 492 106 702 106 c 0,23,24
 910 106 910 106 1039.5 253.5 c 128,-1,25
 1169 401 1169 401 1169 638 c 0,26,27
 1169 887 1169 887 1041 1036.5 c 128,-1,28
 913 1186 913 1186 701 1186 c 0,18,19
EndSplineSet
Validated: 1
EndChar

StartChar: Ocircumflex
Encoding: 212 212 152
Width: 1400
GlyphClass: 2
Flags: W
LayerCount: 2
Fore
SplineSet
617 1692 m 1,0,-1
 787 1692 l 1,1,-1
 960 1421 l 1,2,-1
 847 1421 l 1,3,-1
 701 1594 l 1,4,-1
 559 1421 l 1,5,-1
 444 1421 l 1,6,-1
 617 1692 l 1,0,-1
1336 636 m 0,7,8
 1336 494 1336 494 1291.5 370.5 c 128,-1,9
 1247 247 1247 247 1166.5 155.5 c 128,-1,10
 1086 64 1086 64 966 11.5 c 128,-1,11
 846 -41 846 -41 702 -41 c 0,12,13
 418 -41 418 -41 243 148.5 c 128,-1,14
 68 338 68 338 68 646 c 0,15,16
 68 953 68 953 243 1143.5 c 128,-1,17
 418 1334 418 1334 701 1334 c 0,18,19
 989 1334 989 1334 1162.5 1143.5 c 128,-1,20
 1336 953 1336 953 1336 636 c 0,7,8
701 1186 m 0,21,22
 492 1186 492 1186 363.5 1037.5 c 128,-1,23
 235 889 235 889 235 646 c 128,-1,24
 235 403 235 403 363.5 254.5 c 128,-1,25
 492 106 492 106 702 106 c 0,26,27
 910 106 910 106 1039.5 253.5 c 128,-1,28
 1169 401 1169 401 1169 638 c 0,29,30
 1169 887 1169 887 1041 1036.5 c 128,-1,31
 913 1186 913 1186 701 1186 c 0,21,22
EndSplineSet
Validated: 1
EndChar

StartChar: Otilde
Encoding: 213 213 153
Width: 1400
GlyphClass: 2
Flags: W
LayerCount: 2
Fore
SplineSet
571 1629 m 0,0,1
 617 1629 617 1629 696.5 1595.5 c 128,-1,2
 776 1562 776 1562 811 1562 c 0,3,4
 857 1562 857 1562 878 1629 c 1,5,-1
 982 1629 l 1,6,7
 957 1442 957 1442 822 1442 c 0,8,9
 787 1442 787 1442 696.5 1475.5 c 128,-1,10
 606 1509 606 1509 581 1509 c 0,11,12
 540 1509 540 1509 521 1443 c 1,13,-1
 418 1443 l 1,14,15
 432 1532 432 1532 472 1580.5 c 128,-1,16
 512 1629 512 1629 571 1629 c 0,0,1
1336 636 m 0,17,18
 1336 494 1336 494 1291.5 370.5 c 128,-1,19
 1247 247 1247 247 1166.5 155.5 c 128,-1,20
 1086 64 1086 64 966 11.5 c 128,-1,21
 846 -41 846 -41 702 -41 c 0,22,23
 418 -41 418 -41 243 148.5 c 128,-1,24
 68 338 68 338 68 646 c 0,25,26
 68 953 68 953 243 1143.5 c 128,-1,27
 418 1334 418 1334 701 1334 c 0,28,29
 989 1334 989 1334 1162.5 1143.5 c 128,-1,30
 1336 953 1336 953 1336 636 c 0,17,18
701 1186 m 0,31,32
 492 1186 492 1186 363.5 1037.5 c 128,-1,33
 235 889 235 889 235 646 c 128,-1,34
 235 403 235 403 363.5 254.5 c 128,-1,35
 492 106 492 106 702 106 c 0,36,37
 910 106 910 106 1039.5 253.5 c 128,-1,38
 1169 401 1169 401 1169 638 c 0,39,40
 1169 887 1169 887 1041 1036.5 c 128,-1,41
 913 1186 913 1186 701 1186 c 0,31,32
EndSplineSet
Validated: 1
EndChar

StartChar: multiply
Encoding: 215 215 155
Width: 1051
GlyphClass: 2
Flags: W
LayerCount: 2
Fore
SplineSet
788 768 m 1,0,-1
 876 679 l 1,1,-1
 614 415 l 1,2,-1
 878 151 l 1,3,-1
 788 61 l 1,4,-1
 523 326 l 1,5,-1
 262 62 l 1,6,-1
 170 151 l 1,7,-1
 436 415 l 1,8,-1
 173 679 l 1,9,-1
 262 767 l 1,10,-1
 523 506 l 1,11,-1
 788 768 l 1,0,-1
EndSplineSet
Validated: 1
EndChar

StartChar: Oslash
Encoding: 216 216 156
Width: 1400
GlyphClass: 2
Flags: W
LayerCount: 2
Fore
SplineSet
54 34 m 1,0,-1
 199 194 l 1,1,2
 62 388 62 388 62 648 c 0,3,4
 62 850 62 850 141.5 1006 c 128,-1,5
 221 1162 221 1162 365.5 1248 c 128,-1,6
 510 1334 510 1334 696 1334 c 0,7,8
 941 1334 941 1334 1111 1188 c 1,9,-1
 1267 1358 l 1,10,-1
 1339 1294 l 1,11,-1
 1178 1120 l 1,12,13
 1330 931 1330 931 1330 644 c 0,14,15
 1330 337 1330 337 1155 148 c 128,-1,16
 980 -41 980 -41 696 -41 c 0,17,18
 439 -41 439 -41 263 120 c 1,19,-1
 125 -31 l 1,20,-1
 54 34 l 1,0,-1
313 317 m 1,21,-1
 1004 1070 l 1,22,23
 874 1186 874 1186 696 1186 c 0,24,25
 487 1186 487 1186 358.5 1037.5 c 128,-1,26
 230 889 230 889 230 648 c 0,27,28
 230 460 230 460 313 317 c 1,21,-1
1068 997 m 1,29,-1
 371 240 l 1,30,31
 502 106 502 106 696 106 c 0,32,33
 906 106 906 106 1034.5 254 c 128,-1,34
 1163 402 1163 402 1163 644 c 0,35,36
 1163 848 1163 848 1068 997 c 1,29,-1
EndSplineSet
Validated: 1
EndChar

StartChar: Ugrave
Encoding: 217 217 157
Width: 1299
GlyphClass: 2
Flags: W
LayerCount: 2
Fore
SplineSet
600 1690 m 1,0,-1
 773 1424 l 1,1,-1
 665 1424 l 1,2,-1
 398 1690 l 1,3,-1
 600 1690 l 1,0,-1
994 1313 m 1,4,-1
 1162 1313 l 1,5,-1
 1162 391 l 2,6,7
 1162 193 1162 193 1024 76 c 128,-1,8
 886 -41 886 -41 655 -41 c 0,9,10
 422 -41 422 -41 288 75 c 128,-1,11
 154 191 154 191 154 391 c 2,12,-1
 154 1313 l 1,13,-1
 320 1313 l 1,14,-1
 320 391 l 2,15,16
 320 248 320 248 411.5 177 c 128,-1,17
 503 106 503 106 655 106 c 0,18,19
 813 106 813 106 903.5 182 c 128,-1,20
 994 258 994 258 994 391 c 2,21,-1
 994 1313 l 1,4,-1
EndSplineSet
Validated: 1
EndChar

StartChar: Uacute
Encoding: 218 218 158
Width: 1299
GlyphClass: 2
Flags: W
LayerCount: 2
Fore
SplineSet
696 1690 m 1,0,-1
 900 1690 l 1,1,-1
 632 1424 l 1,2,-1
 524 1424 l 1,3,-1
 696 1690 l 1,0,-1
994 1313 m 1,4,-1
 1162 1313 l 1,5,-1
 1162 391 l 2,6,7
 1162 193 1162 193 1024 76 c 128,-1,8
 886 -41 886 -41 655 -41 c 0,9,10
 422 -41 422 -41 288 75 c 128,-1,11
 154 191 154 191 154 391 c 2,12,-1
 154 1313 l 1,13,-1
 320 1313 l 1,14,-1
 320 391 l 2,15,16
 320 248 320 248 411.5 177 c 128,-1,17
 503 106 503 106 655 106 c 0,18,19
 813 106 813 106 903.5 182 c 128,-1,20
 994 258 994 258 994 391 c 2,21,-1
 994 1313 l 1,4,-1
EndSplineSet
Validated: 1
EndChar

StartChar: Ucircumflex
Encoding: 219 219 159
Width: 1299
GlyphClass: 2
Flags: W
LayerCount: 2
Fore
SplineSet
573 1690 m 1,0,-1
 743 1690 l 1,1,-1
 916 1419 l 1,2,-1
 803 1419 l 1,3,-1
 657 1592 l 1,4,-1
 515 1419 l 1,5,-1
 400 1419 l 1,6,-1
 573 1690 l 1,0,-1
994 1313 m 1,7,-1
 1162 1313 l 1,8,-1
 1162 391 l 2,9,10
 1162 193 1162 193 1024 76 c 128,-1,11
 886 -41 886 -41 655 -41 c 0,12,13
 422 -41 422 -41 288 75 c 128,-1,14
 154 191 154 191 154 391 c 2,15,-1
 154 1313 l 1,16,-1
 320 1313 l 1,17,-1
 320 391 l 2,18,19
 320 248 320 248 411.5 177 c 128,-1,20
 503 106 503 106 655 106 c 0,21,22
 813 106 813 106 903.5 182 c 128,-1,23
 994 258 994 258 994 391 c 2,24,-1
 994 1313 l 1,7,-1
EndSplineSet
Validated: 1
EndChar

StartChar: Yacute
Encoding: 221 221 161
Width: 1200
GlyphClass: 2
Flags: W
LayerCount: 2
Fore
SplineSet
657 1690 m 1,0,-1
 861 1690 l 1,1,-1
 593 1424 l 1,2,-1
 485 1424 l 1,3,-1
 657 1690 l 1,0,-1
696 515 m 1,4,-1
 696 0 l 1,5,-1
 529 0 l 1,6,-1
 529 515 l 1,7,-1
 24 1313 l 1,8,-1
 230 1313 l 1,9,-1
 616 673 l 1,10,-1
 990 1313 l 1,11,-1
 1190 1313 l 1,12,-1
 696 515 l 1,4,-1
EndSplineSet
Validated: 1
EndChar

StartChar: Thorn
Encoding: 222 222 162
Width: 1198
GlyphClass: 2
Flags: W
LayerCount: 2
Fore
SplineSet
331 341 m 1,0,-1
 331 0 l 1,1,-1
 163 0 l 1,2,-1
 163 1313 l 1,3,-1
 331 1313 l 1,4,-1
 331 1097 l 1,5,-1
 706 1097 l 2,6,7
 893 1097 893 1097 1001 995 c 128,-1,8
 1109 893 1109 893 1109 715 c 0,9,10
 1109 550 1109 550 1007 445.5 c 128,-1,11
 905 341 905 341 744 341 c 2,12,-1
 331 341 l 1,0,-1
331 487 m 1,13,-1
 680 487 l 2,14,15
 798 487 798 487 863.5 548.5 c 128,-1,16
 929 610 929 610 929 718 c 128,-1,17
 929 826 929 826 863.5 887 c 128,-1,18
 798 948 798 948 680 948 c 2,19,-1
 331 948 l 1,20,-1
 331 487 l 1,13,-1
EndSplineSet
Validated: 1
EndChar

StartChar: germandbls
Encoding: 223 223 163
Width: 1099
GlyphClass: 2
Flags: W
LayerCount: 2
Fore
SplineSet
529 768 m 1,0,1
 679 768 679 768 744 825 c 128,-1,2
 809 882 809 882 809 972 c 0,3,4
 809 1063 809 1063 738 1118.5 c 128,-1,5
 667 1174 667 1174 535 1174 c 0,6,7
 391 1174 391 1174 334.5 1108.5 c 128,-1,8
 278 1043 278 1043 278 918 c 2,9,-1
 278 0 l 1,10,-1
 120 0 l 1,11,-1
 120 958 l 2,12,13
 120 1117 120 1117 229 1213.5 c 128,-1,14
 338 1310 338 1310 536 1310 c 0,15,16
 735 1310 735 1310 851 1222 c 128,-1,17
 967 1134 967 1134 967 986 c 0,18,19
 967 936 967 936 954.5 893 c 128,-1,20
 942 850 942 850 927.5 824.5 c 128,-1,21
 913 799 913 799 888 774.5 c 128,-1,22
 863 750 863 750 850.5 741 c 128,-1,23
 838 732 838 732 818 720 c 1,24,25
 912 695 912 695 969.5 603 c 128,-1,26
 1027 511 1027 511 1027 421 c 0,27,28
 1027 305 1027 305 993 217.5 c 128,-1,29
 959 130 959 130 897 77.5 c 128,-1,30
 835 25 835 25 754 -0.5 c 128,-1,31
 673 -26 673 -26 574 -26 c 0,32,33
 539 -26 539 -26 479 -14 c 1,34,-1
 479 120 l 1,35,36
 546 115 546 115 558 115 c 0,37,38
 707 115 707 115 785.5 183 c 128,-1,39
 864 251 864 251 864 385 c 0,40,41
 864 520 864 520 784.5 578.5 c 128,-1,42
 705 637 705 637 558 637 c 2,43,-1
 529 637 l 1,44,-1
 529 768 l 1,0,1
EndSplineSet
Validated: 1
EndChar

StartChar: agrave
Encoding: 224 224 164
Width: 1000
GlyphClass: 2
Flags: W
LayerCount: 2
Fore
SplineSet
448 1332 m 1,0,-1
 621 1066 l 1,1,-1
 513 1066 l 1,2,-1
 246 1332 l 1,3,-1
 448 1332 l 1,0,-1
118 665 m 1,4,5
 120 738 120 738 144.5 794 c 128,-1,6
 169 850 169 850 205 882.5 c 128,-1,7
 241 915 241 915 292 935.5 c 128,-1,8
 343 956 343 956 391 963 c 128,-1,9
 439 970 439 970 494 970 c 0,10,11
 669 970 669 970 759.5 904.5 c 128,-1,12
 850 839 850 839 850 713 c 2,13,-1
 850 158 l 2,14,15
 850 123 850 123 871 103.5 c 128,-1,16
 892 84 892 84 931 84 c 0,17,18
 947 84 947 84 962 89 c 1,19,-1
 962 -25 l 1,20,21
 903 -41 903 -41 860 -41 c 0,22,23
 787 -41 787 -41 750.5 -7.5 c 128,-1,24
 714 26 714 26 706 97 c 1,25,26
 627 24 627 24 550.5 -8.5 c 128,-1,27
 474 -41 474 -41 385 -41 c 0,28,29
 242 -41 242 -41 159 34 c 128,-1,30
 76 109 76 109 76 238 c 0,31,32
 76 396 76 396 186 462 c 0,33,34
 262 508 262 508 445 534 c 0,35,36
 471 537 471 537 544 547 c 0,37,38
 633 558 633 558 667 581 c 128,-1,39
 701 604 701 604 701 652 c 2,40,-1
 701 691 l 2,41,42
 701 758 701 758 646 795 c 128,-1,43
 591 832 591 832 490 832 c 0,44,45
 384 832 384 832 331 791.5 c 128,-1,46
 278 751 278 751 269 665 c 1,47,-1
 118 665 l 1,4,5
418 90 m 0,48,49
 542 90 542 90 621.5 156 c 128,-1,50
 701 222 701 222 701 298 c 2,51,-1
 701 466 l 1,52,53
 662 448 662 448 594.5 436.5 c 128,-1,54
 527 425 527 425 468.5 416 c 128,-1,55
 410 407 410 407 354.5 390.5 c 128,-1,56
 299 374 299 374 266 337 c 128,-1,57
 233 300 233 300 233 241 c 0,58,59
 233 170 233 170 281.5 130 c 128,-1,60
 330 90 330 90 418 90 c 0,48,49
EndSplineSet
Validated: 1
EndChar

StartChar: aacute
Encoding: 225 225 165
Width: 1000
GlyphClass: 2
Flags: W
LayerCount: 2
Fore
SplineSet
544 1330 m 1,0,-1
 748 1330 l 1,1,-1
 480 1064 l 1,2,-1
 372 1064 l 1,3,-1
 544 1330 l 1,0,-1
118 665 m 1,4,5
 120 738 120 738 144.5 794 c 128,-1,6
 169 850 169 850 205 882.5 c 128,-1,7
 241 915 241 915 292 935.5 c 128,-1,8
 343 956 343 956 391 963 c 128,-1,9
 439 970 439 970 494 970 c 0,10,11
 669 970 669 970 759.5 904.5 c 128,-1,12
 850 839 850 839 850 713 c 2,13,-1
 850 158 l 2,14,15
 850 123 850 123 871 103.5 c 128,-1,16
 892 84 892 84 931 84 c 0,17,18
 947 84 947 84 962 89 c 1,19,-1
 962 -25 l 1,20,21
 903 -41 903 -41 860 -41 c 0,22,23
 787 -41 787 -41 750.5 -7.5 c 128,-1,24
 714 26 714 26 706 97 c 1,25,26
 627 24 627 24 550.5 -8.5 c 128,-1,27
 474 -41 474 -41 385 -41 c 0,28,29
 242 -41 242 -41 159 34 c 128,-1,30
 76 109 76 109 76 238 c 0,31,32
 76 396 76 396 186 462 c 0,33,34
 262 508 262 508 445 534 c 0,35,36
 471 537 471 537 544 547 c 0,37,38
 633 558 633 558 667 581 c 128,-1,39
 701 604 701 604 701 652 c 2,40,-1
 701 691 l 2,41,42
 701 758 701 758 646 795 c 128,-1,43
 591 832 591 832 490 832 c 0,44,45
 384 832 384 832 331 791.5 c 128,-1,46
 278 751 278 751 269 665 c 1,47,-1
 118 665 l 1,4,5
418 90 m 0,48,49
 542 90 542 90 621.5 156 c 128,-1,50
 701 222 701 222 701 298 c 2,51,-1
 701 466 l 1,52,53
 662 448 662 448 594.5 436.5 c 128,-1,54
 527 425 527 425 468.5 416 c 128,-1,55
 410 407 410 407 354.5 390.5 c 128,-1,56
 299 374 299 374 266 337 c 128,-1,57
 233 300 233 300 233 241 c 0,58,59
 233 170 233 170 281.5 130 c 128,-1,60
 330 90 330 90 418 90 c 0,48,49
EndSplineSet
Validated: 1
EndChar

StartChar: acircumflex
Encoding: 226 226 166
Width: 1000
GlyphClass: 2
Flags: W
LayerCount: 2
Fore
SplineSet
411 1334 m 1,0,-1
 581 1334 l 1,1,-1
 754 1063 l 1,2,-1
 641 1063 l 1,3,-1
 495 1236 l 1,4,-1
 353 1063 l 1,5,-1
 238 1063 l 1,6,-1
 411 1334 l 1,0,-1
118 665 m 1,7,8
 120 738 120 738 144.5 794 c 128,-1,9
 169 850 169 850 205 882.5 c 128,-1,10
 241 915 241 915 292 935.5 c 128,-1,11
 343 956 343 956 391 963 c 128,-1,12
 439 970 439 970 494 970 c 0,13,14
 669 970 669 970 759.5 904.5 c 128,-1,15
 850 839 850 839 850 713 c 2,16,-1
 850 158 l 2,17,18
 850 123 850 123 871 103.5 c 128,-1,19
 892 84 892 84 931 84 c 0,20,21
 947 84 947 84 962 89 c 1,22,-1
 962 -25 l 1,23,24
 903 -41 903 -41 860 -41 c 0,25,26
 787 -41 787 -41 750.5 -7.5 c 128,-1,27
 714 26 714 26 706 97 c 1,28,29
 627 24 627 24 550.5 -8.5 c 128,-1,30
 474 -41 474 -41 385 -41 c 0,31,32
 242 -41 242 -41 159 34 c 128,-1,33
 76 109 76 109 76 238 c 0,34,35
 76 396 76 396 186 462 c 0,36,37
 262 508 262 508 445 534 c 0,38,39
 471 537 471 537 544 547 c 0,40,41
 633 558 633 558 667 581 c 128,-1,42
 701 604 701 604 701 652 c 2,43,-1
 701 691 l 2,44,45
 701 758 701 758 646 795 c 128,-1,46
 591 832 591 832 490 832 c 0,47,48
 384 832 384 832 331 791.5 c 128,-1,49
 278 751 278 751 269 665 c 1,50,-1
 118 665 l 1,7,8
418 90 m 0,51,52
 542 90 542 90 621.5 156 c 128,-1,53
 701 222 701 222 701 298 c 2,54,-1
 701 466 l 1,55,56
 662 448 662 448 594.5 436.5 c 128,-1,57
 527 425 527 425 468.5 416 c 128,-1,58
 410 407 410 407 354.5 390.5 c 128,-1,59
 299 374 299 374 266 337 c 128,-1,60
 233 300 233 300 233 241 c 0,61,62
 233 170 233 170 281.5 130 c 128,-1,63
 330 90 330 90 418 90 c 0,51,52
EndSplineSet
Validated: 1
EndChar

StartChar: atilde
Encoding: 227 227 167
Width: 1000
GlyphClass: 2
Flags: W
LayerCount: 2
Fore
SplineSet
367 1266 m 0,0,1
 413 1266 413 1266 492.5 1232.5 c 128,-1,2
 572 1199 572 1199 607 1199 c 0,3,4
 653 1199 653 1199 674 1266 c 1,5,-1
 778 1266 l 1,6,7
 753 1079 753 1079 618 1079 c 0,8,9
 583 1079 583 1079 492.5 1112.5 c 128,-1,10
 402 1146 402 1146 377 1146 c 0,11,12
 336 1146 336 1146 317 1080 c 1,13,-1
 214 1080 l 1,14,15
 228 1169 228 1169 268 1217.5 c 128,-1,16
 308 1266 308 1266 367 1266 c 0,0,1
118 665 m 1,17,18
 120 738 120 738 144.5 794 c 128,-1,19
 169 850 169 850 205 882.5 c 128,-1,20
 241 915 241 915 292 935.5 c 128,-1,21
 343 956 343 956 391 963 c 128,-1,22
 439 970 439 970 494 970 c 0,23,24
 669 970 669 970 759.5 904.5 c 128,-1,25
 850 839 850 839 850 713 c 2,26,-1
 850 158 l 2,27,28
 850 123 850 123 871 103.5 c 128,-1,29
 892 84 892 84 931 84 c 0,30,31
 947 84 947 84 962 89 c 1,32,-1
 962 -25 l 1,33,34
 903 -41 903 -41 860 -41 c 0,35,36
 787 -41 787 -41 750.5 -7.5 c 128,-1,37
 714 26 714 26 706 97 c 1,38,39
 627 24 627 24 550.5 -8.5 c 128,-1,40
 474 -41 474 -41 385 -41 c 0,41,42
 242 -41 242 -41 159 34 c 128,-1,43
 76 109 76 109 76 238 c 0,44,45
 76 396 76 396 186 462 c 0,46,47
 262 508 262 508 445 534 c 0,48,49
 471 537 471 537 544 547 c 0,50,51
 633 558 633 558 667 581 c 128,-1,52
 701 604 701 604 701 652 c 2,53,-1
 701 691 l 2,54,55
 701 758 701 758 646 795 c 128,-1,56
 591 832 591 832 490 832 c 0,57,58
 384 832 384 832 331 791.5 c 128,-1,59
 278 751 278 751 269 665 c 1,60,-1
 118 665 l 1,17,18
418 90 m 0,61,62
 542 90 542 90 621.5 156 c 128,-1,63
 701 222 701 222 701 298 c 2,64,-1
 701 466 l 1,65,66
 662 448 662 448 594.5 436.5 c 128,-1,67
 527 425 527 425 468.5 416 c 128,-1,68
 410 407 410 407 354.5 390.5 c 128,-1,69
 299 374 299 374 266 337 c 128,-1,70
 233 300 233 300 233 241 c 0,71,72
 233 170 233 170 281.5 130 c 128,-1,73
 330 90 330 90 418 90 c 0,61,62
EndSplineSet
Validated: 1
EndChar

StartChar: aring
Encoding: 229 229 169
Width: 1000
GlyphClass: 2
Flags: W
LayerCount: 2
Fore
SplineSet
494 1357 m 0,0,1
 560 1357 560 1357 606 1311 c 128,-1,2
 652 1265 652 1265 652 1199 c 0,3,4
 652 1134 652 1134 605.5 1088 c 128,-1,5
 559 1042 559 1042 494 1042 c 0,6,7
 430 1042 430 1042 383 1089 c 128,-1,8
 336 1136 336 1136 336 1200 c 128,-1,9
 336 1264 336 1264 383 1310.5 c 128,-1,10
 430 1357 430 1357 494 1357 c 0,0,1
494 1278 m 0,11,12
 462 1278 462 1278 438.5 1255 c 128,-1,13
 415 1232 415 1232 415 1200 c 128,-1,14
 415 1168 415 1168 438.5 1144.5 c 128,-1,15
 462 1121 462 1121 494 1121 c 128,-1,16
 526 1121 526 1121 549.5 1144 c 128,-1,17
 573 1167 573 1167 573 1199 c 0,18,19
 573 1232 573 1232 550.5 1255 c 128,-1,20
 528 1278 528 1278 494 1278 c 0,11,12
118 665 m 1,21,22
 120 738 120 738 144.5 794 c 128,-1,23
 169 850 169 850 205 882.5 c 128,-1,24
 241 915 241 915 292 935.5 c 128,-1,25
 343 956 343 956 391 963 c 128,-1,26
 439 970 439 970 494 970 c 0,27,28
 669 970 669 970 759.5 904.5 c 128,-1,29
 850 839 850 839 850 713 c 2,30,-1
 850 158 l 2,31,32
 850 123 850 123 871 103.5 c 128,-1,33
 892 84 892 84 931 84 c 0,34,35
 947 84 947 84 962 89 c 1,36,-1
 962 -25 l 1,37,38
 903 -41 903 -41 860 -41 c 0,39,40
 787 -41 787 -41 750.5 -7.5 c 128,-1,41
 714 26 714 26 706 97 c 1,42,43
 627 24 627 24 550.5 -8.5 c 128,-1,44
 474 -41 474 -41 385 -41 c 0,45,46
 242 -41 242 -41 159 34 c 128,-1,47
 76 109 76 109 76 238 c 0,48,49
 76 396 76 396 186 462 c 0,50,51
 262 508 262 508 445 534 c 0,52,53
 471 537 471 537 544 547 c 0,54,55
 633 558 633 558 667 581 c 128,-1,56
 701 604 701 604 701 652 c 2,57,-1
 701 691 l 2,58,59
 701 758 701 758 646 795 c 128,-1,60
 591 832 591 832 490 832 c 0,61,62
 384 832 384 832 331 791.5 c 128,-1,63
 278 751 278 751 269 665 c 1,64,-1
 118 665 l 1,21,22
418 90 m 0,65,66
 542 90 542 90 621.5 156 c 128,-1,67
 701 222 701 222 701 298 c 2,68,-1
 701 466 l 1,69,70
 662 448 662 448 594.5 436.5 c 128,-1,71
 527 425 527 425 468.5 416 c 128,-1,72
 410 407 410 407 354.5 390.5 c 128,-1,73
 299 374 299 374 266 337 c 128,-1,74
 233 300 233 300 233 241 c 0,75,76
 233 170 233 170 281.5 130 c 128,-1,77
 330 90 330 90 418 90 c 0,65,66
EndSplineSet
Validated: 1
EndChar

StartChar: ae
Encoding: 230 230 170
Width: 1599
GlyphClass: 2
Flags: W
LayerCount: 2
Fore
SplineSet
826 421 m 1,0,1
 828 345 828 345 847 286.5 c 128,-1,2
 866 228 866 228 894 193 c 128,-1,3
 922 158 922 158 959.5 135.5 c 128,-1,4
 997 113 997 113 1032 105 c 128,-1,5
 1067 97 1067 97 1104 97 c 0,6,7
 1285 97 1285 97 1351 286 c 1,8,-1
 1502 286 l 1,9,10
 1474 133 1474 133 1367.5 46 c 128,-1,11
 1261 -41 1261 -41 1102 -41 c 0,12,13
 997 -41 997 -41 913 -2 c 128,-1,14
 829 37 829 37 781 108 c 1,15,16
 767 132 767 132 752 156 c 1,17,18
 651 52 651 52 560 5.5 c 128,-1,19
 469 -41 469 -41 364 -41 c 0,20,21
 226 -41 226 -41 143.5 35 c 128,-1,22
 61 111 61 111 61 238 c 0,23,24
 61 307 61 307 84.5 358 c 128,-1,25
 108 409 108 409 145.5 441 c 128,-1,26
 183 473 183 473 246 494.5 c 128,-1,27
 309 516 309 516 373.5 526.5 c 128,-1,28
 438 537 438 537 529 545 c 0,29,30
 621 554 621 554 653.5 576.5 c 128,-1,31
 686 599 686 599 686 652 c 2,32,-1
 686 691 l 2,33,34
 686 759 686 759 631.5 795.5 c 128,-1,35
 577 832 577 832 473 832 c 128,-1,36
 369 832 369 832 316 791.5 c 128,-1,37
 263 751 263 751 254 665 c 1,38,-1
 103 665 l 1,39,40
 106 738 106 738 130.5 794 c 128,-1,41
 155 850 155 850 191 882.5 c 128,-1,42
 227 915 227 915 277.5 935.5 c 128,-1,43
 328 956 328 956 376 963 c 128,-1,44
 424 970 424 970 478 970 c 0,45,46
 708 970 708 970 792 823 c 1,47,48
 841 891 841 891 924 930.5 c 128,-1,49
 1007 970 1007 970 1104 970 c 0,50,51
 1234 970 1234 970 1335.5 903.5 c 128,-1,52
 1437 837 1437 837 1483 722 c 1,53,54
 1522 621 1522 621 1522 421 c 1,55,-1
 826 421 l 1,0,1
398 90 m 0,56,57
 465 90 465 90 523 114 c 128,-1,58
 581 138 581 138 614.5 171.5 c 128,-1,59
 648 205 648 205 667 235.5 c 128,-1,60
 686 266 686 266 686 283 c 2,61,-1
 686 464 l 1,62,63
 640 444 640 444 570 431.5 c 128,-1,64
 500 419 500 419 443 411 c 128,-1,65
 386 403 386 403 332.5 387.5 c 128,-1,66
 279 372 279 372 248.5 336 c 128,-1,67
 218 300 218 300 218 241 c 0,68,69
 218 171 218 171 266 130.5 c 128,-1,70
 314 90 314 90 398 90 c 0,56,57
830 544 m 1,71,-1
 1358 544 l 1,72,73
 1358 672 1358 672 1286 752 c 128,-1,74
 1214 832 1214 832 1099 832 c 0,75,76
 986 832 986 832 912.5 753.5 c 128,-1,77
 839 675 839 675 830 544 c 1,71,-1
EndSplineSet
Validated: 1
EndChar

StartChar: ccedilla
Encoding: 231 231 171
Width: 900
GlyphClass: 2
Flags: W
LayerCount: 2
Fore
SplineSet
406 -38 m 1,0,1
 336 -25 336 -25 280 5 c 128,-1,2
 224 35 224 35 188 71.5 c 128,-1,3
 152 108 152 108 125.5 155.5 c 128,-1,4
 99 203 99 203 86 243.5 c 128,-1,5
 73 284 73 284 65.5 331 c 128,-1,6
 58 378 58 378 56.5 403.5 c 128,-1,7
 55 429 55 429 55 456 c 0,8,9
 55 690 55 690 169.5 830 c 128,-1,10
 284 970 284 970 475 970 c 0,11,12
 639 970 639 970 736.5 881.5 c 128,-1,13
 834 793 834 793 847 626 c 1,14,-1
 696 626 l 1,15,16
 683 725 683 725 625.5 778.5 c 128,-1,17
 568 832 568 832 473 832 c 0,18,19
 351 832 351 832 281.5 732 c 128,-1,20
 212 632 212 632 212 454 c 0,21,22
 212 286 212 286 282.5 191 c 128,-1,23
 353 96 353 96 478 96 c 0,24,25
 669 96 669 96 708 324 c 1,26,-1
 859 324 l 1,27,28
 849 155 849 155 745 57 c 128,-1,29
 641 -41 641 -41 475 -41 c 1,30,-1
 451 -101 l 1,31,32
 478 -97 478 -97 502 -97 c 0,33,34
 570 -97 570 -97 607 -129 c 128,-1,35
 644 -161 644 -161 644 -218 c 0,36,37
 644 -295 644 -295 584 -340 c 128,-1,38
 524 -385 524 -385 422 -385 c 0,39,40
 371 -385 371 -385 328 -373.5 c 128,-1,41
 285 -362 285 -362 198 -326 c 1,42,-1
 235 -252 l 1,43,44
 270 -271 270 -271 319 -291.5 c 128,-1,45
 368 -312 368 -312 413 -312 c 0,46,47
 454 -312 454 -312 481.5 -288.5 c 128,-1,48
 509 -265 509 -265 509 -230 c 0,49,50
 509 -200 509 -200 487 -181.5 c 128,-1,51
 465 -163 465 -163 427 -163 c 0,52,53
 402 -163 402 -163 371 -178 c 1,54,-1
 349 -166 l 1,55,-1
 406 -38 l 1,0,1
EndSplineSet
Validated: 1
EndChar

StartChar: egrave
Encoding: 232 232 172
Width: 1000
GlyphClass: 2
Flags: W
LayerCount: 2
Fore
SplineSet
454 1332 m 1,0,-1
 627 1066 l 1,1,-1
 519 1066 l 1,2,-1
 252 1332 l 1,3,-1
 454 1332 l 1,0,-1
924 421 m 1,4,-1
 228 421 l 1,5,6
 230 350 230 350 240.5 305 c 128,-1,7
 251 260 251 260 278 220 c 1,8,9
 356 97 356 97 506 97 c 0,10,11
 688 97 688 97 752 286 c 1,12,-1
 904 286 l 1,13,14
 875 133 875 133 768.5 46 c 128,-1,15
 662 -41 662 -41 500 -41 c 0,16,17
 301 -41 301 -41 186.5 92.5 c 128,-1,18
 72 226 72 226 72 458 c 0,19,20
 72 691 72 691 189.5 830.5 c 128,-1,21
 307 970 307 970 504 970 c 0,22,23
 636 970 636 970 737.5 904 c 128,-1,24
 839 838 839 838 886 722 c 1,25,26
 924 620 924 620 924 421 c 1,4,-1
233 544 m 1,27,-1
 761 544 l 1,28,29
 763 547 763 547 763 554 c 0,30,31
 763 671 763 671 688 751.5 c 128,-1,32
 613 832 613 832 502 832 c 0,33,34
 388 832 388 832 315 753.5 c 128,-1,35
 242 675 242 675 233 544 c 1,27,-1
EndSplineSet
Validated: 1
EndChar

StartChar: eacute
Encoding: 233 233 173
Width: 1000
GlyphClass: 2
Flags: W
LayerCount: 2
Fore
SplineSet
554 1330 m 1,0,-1
 758 1330 l 1,1,-1
 490 1064 l 1,2,-1
 382 1064 l 1,3,-1
 554 1330 l 1,0,-1
924 421 m 1,4,-1
 228 421 l 1,5,6
 230 350 230 350 240.5 305 c 128,-1,7
 251 260 251 260 278 220 c 1,8,9
 356 97 356 97 506 97 c 0,10,11
 688 97 688 97 752 286 c 1,12,-1
 904 286 l 1,13,14
 875 133 875 133 768.5 46 c 128,-1,15
 662 -41 662 -41 500 -41 c 0,16,17
 301 -41 301 -41 186.5 92.5 c 128,-1,18
 72 226 72 226 72 458 c 0,19,20
 72 691 72 691 189.5 830.5 c 128,-1,21
 307 970 307 970 504 970 c 0,22,23
 636 970 636 970 737.5 904 c 128,-1,24
 839 838 839 838 886 722 c 1,25,26
 924 620 924 620 924 421 c 1,4,-1
233 544 m 1,27,-1
 761 544 l 1,28,29
 763 547 763 547 763 554 c 0,30,31
 763 671 763 671 688 751.5 c 128,-1,32
 613 832 613 832 502 832 c 0,33,34
 388 832 388 832 315 753.5 c 128,-1,35
 242 675 242 675 233 544 c 1,27,-1
EndSplineSet
Validated: 1
EndChar

StartChar: ecircumflex
Encoding: 234 234 174
Width: 1000
GlyphClass: 2
Flags: W
LayerCount: 2
Fore
SplineSet
430 1336 m 1,0,-1
 600 1336 l 1,1,-1
 773 1065 l 1,2,-1
 660 1065 l 1,3,-1
 514 1238 l 1,4,-1
 372 1065 l 1,5,-1
 257 1065 l 1,6,-1
 430 1336 l 1,0,-1
924 421 m 1,7,-1
 228 421 l 1,8,9
 230 350 230 350 240.5 305 c 128,-1,10
 251 260 251 260 278 220 c 1,11,12
 356 97 356 97 506 97 c 0,13,14
 688 97 688 97 752 286 c 1,15,-1
 904 286 l 1,16,17
 875 133 875 133 768.5 46 c 128,-1,18
 662 -41 662 -41 500 -41 c 0,19,20
 301 -41 301 -41 186.5 92.5 c 128,-1,21
 72 226 72 226 72 458 c 0,22,23
 72 691 72 691 189.5 830.5 c 128,-1,24
 307 970 307 970 504 970 c 0,25,26
 636 970 636 970 737.5 904 c 128,-1,27
 839 838 839 838 886 722 c 1,28,29
 924 620 924 620 924 421 c 1,7,-1
233 544 m 1,30,-1
 761 544 l 1,31,32
 763 547 763 547 763 554 c 0,33,34
 763 671 763 671 688 751.5 c 128,-1,35
 613 832 613 832 502 832 c 0,36,37
 388 832 388 832 315 753.5 c 128,-1,38
 242 675 242 675 233 544 c 1,30,-1
EndSplineSet
Validated: 1
EndChar

StartChar: igrave
Encoding: 236 236 176
Width: 500
GlyphClass: 2
Flags: W
LayerCount: 2
Fore
SplineSet
195 1328 m 1,0,-1
 368 1062 l 1,1,-1
 260 1062 l 1,2,-1
 -7 1328 l 1,3,-1
 195 1328 l 1,0,-1
319 943 m 1,4,-1
 319 0 l 1,5,-1
 169 0 l 1,6,-1
 169 943 l 1,7,-1
 319 943 l 1,4,-1
EndSplineSet
Validated: 1
EndChar

StartChar: iacute
Encoding: 237 237 177
Width: 500
GlyphClass: 2
Flags: W
LayerCount: 2
Fore
SplineSet
290 1330 m 1,0,-1
 494 1330 l 1,1,-1
 226 1064 l 1,2,-1
 118 1064 l 1,3,-1
 290 1330 l 1,0,-1
319 943 m 1,4,-1
 319 0 l 1,5,-1
 169 0 l 1,6,-1
 169 943 l 1,7,-1
 319 943 l 1,4,-1
EndSplineSet
Validated: 1
EndChar

StartChar: icircumflex
Encoding: 238 238 178
Width: 500
GlyphClass: 2
Flags: W
LayerCount: 2
Fore
SplineSet
161 1334 m 1,0,-1
 331 1334 l 1,1,-1
 504 1063 l 1,2,-1
 391 1063 l 1,3,-1
 245 1236 l 1,4,-1
 103 1063 l 1,5,-1
 -12 1063 l 1,6,-1
 161 1334 l 1,0,-1
319 943 m 1,7,-1
 319 0 l 1,8,-1
 169 0 l 1,9,-1
 169 943 l 1,10,-1
 319 943 l 1,7,-1
EndSplineSet
Validated: 1
EndChar

StartChar: eth
Encoding: 240 240 180
Width: 1000
GlyphClass: 2
Flags: W
LayerCount: 2
Fore
SplineSet
65 464 m 0,0,1
 65 579 65 579 91 670 c 128,-1,2
 117 761 117 761 157.5 815.5 c 128,-1,3
 198 870 198 870 251.5 905.5 c 128,-1,4
 305 941 305 941 355.5 954 c 128,-1,5
 406 967 406 967 457 967 c 0,6,7
 498 967 498 967 571 943 c 1,8,9
 500 1014 500 1014 394 1104 c 1,10,-1
 220 1022 l 1,11,-1
 155 1092 l 1,12,-1
 307 1164 l 1,13,14
 261 1201 261 1201 161 1258 c 1,15,-1
 240 1337 l 1,16,17
 306 1310 306 1310 439 1224 c 1,18,-1
 614 1306 l 1,19,-1
 686 1238 l 1,20,-1
 523 1164 l 1,21,22
 559 1137 559 1137 586 1115.5 c 128,-1,23
 613 1094 613 1094 657 1052.5 c 128,-1,24
 701 1011 701 1011 733.5 972 c 128,-1,25
 766 933 766 933 802.5 875.5 c 128,-1,26
 839 818 839 818 862.5 759 c 128,-1,27
 886 700 886 700 902 623.5 c 128,-1,28
 918 547 918 547 918 466 c 0,29,30
 918 223 918 223 806.5 91 c 128,-1,31
 695 -41 695 -41 492 -41 c 0,32,33
 288 -41 288 -41 176.5 91 c 128,-1,34
 65 223 65 223 65 464 c 0,0,1
492 832 m 128,-1,36
 366 832 366 832 293.5 733 c 128,-1,37
 221 634 221 634 221 464 c 128,-1,38
 221 294 221 294 293.5 195.5 c 128,-1,39
 366 97 366 97 492 97 c 0,40,41
 616 97 616 97 688.5 194.5 c 128,-1,42
 761 292 761 292 761 458 c 0,43,44
 761 635 761 635 689.5 733.5 c 128,-1,35
 618 832 618 832 492 832 c 128,-1,36
EndSplineSet
Validated: 1
EndChar

StartChar: ntilde
Encoding: 241 241 181
Width: 1000
GlyphClass: 2
Flags: W
LayerCount: 2
Fore
SplineSet
372 1266 m 0,0,1
 418 1266 418 1266 497.5 1232.5 c 128,-1,2
 577 1199 577 1199 612 1199 c 0,3,4
 658 1199 658 1199 679 1266 c 1,5,-1
 783 1266 l 1,6,7
 758 1079 758 1079 623 1079 c 0,8,9
 588 1079 588 1079 497.5 1112.5 c 128,-1,10
 407 1146 407 1146 382 1146 c 0,11,12
 341 1146 341 1146 322 1080 c 1,13,-1
 219 1080 l 1,14,15
 233 1169 233 1169 273 1217.5 c 128,-1,16
 313 1266 313 1266 372 1266 c 0,0,1
126 943 m 1,17,-1
 264 943 l 1,18,-1
 264 785 l 1,19,20
 327 884 327 884 399.5 927 c 128,-1,21
 472 970 472 970 578 970 c 0,22,23
 714 970 714 970 795 900 c 128,-1,24
 876 830 876 830 876 713 c 2,25,-1
 876 0 l 1,26,-1
 727 0 l 1,27,-1
 727 653 l 2,28,29
 727 739 727 739 674.5 789 c 128,-1,30
 622 839 622 839 533 839 c 0,31,32
 417 839 417 839 347 752 c 128,-1,33
 277 665 277 665 277 521 c 2,34,-1
 277 0 l 1,35,-1
 126 0 l 1,36,-1
 126 943 l 1,17,-1
EndSplineSet
Validated: 1
EndChar

StartChar: ograve
Encoding: 242 242 182
Width: 1000
GlyphClass: 2
Flags: W
LayerCount: 2
Fore
SplineSet
439 1334 m 1,0,-1
 612 1068 l 1,1,-1
 504 1068 l 1,2,-1
 237 1334 l 1,3,-1
 439 1334 l 1,0,-1
490 970 m 0,4,5
 693 970 693 970 805.5 835.5 c 128,-1,6
 918 701 918 701 918 457 c 0,7,8
 918 225 918 225 804 92 c 128,-1,9
 690 -41 690 -41 492 -41 c 0,10,11
 291 -41 291 -41 178 93 c 128,-1,12
 65 227 65 227 65 464 c 128,-1,13
 65 701 65 701 178.5 835.5 c 128,-1,14
 292 970 292 970 490 970 c 0,4,5
492 832 m 128,-1,16
 366 832 366 832 293.5 733 c 128,-1,17
 221 634 221 634 221 464 c 0,18,19
 221 293 221 293 293.5 195 c 128,-1,20
 366 97 366 97 492 97 c 0,21,22
 616 97 616 97 688.5 194.5 c 128,-1,23
 761 292 761 292 761 458 c 0,24,25
 761 635 761 635 689.5 733.5 c 128,-1,15
 618 832 618 832 492 832 c 128,-1,16
EndSplineSet
Validated: 1
EndChar

StartChar: oacute
Encoding: 243 243 183
Width: 1000
GlyphClass: 2
Flags: W
LayerCount: 2
Fore
SplineSet
536 1332 m 1,0,-1
 740 1332 l 1,1,-1
 472 1066 l 1,2,-1
 364 1066 l 1,3,-1
 536 1332 l 1,0,-1
490 970 m 0,4,5
 693 970 693 970 805.5 835.5 c 128,-1,6
 918 701 918 701 918 457 c 0,7,8
 918 225 918 225 804 92 c 128,-1,9
 690 -41 690 -41 492 -41 c 0,10,11
 291 -41 291 -41 178 93 c 128,-1,12
 65 227 65 227 65 464 c 128,-1,13
 65 701 65 701 178.5 835.5 c 128,-1,14
 292 970 292 970 490 970 c 0,4,5
492 832 m 128,-1,16
 366 832 366 832 293.5 733 c 128,-1,17
 221 634 221 634 221 464 c 0,18,19
 221 293 221 293 293.5 195 c 128,-1,20
 366 97 366 97 492 97 c 0,21,22
 616 97 616 97 688.5 194.5 c 128,-1,23
 761 292 761 292 761 458 c 0,24,25
 761 635 761 635 689.5 733.5 c 128,-1,15
 618 832 618 832 492 832 c 128,-1,16
EndSplineSet
Validated: 1
EndChar

StartChar: ocircumflex
Encoding: 244 244 184
Width: 1000
GlyphClass: 2
Flags: W
LayerCount: 2
Fore
SplineSet
407 1336 m 1,0,-1
 577 1336 l 1,1,-1
 750 1065 l 1,2,-1
 637 1065 l 1,3,-1
 491 1238 l 1,4,-1
 349 1065 l 1,5,-1
 234 1065 l 1,6,-1
 407 1336 l 1,0,-1
490 970 m 0,7,8
 693 970 693 970 805.5 835.5 c 128,-1,9
 918 701 918 701 918 457 c 0,10,11
 918 225 918 225 804 92 c 128,-1,12
 690 -41 690 -41 492 -41 c 0,13,14
 291 -41 291 -41 178 93 c 128,-1,15
 65 227 65 227 65 464 c 128,-1,16
 65 701 65 701 178.5 835.5 c 128,-1,17
 292 970 292 970 490 970 c 0,7,8
492 832 m 128,-1,19
 366 832 366 832 293.5 733 c 128,-1,20
 221 634 221 634 221 464 c 0,21,22
 221 293 221 293 293.5 195 c 128,-1,23
 366 97 366 97 492 97 c 0,24,25
 616 97 616 97 688.5 194.5 c 128,-1,26
 761 292 761 292 761 458 c 0,27,28
 761 635 761 635 689.5 733.5 c 128,-1,18
 618 832 618 832 492 832 c 128,-1,19
EndSplineSet
Validated: 1
EndChar

StartChar: otilde
Encoding: 245 245 185
Width: 1000
GlyphClass: 2
Flags: W
LayerCount: 2
Fore
SplineSet
361 1266 m 0,0,1
 407 1266 407 1266 486.5 1232.5 c 128,-1,2
 566 1199 566 1199 601 1199 c 0,3,4
 647 1199 647 1199 668 1266 c 1,5,-1
 772 1266 l 1,6,7
 747 1079 747 1079 612 1079 c 0,8,9
 577 1079 577 1079 486.5 1112.5 c 128,-1,10
 396 1146 396 1146 371 1146 c 0,11,12
 330 1146 330 1146 311 1080 c 1,13,-1
 208 1080 l 1,14,15
 222 1169 222 1169 262 1217.5 c 128,-1,16
 302 1266 302 1266 361 1266 c 0,0,1
490 970 m 0,17,18
 693 970 693 970 805.5 835.5 c 128,-1,19
 918 701 918 701 918 457 c 0,20,21
 918 225 918 225 804 92 c 128,-1,22
 690 -41 690 -41 492 -41 c 0,23,24
 291 -41 291 -41 178 93 c 128,-1,25
 65 227 65 227 65 464 c 128,-1,26
 65 701 65 701 178.5 835.5 c 128,-1,27
 292 970 292 970 490 970 c 0,17,18
492 832 m 128,-1,29
 366 832 366 832 293.5 733 c 128,-1,30
 221 634 221 634 221 464 c 0,31,32
 221 293 221 293 293.5 195 c 128,-1,33
 366 97 366 97 492 97 c 0,34,35
 616 97 616 97 688.5 194.5 c 128,-1,36
 761 292 761 292 761 458 c 0,37,38
 761 635 761 635 689.5 733.5 c 128,-1,28
 618 832 618 832 492 832 c 128,-1,29
EndSplineSet
Validated: 1
EndChar

StartChar: divide
Encoding: 247 247 187
Width: 1051
GlyphClass: 2
Flags: W
LayerCount: 2
Fore
SplineSet
961 487 m 1,0,-1
 961 362 l 1,1,-1
 90 362 l 1,2,-1
 90 487 l 1,3,-1
 961 487 l 1,0,-1
619 187 m 1,4,-1
 619 0 l 1,5,-1
 432 0 l 1,6,-1
 432 187 l 1,7,-1
 619 187 l 1,4,-1
619 850 m 1,8,-1
 619 662 l 1,9,-1
 432 662 l 1,10,-1
 432 850 l 1,11,-1
 619 850 l 1,8,-1
EndSplineSet
Validated: 1
EndChar

StartChar: oslash
Encoding: 248 248 188
Width: 1099
GlyphClass: 2
Flags: W
LayerCount: 2
Fore
SplineSet
953 919 m 1,0,-1
 839 792 l 1,1,2
 918 660 918 660 918 464 c 0,3,4
 918 227 918 227 805.5 93 c 128,-1,5
 693 -41 693 -41 493 -41 c 0,6,7
 307 -41 307 -41 199 70 c 1,8,-1
 90 -54 l 1,9,-1
 32 -4 l 1,10,-1
 151 130 l 1,11,12
 65 256 65 256 65 464 c 0,13,14
 65 701 65 701 178.5 835.5 c 128,-1,15
 292 970 292 970 492 970 c 0,16,17
 673 970 673 970 790 853 c 1,18,-1
 895 970 l 1,19,-1
 953 919 l 1,0,-1
730 667 m 1,20,-1
 300 184 l 1,21,22
 380 97 380 97 492 97 c 0,23,24
 617 97 617 97 689 195.5 c 128,-1,25
 761 294 761 294 761 464 c 0,26,27
 761 586 761 586 730 667 c 1,20,-1
259 254 m 1,28,-1
 689 738 l 1,29,30
 654 782 654 782 602.5 807 c 128,-1,31
 551 832 551 832 492 832 c 0,32,33
 366 832 366 832 293.5 733 c 128,-1,34
 221 634 221 634 221 464 c 0,35,36
 221 344 221 344 259 254 c 1,28,-1
EndSplineSet
Validated: 1
EndChar

StartChar: ugrave
Encoding: 249 249 189
Width: 1000
GlyphClass: 2
Flags: W
LayerCount: 2
Fore
SplineSet
436 1330 m 1,0,-1
 609 1064 l 1,1,-1
 501 1064 l 1,2,-1
 234 1330 l 1,3,-1
 436 1330 l 1,0,-1
868 0 m 1,4,-1
 732 0 l 1,5,-1
 732 132 l 1,6,7
 666 38 666 38 594 -1.5 c 128,-1,8
 522 -41 522 -41 418 -41 c 0,9,10
 280 -41 280 -41 199 29 c 128,-1,11
 118 99 118 99 118 216 c 2,12,-1
 118 943 l 1,13,-1
 266 943 l 1,14,-1
 266 276 l 2,15,16
 266 191 266 191 319 140.5 c 128,-1,17
 372 90 372 90 461 90 c 0,18,19
 578 90 578 90 648 177 c 128,-1,20
 718 264 718 264 718 408 c 2,21,-1
 718 943 l 1,22,-1
 868 943 l 1,23,-1
 868 0 l 1,4,-1
EndSplineSet
Validated: 1
EndChar

StartChar: uacute
Encoding: 250 250 190
Width: 1000
GlyphClass: 2
Flags: W
LayerCount: 2
Fore
SplineSet
532 1332 m 1,0,-1
 736 1332 l 1,1,-1
 468 1066 l 1,2,-1
 360 1066 l 1,3,-1
 532 1332 l 1,0,-1
868 0 m 1,4,-1
 732 0 l 1,5,-1
 732 132 l 1,6,7
 666 38 666 38 594 -1.5 c 128,-1,8
 522 -41 522 -41 418 -41 c 0,9,10
 280 -41 280 -41 199 29 c 128,-1,11
 118 99 118 99 118 216 c 2,12,-1
 118 943 l 1,13,-1
 266 943 l 1,14,-1
 266 276 l 2,15,16
 266 191 266 191 319 140.5 c 128,-1,17
 372 90 372 90 461 90 c 0,18,19
 578 90 578 90 648 177 c 128,-1,20
 718 264 718 264 718 408 c 2,21,-1
 718 943 l 1,22,-1
 868 943 l 1,23,-1
 868 0 l 1,4,-1
EndSplineSet
Validated: 1
EndChar

StartChar: ucircumflex
Encoding: 251 251 191
Width: 1000
GlyphClass: 2
Flags: W
LayerCount: 2
Fore
SplineSet
408 1336 m 1,0,-1
 578 1336 l 1,1,-1
 751 1065 l 1,2,-1
 638 1065 l 1,3,-1
 492 1238 l 1,4,-1
 350 1065 l 1,5,-1
 235 1065 l 1,6,-1
 408 1336 l 1,0,-1
868 0 m 1,7,-1
 732 0 l 1,8,-1
 732 132 l 1,9,10
 666 38 666 38 594 -1.5 c 128,-1,11
 522 -41 522 -41 418 -41 c 0,12,13
 280 -41 280 -41 199 29 c 128,-1,14
 118 99 118 99 118 216 c 2,15,-1
 118 943 l 1,16,-1
 266 943 l 1,17,-1
 266 276 l 2,18,19
 266 191 266 191 319 140.5 c 128,-1,20
 372 90 372 90 461 90 c 0,21,22
 578 90 578 90 648 177 c 128,-1,23
 718 264 718 264 718 408 c 2,24,-1
 718 943 l 1,25,-1
 868 943 l 1,26,-1
 868 0 l 1,7,-1
EndSplineSet
Validated: 1
EndChar

StartChar: yacute
Encoding: 253 253 193
Width: 900
GlyphClass: 2
Flags: W
LayerCount: 2
Fore
SplineSet
484 1330 m 1,0,-1
 688 1330 l 1,1,-1
 420 1064 l 1,2,-1
 312 1064 l 1,3,-1
 484 1330 l 1,0,-1
698 943 m 1,4,-1
 860 943 l 1,5,-1
 442 -198 l 1,6,7
 367 -392 367 -392 198 -392 c 0,8,9
 141 -392 141 -392 97 -370 c 1,10,-1
 97 -234 l 1,11,12
 149 -245 149 -245 176 -245 c 0,13,14
 224 -245 224 -245 251 -224.5 c 128,-1,15
 278 -204 278 -204 298 -154 c 2,16,-1
 355 -4 l 1,17,-1
 36 943 l 1,18,-1
 197 943 l 1,19,-1
 437 209 l 1,20,-1
 698 943 l 1,4,-1
EndSplineSet
Validated: 1
EndChar

StartChar: thorn
Encoding: 254 254 194
Width: 998
GlyphClass: 2
Flags: W
LayerCount: 2
Fore
SplineSet
97 -392 m 1,0,-1
 97 1285 l 1,1,-1
 247 1285 l 1,2,-1
 247 826 l 1,3,4
 296 895 296 895 371 932.5 c 128,-1,5
 446 970 446 970 536 970 c 0,6,7
 720 970 720 970 830 830 c 128,-1,8
 940 690 940 690 940 456 c 0,9,10
 940 230 940 230 829.5 94.5 c 128,-1,11
 719 -41 719 -41 536 -41 c 0,12,13
 445 -41 445 -41 375.5 -7.5 c 128,-1,14
 306 26 306 26 247 98 c 1,15,-1
 247 -392 l 1,16,-1
 97 -392 l 1,0,-1
509 830 m 0,17,18
 390 830 390 830 318.5 730.5 c 128,-1,19
 247 631 247 631 247 464 c 128,-1,20
 247 297 247 297 318.5 197.5 c 128,-1,21
 390 98 390 98 509 98 c 0,22,23
 632 98 632 98 707 198 c 128,-1,24
 782 298 782 298 782 458 c 0,25,26
 782 627 782 627 707.5 728.5 c 128,-1,27
 633 830 633 830 509 830 c 0,17,18
EndSplineSet
Validated: 1
EndChar

StartChar: Amacron
Encoding: 256 256 196
Width: 1200
GlyphClass: 2
Flags: W
LayerCount: 2
Fore
SplineSet
854 1568 m 1,0,-1
 854 1441 l 1,1,-1
 360 1441 l 1,2,-1
 360 1568 l 1,3,-1
 854 1568 l 1,0,-1
853 394 m 1,4,-1
 348 394 l 1,5,-1
 209 0 l 1,6,-1
 31 0 l 1,7,-1
 499 1313 l 1,8,-1
 715 1313 l 1,9,-1
 1176 0 l 1,10,-1
 989 0 l 1,11,-1
 853 394 l 1,4,-1
806 535 m 1,12,-1
 605 1133 l 1,13,-1
 389 535 l 1,14,-1
 806 535 l 1,12,-1
EndSplineSet
Validated: 1
EndChar

StartChar: amacron
Encoding: 257 257 197
Width: 1000
GlyphClass: 2
Flags: W
LayerCount: 2
Fore
SplineSet
742 1204 m 1,0,-1
 742 1077 l 1,1,-1
 248 1077 l 1,2,-1
 248 1204 l 1,3,-1
 742 1204 l 1,0,-1
118 665 m 1,4,5
 120 738 120 738 144.5 794 c 128,-1,6
 169 850 169 850 205 882.5 c 128,-1,7
 241 915 241 915 292 935.5 c 128,-1,8
 343 956 343 956 391 963 c 128,-1,9
 439 970 439 970 494 970 c 0,10,11
 669 970 669 970 759.5 904.5 c 128,-1,12
 850 839 850 839 850 713 c 2,13,-1
 850 158 l 2,14,15
 850 123 850 123 871 103.5 c 128,-1,16
 892 84 892 84 931 84 c 0,17,18
 947 84 947 84 962 89 c 1,19,-1
 962 -25 l 1,20,21
 903 -41 903 -41 860 -41 c 0,22,23
 787 -41 787 -41 750.5 -7.5 c 128,-1,24
 714 26 714 26 706 97 c 1,25,26
 627 24 627 24 550.5 -8.5 c 128,-1,27
 474 -41 474 -41 385 -41 c 0,28,29
 242 -41 242 -41 159 34 c 128,-1,30
 76 109 76 109 76 238 c 0,31,32
 76 396 76 396 186 462 c 0,33,34
 262 508 262 508 445 534 c 0,35,36
 471 537 471 537 544 547 c 0,37,38
 633 558 633 558 667 581 c 128,-1,39
 701 604 701 604 701 652 c 2,40,-1
 701 691 l 2,41,42
 701 758 701 758 646 795 c 128,-1,43
 591 832 591 832 490 832 c 0,44,45
 384 832 384 832 331 791.5 c 128,-1,46
 278 751 278 751 269 665 c 1,47,-1
 118 665 l 1,4,5
418 90 m 0,48,49
 542 90 542 90 621.5 156 c 128,-1,50
 701 222 701 222 701 298 c 2,51,-1
 701 466 l 1,52,53
 662 448 662 448 594.5 436.5 c 128,-1,54
 527 425 527 425 468.5 416 c 128,-1,55
 410 407 410 407 354.5 390.5 c 128,-1,56
 299 374 299 374 266 337 c 128,-1,57
 233 300 233 300 233 241 c 0,58,59
 233 170 233 170 281.5 130 c 128,-1,60
 330 90 330 90 418 90 c 0,48,49
EndSplineSet
Validated: 1
EndChar

StartChar: Abreve
Encoding: 258 258 198
Width: 1200
GlyphClass: 2
Flags: W
LayerCount: 2
Fore
SplineSet
336 1678 m 1,0,-1
 443 1678 l 1,1,2
 456 1559 456 1559 609 1559 c 0,3,4
 682 1559 682 1559 725 1590 c 128,-1,5
 768 1621 768 1621 773 1678 c 1,6,-1
 879 1678 l 1,7,8
 861 1435 861 1435 605 1435 c 0,9,10
 569 1435 569 1435 535 1441 c 128,-1,11
 501 1447 501 1447 464.5 1463.5 c 128,-1,12
 428 1480 428 1480 401 1506 c 128,-1,13
 374 1532 374 1532 356 1576.5 c 128,-1,14
 338 1621 338 1621 336 1678 c 1,0,-1
853 394 m 1,15,-1
 348 394 l 1,16,-1
 209 0 l 1,17,-1
 31 0 l 1,18,-1
 499 1313 l 1,19,-1
 715 1313 l 1,20,-1
 1176 0 l 1,21,-1
 989 0 l 1,22,-1
 853 394 l 1,15,-1
806 535 m 1,23,-1
 605 1133 l 1,24,-1
 389 535 l 1,25,-1
 806 535 l 1,23,-1
EndSplineSet
Validated: 1
EndChar

StartChar: abreve
Encoding: 259 259 199
Width: 1000
GlyphClass: 2
Flags: W
LayerCount: 2
Fore
SplineSet
224 1322 m 1,0,-1
 331 1322 l 1,1,2
 344 1203 344 1203 497 1203 c 0,3,4
 570 1203 570 1203 613 1234 c 128,-1,5
 656 1265 656 1265 661 1322 c 1,6,-1
 767 1322 l 1,7,8
 749 1079 749 1079 493 1079 c 0,9,10
 457 1079 457 1079 423 1085 c 128,-1,11
 389 1091 389 1091 352.5 1107.5 c 128,-1,12
 316 1124 316 1124 289 1150 c 128,-1,13
 262 1176 262 1176 244 1220.5 c 128,-1,14
 226 1265 226 1265 224 1322 c 1,0,-1
118 665 m 1,15,16
 120 738 120 738 144.5 794 c 128,-1,17
 169 850 169 850 205 882.5 c 128,-1,18
 241 915 241 915 292 935.5 c 128,-1,19
 343 956 343 956 391 963 c 128,-1,20
 439 970 439 970 494 970 c 0,21,22
 669 970 669 970 759.5 904.5 c 128,-1,23
 850 839 850 839 850 713 c 2,24,-1
 850 158 l 2,25,26
 850 123 850 123 871 103.5 c 128,-1,27
 892 84 892 84 931 84 c 0,28,29
 947 84 947 84 962 89 c 1,30,-1
 962 -25 l 1,31,32
 903 -41 903 -41 860 -41 c 0,33,34
 787 -41 787 -41 750.5 -7.5 c 128,-1,35
 714 26 714 26 706 97 c 1,36,37
 627 24 627 24 550.5 -8.5 c 128,-1,38
 474 -41 474 -41 385 -41 c 0,39,40
 242 -41 242 -41 159 34 c 128,-1,41
 76 109 76 109 76 238 c 0,42,43
 76 396 76 396 186 462 c 0,44,45
 262 508 262 508 445 534 c 0,46,47
 471 537 471 537 544 547 c 0,48,49
 633 558 633 558 667 581 c 128,-1,50
 701 604 701 604 701 652 c 2,51,-1
 701 691 l 2,52,53
 701 758 701 758 646 795 c 128,-1,54
 591 832 591 832 490 832 c 0,55,56
 384 832 384 832 331 791.5 c 128,-1,57
 278 751 278 751 269 665 c 1,58,-1
 118 665 l 1,15,16
418 90 m 0,59,60
 542 90 542 90 621.5 156 c 128,-1,61
 701 222 701 222 701 298 c 2,62,-1
 701 466 l 1,63,64
 662 448 662 448 594.5 436.5 c 128,-1,65
 527 425 527 425 468.5 416 c 128,-1,66
 410 407 410 407 354.5 390.5 c 128,-1,67
 299 374 299 374 266 337 c 128,-1,68
 233 300 233 300 233 241 c 0,69,70
 233 170 233 170 281.5 130 c 128,-1,71
 330 90 330 90 418 90 c 0,59,60
EndSplineSet
Validated: 1
EndChar

StartChar: Aogonek
Encoding: 260 260 200
Width: 1200
GlyphClass: 2
Flags: W
LayerCount: 2
Fore
SplineSet
1109 -370 m 0,0,1
 1007 -370 1007 -370 939 -323.5 c 128,-1,2
 871 -277 871 -277 871 -199 c 0,3,4
 871 -135 871 -135 917 -82.5 c 128,-1,5
 963 -30 963 -30 1045 0 c 1,6,-1
 1171 0 l 1,7,8
 1072 -56 1072 -56 1037 -95 c 128,-1,9
 1002 -134 1002 -134 1002 -191 c 0,10,11
 1002 -288 1002 -288 1132 -288 c 0,12,13
 1199 -288 1199 -288 1246 -270 c 1,14,-1
 1246 -350 l 1,15,16
 1158 -370 1158 -370 1109 -370 c 0,0,1
853 394 m 1,17,-1
 348 394 l 1,18,-1
 209 0 l 1,19,-1
 31 0 l 1,20,-1
 499 1313 l 1,21,-1
 715 1313 l 1,22,-1
 1176 0 l 1,23,-1
 989 0 l 1,24,-1
 853 394 l 1,17,-1
806 535 m 1,25,-1
 605 1133 l 1,26,-1
 389 535 l 1,27,-1
 806 535 l 1,25,-1
EndSplineSet
Validated: 5
EndChar

StartChar: aogonek
Encoding: 261 261 201
Width: 1000
GlyphClass: 2
Flags: W
LayerCount: 2
Fore
SplineSet
120 665 m 1,0,1
 132 970 132 970 497 970 c 0,2,3
 672 970 672 970 762 904.5 c 128,-1,4
 852 839 852 839 852 713 c 2,5,-1
 852 158 l 2,6,7
 852 123 852 123 873 103.5 c 128,-1,8
 894 84 894 84 932 84 c 0,9,10
 948 84 948 84 965 89 c 1,11,-1
 965 -25 l 1,12,13
 899 -51 899 -51 863.5 -94 c 128,-1,14
 828 -137 828 -137 828 -190 c 0,15,16
 828 -288 828 -288 958 -288 c 0,17,18
 1027 -288 1027 -288 1073 -270 c 1,19,-1
 1073 -350 l 1,20,21
 996 -370 996 -370 946 -370 c 0,22,23
 907 -370 907 -370 867 -361 c 128,-1,24
 827 -352 827 -352 787.5 -334 c 128,-1,25
 748 -316 748 -316 723 -281.5 c 128,-1,26
 698 -247 698 -247 698 -202 c 0,27,28
 698 -150 698 -150 725.5 -114 c 128,-1,29
 753 -78 753 -78 821 -41 c 1,30,31
 719 -23 719 -23 708 97 c 1,32,33
 561 -41 561 -41 386 -41 c 0,34,35
 244 -41 244 -41 160.5 34.5 c 128,-1,36
 77 110 77 110 77 238 c 0,37,38
 77 403 77 403 207 471 c 0,39,40
 287 513 287 513 476 538 c 0,41,42
 491 540 491 540 547 547 c 0,43,44
 636 558 636 558 669 580.5 c 128,-1,45
 702 603 702 603 702 652 c 2,46,-1
 702 691 l 2,47,48
 702 759 702 759 648 795.5 c 128,-1,49
 594 832 594 832 492 832 c 0,50,51
 386 832 386 832 333 792 c 128,-1,52
 280 752 280 752 271 665 c 1,53,-1
 120 665 l 1,0,1
418 90 m 0,54,55
 542 90 542 90 621.5 156 c 128,-1,56
 701 222 701 222 701 298 c 2,57,-1
 701 466 l 1,58,59
 662 448 662 448 594.5 436.5 c 128,-1,60
 527 425 527 425 468.5 416 c 128,-1,61
 410 407 410 407 354.5 390.5 c 128,-1,62
 299 374 299 374 266 337 c 128,-1,63
 233 300 233 300 233 241 c 0,64,65
 233 170 233 170 281.5 130 c 128,-1,66
 330 90 330 90 418 90 c 0,54,55
EndSplineSet
Validated: 1
EndChar

StartChar: Cacute
Encoding: 262 262 202
Width: 1299
GlyphClass: 2
Flags: W
LayerCount: 2
Fore
SplineSet
729 1692 m 1,0,-1
 933 1692 l 1,1,-1
 665 1426 l 1,2,-1
 557 1426 l 1,3,-1
 729 1692 l 1,0,-1
86 641 m 0,4,5
 86 703 86 703 94 765.5 c 128,-1,6
 102 828 102 828 121.5 897.5 c 128,-1,7
 141 967 141 967 171 1028.5 c 128,-1,8
 201 1090 201 1090 248.5 1147 c 128,-1,9
 296 1204 296 1204 356.5 1244.5 c 128,-1,10
 417 1285 417 1285 501.5 1309.5 c 128,-1,11
 586 1334 586 1334 686 1334 c 0,12,13
 1115 1334 1115 1334 1192 905 c 1,14,-1
 1020 905 l 1,15,16
 992 1047 992 1047 907 1116.5 c 128,-1,17
 822 1186 822 1186 666 1186 c 0,18,19
 476 1186 476 1186 365 1040.5 c 128,-1,20
 254 895 254 895 254 643 c 0,21,22
 254 396 254 396 369.5 251 c 128,-1,23
 485 106 485 106 680 106 c 0,24,25
 842 106 842 106 928.5 197.5 c 128,-1,26
 1015 289 1015 289 1046 479 c 1,27,-1
 1219 479 l 1,28,29
 1158 -41 1158 -41 679 -41 c 0,30,31
 565 -41 565 -41 471 -9.5 c 128,-1,32
 377 22 377 22 314 76.5 c 128,-1,33
 251 131 251 131 205 198.5 c 128,-1,34
 159 266 159 266 134 345 c 128,-1,35
 109 424 109 424 97.5 496.5 c 128,-1,36
 86 569 86 569 86 641 c 0,4,5
EndSplineSet
Validated: 1
EndChar

StartChar: cacute
Encoding: 263 263 203
Width: 900
GlyphClass: 2
Flags: W
LayerCount: 2
Fore
SplineSet
536 1332 m 1,0,-1
 740 1332 l 1,1,-1
 472 1066 l 1,2,-1
 364 1066 l 1,3,-1
 536 1332 l 1,0,-1
847 626 m 1,4,-1
 696 626 l 1,5,6
 683 725 683 725 625.5 778.5 c 128,-1,7
 568 832 568 832 473 832 c 0,8,9
 351 832 351 832 281.5 732 c 128,-1,10
 212 632 212 632 212 456 c 0,11,12
 212 289 212 289 283 193 c 128,-1,13
 354 97 354 97 478 97 c 0,14,15
 669 97 669 97 708 324 c 1,16,-1
 859 324 l 1,17,18
 845 151 845 151 743.5 55 c 128,-1,19
 642 -41 642 -41 473 -41 c 0,20,21
 281 -41 281 -41 168 93.5 c 128,-1,22
 55 228 55 228 55 456 c 0,23,24
 55 690 55 690 169.5 830 c 128,-1,25
 284 970 284 970 475 970 c 0,26,27
 639 970 639 970 736.5 881.5 c 128,-1,28
 834 793 834 793 847 626 c 1,4,-1
EndSplineSet
Validated: 1
EndChar

StartChar: Ccircumflex
Encoding: 264 264 204
Width: 1299
GlyphClass: 2
Flags: W
LayerCount: 2
Fore
SplineSet
581 1692 m 1,0,-1
 751 1692 l 1,1,-1
 924 1421 l 1,2,-1
 811 1421 l 1,3,-1
 665 1594 l 1,4,-1
 523 1421 l 1,5,-1
 408 1421 l 1,6,-1
 581 1692 l 1,0,-1
86 641 m 0,7,8
 86 703 86 703 94 765.5 c 128,-1,9
 102 828 102 828 121.5 897.5 c 128,-1,10
 141 967 141 967 171 1028.5 c 128,-1,11
 201 1090 201 1090 248.5 1147 c 128,-1,12
 296 1204 296 1204 356.5 1244.5 c 128,-1,13
 417 1285 417 1285 501.5 1309.5 c 128,-1,14
 586 1334 586 1334 686 1334 c 0,15,16
 1115 1334 1115 1334 1192 905 c 1,17,-1
 1020 905 l 1,18,19
 992 1047 992 1047 907 1116.5 c 128,-1,20
 822 1186 822 1186 666 1186 c 0,21,22
 476 1186 476 1186 365 1040.5 c 128,-1,23
 254 895 254 895 254 643 c 0,24,25
 254 396 254 396 369.5 251 c 128,-1,26
 485 106 485 106 680 106 c 0,27,28
 842 106 842 106 928.5 197.5 c 128,-1,29
 1015 289 1015 289 1046 479 c 1,30,-1
 1219 479 l 1,31,32
 1158 -41 1158 -41 679 -41 c 0,33,34
 565 -41 565 -41 471 -9.5 c 128,-1,35
 377 22 377 22 314 76.5 c 128,-1,36
 251 131 251 131 205 198.5 c 128,-1,37
 159 266 159 266 134 345 c 128,-1,38
 109 424 109 424 97.5 496.5 c 128,-1,39
 86 569 86 569 86 641 c 0,7,8
EndSplineSet
Validated: 1
EndChar

StartChar: ccircumflex
Encoding: 265 265 205
Width: 900
GlyphClass: 2
Flags: W
LayerCount: 2
Fore
SplineSet
387 1286 m 1,0,-1
 557 1286 l 1,1,-1
 730 1015 l 1,2,-1
 617 1015 l 1,3,-1
 471 1188 l 1,4,-1
 329 1015 l 1,5,-1
 214 1015 l 1,6,-1
 387 1286 l 1,0,-1
847 626 m 1,7,-1
 696 626 l 1,8,9
 683 725 683 725 625.5 778.5 c 128,-1,10
 568 832 568 832 473 832 c 0,11,12
 351 832 351 832 281.5 732 c 128,-1,13
 212 632 212 632 212 456 c 0,14,15
 212 289 212 289 283 193 c 128,-1,16
 354 97 354 97 478 97 c 0,17,18
 669 97 669 97 708 324 c 1,19,-1
 859 324 l 1,20,21
 845 151 845 151 743.5 55 c 128,-1,22
 642 -41 642 -41 473 -41 c 0,23,24
 281 -41 281 -41 168 93.5 c 128,-1,25
 55 228 55 228 55 456 c 0,26,27
 55 690 55 690 169.5 830 c 128,-1,28
 284 970 284 970 475 970 c 0,29,30
 639 970 639 970 736.5 881.5 c 128,-1,31
 834 793 834 793 847 626 c 1,7,-1
EndSplineSet
Validated: 1
EndChar

StartChar: Cdotaccent
Encoding: 266 266 206
Width: 1299
GlyphClass: 2
Flags: W
LayerCount: 2
Fore
SplineSet
786 1572 m 1,0,-1
 786 1385 l 1,1,-1
 598 1385 l 1,2,-1
 598 1572 l 1,3,-1
 786 1572 l 1,0,-1
86 641 m 0,4,5
 86 703 86 703 94 765.5 c 128,-1,6
 102 828 102 828 121.5 897.5 c 128,-1,7
 141 967 141 967 171 1028.5 c 128,-1,8
 201 1090 201 1090 248.5 1147 c 128,-1,9
 296 1204 296 1204 356.5 1244.5 c 128,-1,10
 417 1285 417 1285 501.5 1309.5 c 128,-1,11
 586 1334 586 1334 686 1334 c 0,12,13
 1115 1334 1115 1334 1192 905 c 1,14,-1
 1020 905 l 1,15,16
 992 1047 992 1047 907 1116.5 c 128,-1,17
 822 1186 822 1186 666 1186 c 0,18,19
 476 1186 476 1186 365 1040.5 c 128,-1,20
 254 895 254 895 254 643 c 0,21,22
 254 396 254 396 369.5 251 c 128,-1,23
 485 106 485 106 680 106 c 0,24,25
 842 106 842 106 928.5 197.5 c 128,-1,26
 1015 289 1015 289 1046 479 c 1,27,-1
 1219 479 l 1,28,29
 1158 -41 1158 -41 679 -41 c 0,30,31
 565 -41 565 -41 471 -9.5 c 128,-1,32
 377 22 377 22 314 76.5 c 128,-1,33
 251 131 251 131 205 198.5 c 128,-1,34
 159 266 159 266 134 345 c 128,-1,35
 109 424 109 424 97.5 496.5 c 128,-1,36
 86 569 86 569 86 641 c 0,4,5
EndSplineSet
Validated: 1
EndChar

StartChar: cdotaccent
Encoding: 267 267 207
Width: 900
GlyphClass: 2
Flags: W
LayerCount: 2
Fore
SplineSet
560 1203 m 1,0,-1
 560 1016 l 1,1,-1
 372 1016 l 1,2,-1
 372 1203 l 1,3,-1
 560 1203 l 1,0,-1
847 626 m 1,4,-1
 696 626 l 1,5,6
 683 725 683 725 625.5 778.5 c 128,-1,7
 568 832 568 832 473 832 c 0,8,9
 351 832 351 832 281.5 732 c 128,-1,10
 212 632 212 632 212 456 c 0,11,12
 212 289 212 289 283 193 c 128,-1,13
 354 97 354 97 478 97 c 0,14,15
 669 97 669 97 708 324 c 1,16,-1
 859 324 l 1,17,18
 845 151 845 151 743.5 55 c 128,-1,19
 642 -41 642 -41 473 -41 c 0,20,21
 281 -41 281 -41 168 93.5 c 128,-1,22
 55 228 55 228 55 456 c 0,23,24
 55 690 55 690 169.5 830 c 128,-1,25
 284 970 284 970 475 970 c 0,26,27
 639 970 639 970 736.5 881.5 c 128,-1,28
 834 793 834 793 847 626 c 1,4,-1
EndSplineSet
Validated: 1
EndChar

StartChar: Ccaron
Encoding: 268 268 208
Width: 1299
GlyphClass: 2
Flags: W
LayerCount: 2
Fore
SplineSet
770 1421 m 1,0,-1
 598 1421 l 1,1,-1
 426 1692 l 1,2,-1
 540 1692 l 1,3,-1
 685 1520 l 1,4,-1
 828 1692 l 1,5,-1
 943 1692 l 1,6,-1
 770 1421 l 1,0,-1
86 641 m 0,7,8
 86 703 86 703 94 765.5 c 128,-1,9
 102 828 102 828 121.5 897.5 c 128,-1,10
 141 967 141 967 171 1028.5 c 128,-1,11
 201 1090 201 1090 248.5 1147 c 128,-1,12
 296 1204 296 1204 356.5 1244.5 c 128,-1,13
 417 1285 417 1285 501.5 1309.5 c 128,-1,14
 586 1334 586 1334 686 1334 c 0,15,16
 1115 1334 1115 1334 1192 905 c 1,17,-1
 1020 905 l 1,18,19
 992 1047 992 1047 907 1116.5 c 128,-1,20
 822 1186 822 1186 666 1186 c 0,21,22
 476 1186 476 1186 365 1040.5 c 128,-1,23
 254 895 254 895 254 643 c 0,24,25
 254 396 254 396 369.5 251 c 128,-1,26
 485 106 485 106 680 106 c 0,27,28
 842 106 842 106 928.5 197.5 c 128,-1,29
 1015 289 1015 289 1046 479 c 1,30,-1
 1219 479 l 1,31,32
 1158 -41 1158 -41 679 -41 c 0,33,34
 565 -41 565 -41 471 -9.5 c 128,-1,35
 377 22 377 22 314 76.5 c 128,-1,36
 251 131 251 131 205 198.5 c 128,-1,37
 159 266 159 266 134 345 c 128,-1,38
 109 424 109 424 97.5 496.5 c 128,-1,39
 86 569 86 569 86 641 c 0,7,8
EndSplineSet
Validated: 1
EndChar

StartChar: ccaron
Encoding: 269 269 209
Width: 900
GlyphClass: 2
Flags: W
LayerCount: 2
Fore
SplineSet
563 1065 m 1,0,-1
 391 1065 l 1,1,-1
 219 1336 l 1,2,-1
 333 1336 l 1,3,-1
 478 1164 l 1,4,-1
 621 1336 l 1,5,-1
 736 1336 l 1,6,-1
 563 1065 l 1,0,-1
847 626 m 1,7,-1
 696 626 l 1,8,9
 683 725 683 725 625.5 778.5 c 128,-1,10
 568 832 568 832 473 832 c 0,11,12
 351 832 351 832 281.5 732 c 128,-1,13
 212 632 212 632 212 456 c 0,14,15
 212 289 212 289 283 193 c 128,-1,16
 354 97 354 97 478 97 c 0,17,18
 669 97 669 97 708 324 c 1,19,-1
 859 324 l 1,20,21
 845 151 845 151 743.5 55 c 128,-1,22
 642 -41 642 -41 473 -41 c 0,23,24
 281 -41 281 -41 168 93.5 c 128,-1,25
 55 228 55 228 55 456 c 0,26,27
 55 690 55 690 169.5 830 c 128,-1,28
 284 970 284 970 475 970 c 0,29,30
 639 970 639 970 736.5 881.5 c 128,-1,31
 834 793 834 793 847 626 c 1,7,-1
EndSplineSet
Validated: 1
EndChar

StartChar: Dcaron
Encoding: 270 270 210
Width: 1299
GlyphClass: 2
Flags: W
LayerCount: 2
Fore
SplineSet
695 1421 m 1,0,-1
 523 1421 l 1,1,-1
 351 1692 l 1,2,-1
 465 1692 l 1,3,-1
 610 1520 l 1,4,-1
 753 1692 l 1,5,-1
 868 1692 l 1,6,-1
 695 1421 l 1,0,-1
161 0 m 1,7,-1
 161 1313 l 1,8,-1
 666 1313 l 2,9,10
 915 1313 915 1313 1057.5 1137.5 c 128,-1,11
 1200 962 1200 962 1200 658 c 0,12,13
 1200 351 1200 351 1057.5 175.5 c 128,-1,14
 915 0 915 0 666 0 c 2,15,-1
 161 0 l 1,7,-1
328 148 m 1,16,-1
 637 148 l 2,17,18
 831 148 831 148 932 277.5 c 128,-1,19
 1033 407 1033 407 1033 655 c 0,20,21
 1033 906 1033 906 932.5 1035 c 128,-1,22
 832 1164 832 1164 637 1164 c 2,23,-1
 328 1164 l 1,24,-1
 328 148 l 1,16,-1
EndSplineSet
Validated: 1
EndChar

StartChar: Dcroat
Encoding: 272 272 212
Width: 1299
GlyphClass: 2
Flags: W
LayerCount: 2
Fore
SplineSet
161 610 m 1,0,-1
 36 610 l 1,1,-1
 36 731 l 1,2,-1
 161 731 l 1,3,-1
 161 1313 l 1,4,-1
 667 1313 l 2,5,6
 915 1313 915 1313 1057.5 1137.5 c 128,-1,7
 1200 962 1200 962 1200 658 c 0,8,9
 1200 351 1200 351 1057.5 175.5 c 128,-1,10
 915 0 915 0 667 0 c 2,11,-1
 161 0 l 1,12,-1
 161 610 l 1,0,-1
328 610 m 1,13,-1
 328 148 l 1,14,-1
 638 148 l 2,15,16
 832 148 832 148 932.5 277.5 c 128,-1,17
 1033 407 1033 407 1033 658 c 0,18,19
 1033 907 1033 907 932.5 1035.5 c 128,-1,20
 832 1164 832 1164 638 1164 c 2,21,-1
 328 1164 l 1,22,-1
 328 731 l 1,23,-1
 636 731 l 1,24,-1
 636 610 l 1,25,-1
 328 610 l 1,13,-1
EndSplineSet
Validated: 1
EndChar

StartChar: dcroat
Encoding: 273 273 213
Width: 1000
GlyphClass: 2
Flags: W
LayerCount: 2
Fore
SplineSet
889 1176 m 1,0,-1
 1003 1176 l 1,1,-1
 1003 1080 l 1,2,-1
 889 1080 l 1,3,-1
 889 0 l 1,4,-1
 756 0 l 1,5,-1
 756 106 l 1,6,7
 631 -41 631 -41 454 -41 c 0,8,9
 270 -41 270 -41 158.5 100 c 128,-1,10
 47 241 47 241 47 475 c 0,11,12
 47 699 47 699 157 834.5 c 128,-1,13
 267 970 267 970 450 970 c 0,14,15
 541 970 541 970 610 936 c 128,-1,16
 679 902 679 902 739 830 c 1,17,-1
 739 1080 l 1,18,-1
 470 1080 l 1,19,-1
 470 1176 l 1,20,-1
 739 1176 l 1,21,-1
 739 1313 l 1,22,-1
 889 1313 l 1,23,-1
 889 1176 l 1,0,-1
478 823 m 0,24,25
 354 823 354 823 279 724 c 128,-1,26
 204 625 204 625 204 464 c 128,-1,27
 204 303 204 303 279 204.5 c 128,-1,28
 354 106 354 106 478 106 c 0,29,30
 596 106 596 106 667.5 203 c 128,-1,31
 739 300 739 300 739 461 c 0,32,33
 739 627 739 627 668 725 c 128,-1,34
 597 823 597 823 478 823 c 0,24,25
EndSplineSet
Validated: 1
EndChar

StartChar: Emacron
Encoding: 274 274 214
Width: 1200
GlyphClass: 2
Flags: W
LayerCount: 2
Fore
SplineSet
864 1568 m 1,0,-1
 864 1441 l 1,1,-1
 370 1441 l 1,2,-1
 370 1568 l 1,3,-1
 864 1568 l 1,0,-1
329 598 m 1,4,-1
 329 148 l 1,5,-1
 1104 148 l 1,6,-1
 1104 0 l 1,7,-1
 162 0 l 1,8,-1
 162 1313 l 1,9,-1
 1070 1313 l 1,10,-1
 1070 1164 l 1,11,-1
 329 1164 l 1,12,-1
 329 745 l 1,13,-1
 1044 745 l 1,14,-1
 1044 598 l 1,15,-1
 329 598 l 1,4,-1
EndSplineSet
Validated: 1
EndChar

StartChar: emacron
Encoding: 275 275 215
Width: 1000
GlyphClass: 2
Flags: W
LayerCount: 2
Fore
SplineSet
750 1204 m 1,0,-1
 750 1077 l 1,1,-1
 256 1077 l 1,2,-1
 256 1204 l 1,3,-1
 750 1204 l 1,0,-1
924 421 m 1,4,-1
 228 421 l 1,5,6
 230 350 230 350 240.5 305 c 128,-1,7
 251 260 251 260 278 220 c 1,8,9
 356 97 356 97 506 97 c 0,10,11
 688 97 688 97 752 286 c 1,12,-1
 904 286 l 1,13,14
 875 133 875 133 768.5 46 c 128,-1,15
 662 -41 662 -41 500 -41 c 0,16,17
 301 -41 301 -41 186.5 92.5 c 128,-1,18
 72 226 72 226 72 458 c 0,19,20
 72 691 72 691 189.5 830.5 c 128,-1,21
 307 970 307 970 504 970 c 0,22,23
 636 970 636 970 737.5 904 c 128,-1,24
 839 838 839 838 886 722 c 1,25,26
 924 620 924 620 924 421 c 1,4,-1
233 544 m 1,27,-1
 761 544 l 1,28,29
 763 547 763 547 763 554 c 0,30,31
 763 671 763 671 688 751.5 c 128,-1,32
 613 832 613 832 502 832 c 0,33,34
 388 832 388 832 315 753.5 c 128,-1,35
 242 675 242 675 233 544 c 1,27,-1
EndSplineSet
Validated: 1
EndChar

StartChar: Ebreve
Encoding: 276 276 216
Width: 1200
GlyphClass: 2
Flags: W
LayerCount: 2
Fore
SplineSet
345 1628 m 1,0,-1
 452 1628 l 1,1,2
 465 1509 465 1509 618 1509 c 0,3,4
 691 1509 691 1509 734 1540 c 128,-1,5
 777 1571 777 1571 782 1628 c 1,6,-1
 888 1628 l 1,7,8
 870 1385 870 1385 614 1385 c 0,9,10
 578 1385 578 1385 544 1391 c 128,-1,11
 510 1397 510 1397 473.5 1413.5 c 128,-1,12
 437 1430 437 1430 410 1456 c 128,-1,13
 383 1482 383 1482 365 1526.5 c 128,-1,14
 347 1571 347 1571 345 1628 c 1,0,-1
329 598 m 1,15,-1
 329 148 l 1,16,-1
 1104 148 l 1,17,-1
 1104 0 l 1,18,-1
 162 0 l 1,19,-1
 162 1313 l 1,20,-1
 1070 1313 l 1,21,-1
 1070 1164 l 1,22,-1
 329 1164 l 1,23,-1
 329 745 l 1,24,-1
 1044 745 l 1,25,-1
 1044 598 l 1,26,-1
 329 598 l 1,15,-1
EndSplineSet
Validated: 1
EndChar

StartChar: ebreve
Encoding: 277 277 217
Width: 1000
GlyphClass: 2
Flags: W
LayerCount: 2
Fore
SplineSet
231 1258 m 1,0,-1
 338 1258 l 1,1,2
 351 1139 351 1139 504 1139 c 0,3,4
 577 1139 577 1139 620 1170 c 128,-1,5
 663 1201 663 1201 668 1258 c 1,6,-1
 774 1258 l 1,7,8
 756 1015 756 1015 500 1015 c 0,9,10
 464 1015 464 1015 430 1021 c 128,-1,11
 396 1027 396 1027 359.5 1043.5 c 128,-1,12
 323 1060 323 1060 296 1086 c 128,-1,13
 269 1112 269 1112 251 1156.5 c 128,-1,14
 233 1201 233 1201 231 1258 c 1,0,-1
924 421 m 1,15,-1
 228 421 l 1,16,17
 230 350 230 350 240.5 305 c 128,-1,18
 251 260 251 260 278 220 c 1,19,20
 356 97 356 97 506 97 c 0,21,22
 688 97 688 97 752 286 c 1,23,-1
 904 286 l 1,24,25
 875 133 875 133 768.5 46 c 128,-1,26
 662 -41 662 -41 500 -41 c 0,27,28
 301 -41 301 -41 186.5 92.5 c 128,-1,29
 72 226 72 226 72 458 c 0,30,31
 72 691 72 691 189.5 830.5 c 128,-1,32
 307 970 307 970 504 970 c 0,33,34
 636 970 636 970 737.5 904 c 128,-1,35
 839 838 839 838 886 722 c 1,36,37
 924 620 924 620 924 421 c 1,15,-1
233 544 m 1,38,-1
 761 544 l 1,39,40
 763 547 763 547 763 554 c 0,41,42
 763 671 763 671 688 751.5 c 128,-1,43
 613 832 613 832 502 832 c 0,44,45
 388 832 388 832 315 753.5 c 128,-1,46
 242 675 242 675 233 544 c 1,38,-1
EndSplineSet
Validated: 1
EndChar

StartChar: Edotaccent
Encoding: 278 278 218
Width: 1200
GlyphClass: 2
Flags: W
LayerCount: 2
Fore
SplineSet
711 1630 m 1,0,-1
 711 1443 l 1,1,-1
 523 1443 l 1,2,-1
 523 1630 l 1,3,-1
 711 1630 l 1,0,-1
329 598 m 1,4,-1
 329 148 l 1,5,-1
 1104 148 l 1,6,-1
 1104 0 l 1,7,-1
 162 0 l 1,8,-1
 162 1313 l 1,9,-1
 1070 1313 l 1,10,-1
 1070 1164 l 1,11,-1
 329 1164 l 1,12,-1
 329 745 l 1,13,-1
 1044 745 l 1,14,-1
 1044 598 l 1,15,-1
 329 598 l 1,4,-1
EndSplineSet
Validated: 1
EndChar

StartChar: edotaccent
Encoding: 279 279 219
Width: 1000
GlyphClass: 2
Flags: W
LayerCount: 2
Fore
SplineSet
598 1265 m 1,0,-1
 598 1078 l 1,1,-1
 410 1078 l 1,2,-1
 410 1265 l 1,3,-1
 598 1265 l 1,0,-1
924 421 m 1,4,-1
 228 421 l 1,5,6
 230 350 230 350 240.5 305 c 128,-1,7
 251 260 251 260 278 220 c 1,8,9
 356 97 356 97 506 97 c 0,10,11
 688 97 688 97 752 286 c 1,12,-1
 904 286 l 1,13,14
 875 133 875 133 768.5 46 c 128,-1,15
 662 -41 662 -41 500 -41 c 0,16,17
 301 -41 301 -41 186.5 92.5 c 128,-1,18
 72 226 72 226 72 458 c 0,19,20
 72 691 72 691 189.5 830.5 c 128,-1,21
 307 970 307 970 504 970 c 0,22,23
 636 970 636 970 737.5 904 c 128,-1,24
 839 838 839 838 886 722 c 1,25,26
 924 620 924 620 924 421 c 1,4,-1
233 544 m 1,27,-1
 761 544 l 1,28,29
 763 547 763 547 763 554 c 0,30,31
 763 671 763 671 688 751.5 c 128,-1,32
 613 832 613 832 502 832 c 0,33,34
 388 832 388 832 315 753.5 c 128,-1,35
 242 675 242 675 233 544 c 1,27,-1
EndSplineSet
Validated: 1
EndChar

StartChar: Eogonek
Encoding: 280 280 220
Width: 1200
GlyphClass: 2
Flags: W
LayerCount: 2
Fore
SplineSet
1037 -370 m 0,0,1
 935 -370 935 -370 867 -323.5 c 128,-1,2
 799 -277 799 -277 799 -199 c 0,3,4
 799 -135 799 -135 845 -82.5 c 128,-1,5
 891 -30 891 -30 973 0 c 1,6,-1
 1099 0 l 1,7,8
 1000 -56 1000 -56 965 -95 c 128,-1,9
 930 -134 930 -134 930 -191 c 0,10,11
 930 -288 930 -288 1060 -288 c 0,12,13
 1127 -288 1127 -288 1174 -270 c 1,14,-1
 1174 -350 l 1,15,16
 1086 -370 1086 -370 1037 -370 c 0,0,1
329 598 m 1,17,-1
 329 148 l 1,18,-1
 1104 148 l 1,19,-1
 1104 0 l 1,20,-1
 162 0 l 1,21,-1
 162 1313 l 1,22,-1
 1070 1313 l 1,23,-1
 1070 1164 l 1,24,-1
 329 1164 l 1,25,-1
 329 745 l 1,26,-1
 1044 745 l 1,27,-1
 1044 598 l 1,28,-1
 329 598 l 1,17,-1
EndSplineSet
Validated: 5
EndChar

StartChar: eogonek
Encoding: 281 281 221
Width: 1000
GlyphClass: 2
Flags: W
LayerCount: 2
Fore
SplineSet
905 286 m 1,0,1
 892 213 892 213 858.5 152.5 c 128,-1,2
 825 92 825 92 787.5 53 c 128,-1,3
 750 14 750 14 714 -22 c 128,-1,4
 678 -58 678 -58 654.5 -102 c 128,-1,5
 631 -146 631 -146 631 -197 c 0,6,7
 631 -240 631 -240 665.5 -264 c 128,-1,8
 700 -288 700 -288 761 -288 c 0,9,10
 833 -288 833 -288 876 -270 c 1,11,-1
 876 -350 l 1,12,13
 808 -367 808 -367 752 -367 c 0,14,15
 639 -367 639 -367 570.5 -324 c 128,-1,16
 502 -281 502 -281 502 -209 c 0,17,18
 502 -184 502 -184 509.5 -160.5 c 128,-1,19
 517 -137 517 -137 526 -121.5 c 128,-1,20
 535 -106 535 -106 552.5 -87.5 c 128,-1,21
 570 -69 570 -69 578.5 -61.5 c 128,-1,22
 587 -54 587 -54 605 -40 c 128,-1,23
 623 -26 623 -26 624 -26 c 1,24,25
 558 -41 558 -41 502 -41 c 0,26,27
 301 -41 301 -41 186.5 91.5 c 128,-1,28
 72 224 72 224 72 457 c 128,-1,29
 72 690 72 690 189.5 830 c 128,-1,30
 307 970 307 970 504 970 c 0,31,32
 636 970 636 970 738.5 903.5 c 128,-1,33
 841 837 841 837 886 722 c 0,34,35
 924 625 924 625 924 449 c 2,36,-1
 924 421 l 1,37,-1
 228 421 l 1,38,39
 230 346 230 346 249.5 287 c 128,-1,40
 269 228 269 228 297.5 193 c 128,-1,41
 326 158 326 158 363.5 135.5 c 128,-1,42
 401 113 401 113 435.5 105 c 128,-1,43
 470 97 470 97 506 97 c 0,44,45
 687 97 687 97 754 286 c 1,46,-1
 905 286 l 1,0,1
763 544 m 1,47,-1
 763 554 l 2,48,49
 763 671 763 671 688 751.5 c 128,-1,50
 613 832 613 832 502 832 c 0,51,52
 388 832 388 832 315 753.5 c 128,-1,53
 242 675 242 675 234 544 c 1,54,-1
 763 544 l 1,47,-1
EndSplineSet
Validated: 5
EndChar

StartChar: Ecaron
Encoding: 282 282 222
Width: 1200
GlyphClass: 2
Flags: W
LayerCount: 2
Fore
SplineSet
706 1421 m 1,0,-1
 534 1421 l 1,1,-1
 362 1692 l 1,2,-1
 476 1692 l 1,3,-1
 621 1520 l 1,4,-1
 764 1692 l 1,5,-1
 879 1692 l 1,6,-1
 706 1421 l 1,0,-1
329 598 m 1,7,-1
 329 148 l 1,8,-1
 1104 148 l 1,9,-1
 1104 0 l 1,10,-1
 162 0 l 1,11,-1
 162 1313 l 1,12,-1
 1070 1313 l 1,13,-1
 1070 1164 l 1,14,-1
 329 1164 l 1,15,-1
 329 745 l 1,16,-1
 1044 745 l 1,17,-1
 1044 598 l 1,18,-1
 329 598 l 1,7,-1
EndSplineSet
Validated: 1
EndChar

StartChar: ecaron
Encoding: 283 283 223
Width: 1000
GlyphClass: 2
Flags: W
LayerCount: 2
Fore
SplineSet
601 1063 m 1,0,-1
 429 1063 l 1,1,-1
 257 1334 l 1,2,-1
 371 1334 l 1,3,-1
 516 1162 l 1,4,-1
 659 1334 l 1,5,-1
 774 1334 l 1,6,-1
 601 1063 l 1,0,-1
924 421 m 1,7,-1
 228 421 l 1,8,9
 230 350 230 350 240.5 305 c 128,-1,10
 251 260 251 260 278 220 c 1,11,12
 356 97 356 97 506 97 c 0,13,14
 688 97 688 97 752 286 c 1,15,-1
 904 286 l 1,16,17
 875 133 875 133 768.5 46 c 128,-1,18
 662 -41 662 -41 500 -41 c 0,19,20
 301 -41 301 -41 186.5 92.5 c 128,-1,21
 72 226 72 226 72 458 c 0,22,23
 72 691 72 691 189.5 830.5 c 128,-1,24
 307 970 307 970 504 970 c 0,25,26
 636 970 636 970 737.5 904 c 128,-1,27
 839 838 839 838 886 722 c 1,28,29
 924 620 924 620 924 421 c 1,7,-1
233 544 m 1,30,-1
 761 544 l 1,31,32
 763 547 763 547 763 554 c 0,33,34
 763 671 763 671 688 751.5 c 128,-1,35
 613 832 613 832 502 832 c 0,36,37
 388 832 388 832 315 753.5 c 128,-1,38
 242 675 242 675 233 544 c 1,30,-1
EndSplineSet
Validated: 1
EndChar

StartChar: Gcircumflex
Encoding: 284 284 224
Width: 1400
GlyphClass: 2
Flags: W
LayerCount: 2
Fore
SplineSet
641 1655 m 1,0,-1
 811 1655 l 1,1,-1
 984 1422 l 1,2,-1
 871 1422 l 1,3,-1
 725 1571 l 1,4,-1
 583 1422 l 1,5,-1
 468 1422 l 1,6,-1
 641 1655 l 1,0,-1
247 652 m 0,7,8
 247 583 247 583 259 514 c 128,-1,9
 271 445 271 445 304.5 369.5 c 128,-1,10
 338 294 338 294 388.5 237 c 128,-1,11
 439 180 439 180 524 143 c 128,-1,12
 609 106 609 106 716 106 c 0,13,14
 895 106 895 106 1011.5 220 c 128,-1,15
 1128 334 1128 334 1128 509 c 2,16,-1
 1128 545 l 1,17,-1
 730 545 l 1,18,-1
 730 694 l 1,19,-1
 1277 694 l 1,20,-1
 1277 -7 l 1,21,-1
 1170 -7 l 1,22,-1
 1128 168 l 1,23,24
 1033 61 1033 61 923.5 10 c 128,-1,25
 814 -41 814 -41 680 -41 c 0,26,27
 505 -41 505 -41 368 45.5 c 128,-1,28
 231 132 231 132 155 288 c 128,-1,29
 79 444 79 444 79 643 c 0,30,31
 79 729 79 729 95.5 816 c 128,-1,32
 112 903 112 903 156.5 998.5 c 128,-1,33
 201 1094 201 1094 269 1166.5 c 128,-1,34
 337 1239 337 1239 451 1286.5 c 128,-1,35
 565 1334 565 1334 709 1334 c 0,36,37
 935 1334 935 1334 1079.5 1224 c 128,-1,38
 1224 1114 1224 1114 1258 914 c 1,39,-1
 1087 914 l 1,40,41
 1060 1041 1060 1041 959 1113.5 c 128,-1,42
 858 1186 858 1186 708 1186 c 0,43,44
 500 1186 500 1186 373.5 1040 c 128,-1,45
 247 894 247 894 247 652 c 0,7,8
EndSplineSet
Validated: 1
EndChar

StartChar: gcircumflex
Encoding: 285 285 225
Width: 1000
GlyphClass: 2
Flags: W
LayerCount: 2
Fore
SplineSet
367 1334 m 1,0,-1
 537 1334 l 1,1,-1
 710 1063 l 1,2,-1
 597 1063 l 1,3,-1
 451 1236 l 1,4,-1
 309 1063 l 1,5,-1
 194 1063 l 1,6,-1
 367 1334 l 1,0,-1
442 -41 m 0,7,8
 276 -41 276 -41 164.5 95 c 128,-1,9
 53 231 53 231 53 456 c 0,10,11
 53 685 53 685 163.5 827.5 c 128,-1,12
 274 970 274 970 454 970 c 0,13,14
 631 970 631 970 742 806 c 1,15,-1
 742 943 l 1,16,-1
 881 943 l 1,17,-1
 881 155 l 2,18,19
 881 49 881 49 871.5 -28.5 c 128,-1,20
 862 -106 862 -106 835 -178 c 128,-1,21
 808 -250 808 -250 762 -294.5 c 128,-1,22
 716 -339 716 -339 639.5 -365.5 c 128,-1,23
 563 -392 563 -392 458 -392 c 0,24,25
 293 -392 293 -392 193.5 -316.5 c 128,-1,26
 94 -241 94 -241 83 -108 c 1,27,-1
 235 -108 l 1,28,29
 243 -152 243 -152 265.5 -183.5 c 128,-1,30
 288 -215 288 -215 313 -230.5 c 128,-1,31
 338 -246 338 -246 372 -254.5 c 128,-1,32
 406 -263 406 -263 424.5 -264.5 c 128,-1,33
 443 -266 443 -266 464 -266 c 0,34,35
 542 -266 542 -266 594.5 -243.5 c 128,-1,36
 647 -221 647 -221 675.5 -174 c 128,-1,37
 704 -127 704 -127 715.5 -67 c 128,-1,38
 727 -7 727 -7 727 79 c 2,39,-1
 727 127 l 1,40,41
 664 39 664 39 596.5 -1 c 128,-1,42
 529 -41 529 -41 442 -41 c 0,7,8
470 832 m 0,43,44
 350 832 350 832 279.5 733 c 128,-1,45
 209 634 209 634 209 464 c 0,46,47
 209 292 209 292 278.5 194.5 c 128,-1,48
 348 97 348 97 472 97 c 0,49,50
 591 97 591 97 659 193.5 c 128,-1,51
 727 290 727 290 727 458 c 0,52,53
 727 635 727 635 659 733.5 c 128,-1,54
 591 832 591 832 470 832 c 0,43,44
EndSplineSet
Validated: 1
EndChar

StartChar: Gbreve
Encoding: 286 286 226
Width: 1400
GlyphClass: 2
Flags: W
LayerCount: 2
Fore
SplineSet
444 1678 m 1,0,-1
 551 1678 l 1,1,2
 564 1559 564 1559 717 1559 c 0,3,4
 790 1559 790 1559 833 1590 c 128,-1,5
 876 1621 876 1621 881 1678 c 1,6,-1
 987 1678 l 1,7,8
 969 1435 969 1435 713 1435 c 0,9,10
 677 1435 677 1435 643 1441 c 128,-1,11
 609 1447 609 1447 572.5 1463.5 c 128,-1,12
 536 1480 536 1480 509 1506 c 128,-1,13
 482 1532 482 1532 464 1576.5 c 128,-1,14
 446 1621 446 1621 444 1678 c 1,0,-1
247 652 m 0,15,16
 247 583 247 583 259 514 c 128,-1,17
 271 445 271 445 304.5 369.5 c 128,-1,18
 338 294 338 294 388.5 237 c 128,-1,19
 439 180 439 180 524 143 c 128,-1,20
 609 106 609 106 716 106 c 0,21,22
 895 106 895 106 1011.5 220 c 128,-1,23
 1128 334 1128 334 1128 509 c 2,24,-1
 1128 545 l 1,25,-1
 730 545 l 1,26,-1
 730 694 l 1,27,-1
 1277 694 l 1,28,-1
 1277 -7 l 1,29,-1
 1170 -7 l 1,30,-1
 1128 168 l 1,31,32
 1033 61 1033 61 923.5 10 c 128,-1,33
 814 -41 814 -41 680 -41 c 0,34,35
 505 -41 505 -41 368 45.5 c 128,-1,36
 231 132 231 132 155 288 c 128,-1,37
 79 444 79 444 79 643 c 0,38,39
 79 729 79 729 95.5 816 c 128,-1,40
 112 903 112 903 156.5 998.5 c 128,-1,41
 201 1094 201 1094 269 1166.5 c 128,-1,42
 337 1239 337 1239 451 1286.5 c 128,-1,43
 565 1334 565 1334 709 1334 c 0,44,45
 935 1334 935 1334 1079.5 1224 c 128,-1,46
 1224 1114 1224 1114 1258 914 c 1,47,-1
 1087 914 l 1,48,49
 1060 1041 1060 1041 959 1113.5 c 128,-1,50
 858 1186 858 1186 708 1186 c 0,51,52
 500 1186 500 1186 373.5 1040 c 128,-1,53
 247 894 247 894 247 652 c 0,15,16
EndSplineSet
Validated: 1
EndChar

StartChar: gbreve
Encoding: 287 287 227
Width: 1000
GlyphClass: 2
Flags: W
LayerCount: 2
Fore
SplineSet
201 1322 m 1,0,-1
 308 1322 l 1,1,2
 321 1203 321 1203 474 1203 c 0,3,4
 547 1203 547 1203 590 1234 c 128,-1,5
 633 1265 633 1265 638 1322 c 1,6,-1
 744 1322 l 1,7,8
 726 1079 726 1079 470 1079 c 0,9,10
 434 1079 434 1079 400 1085 c 128,-1,11
 366 1091 366 1091 329.5 1107.5 c 128,-1,12
 293 1124 293 1124 266 1150 c 128,-1,13
 239 1176 239 1176 221 1220.5 c 128,-1,14
 203 1265 203 1265 201 1322 c 1,0,-1
442 -41 m 0,15,16
 276 -41 276 -41 164.5 95 c 128,-1,17
 53 231 53 231 53 456 c 0,18,19
 53 685 53 685 163.5 827.5 c 128,-1,20
 274 970 274 970 454 970 c 0,21,22
 631 970 631 970 742 806 c 1,23,-1
 742 943 l 1,24,-1
 881 943 l 1,25,-1
 881 155 l 2,26,27
 881 49 881 49 871.5 -28.5 c 128,-1,28
 862 -106 862 -106 835 -178 c 128,-1,29
 808 -250 808 -250 762 -294.5 c 128,-1,30
 716 -339 716 -339 639.5 -365.5 c 128,-1,31
 563 -392 563 -392 458 -392 c 0,32,33
 293 -392 293 -392 193.5 -316.5 c 128,-1,34
 94 -241 94 -241 83 -108 c 1,35,-1
 235 -108 l 1,36,37
 243 -152 243 -152 265.5 -183.5 c 128,-1,38
 288 -215 288 -215 313 -230.5 c 128,-1,39
 338 -246 338 -246 372 -254.5 c 128,-1,40
 406 -263 406 -263 424.5 -264.5 c 128,-1,41
 443 -266 443 -266 464 -266 c 0,42,43
 542 -266 542 -266 594.5 -243.5 c 128,-1,44
 647 -221 647 -221 675.5 -174 c 128,-1,45
 704 -127 704 -127 715.5 -67 c 128,-1,46
 727 -7 727 -7 727 79 c 2,47,-1
 727 127 l 1,48,49
 664 39 664 39 596.5 -1 c 128,-1,50
 529 -41 529 -41 442 -41 c 0,15,16
470 832 m 0,51,52
 350 832 350 832 279.5 733 c 128,-1,53
 209 634 209 634 209 464 c 0,54,55
 209 292 209 292 278.5 194.5 c 128,-1,56
 348 97 348 97 472 97 c 0,57,58
 591 97 591 97 659 193.5 c 128,-1,59
 727 290 727 290 727 458 c 0,60,61
 727 635 727 635 659 733.5 c 128,-1,62
 591 832 591 832 470 832 c 0,51,52
EndSplineSet
Validated: 1
EndChar

StartChar: Gdotaccent
Encoding: 288 288 228
Width: 1400
GlyphClass: 2
Flags: W
LayerCount: 2
Fore
SplineSet
807 1572 m 1,0,-1
 807 1385 l 1,1,-1
 619 1385 l 1,2,-1
 619 1572 l 1,3,-1
 807 1572 l 1,0,-1
247 652 m 0,4,5
 247 583 247 583 259 514 c 128,-1,6
 271 445 271 445 304.5 369.5 c 128,-1,7
 338 294 338 294 388.5 237 c 128,-1,8
 439 180 439 180 524 143 c 128,-1,9
 609 106 609 106 716 106 c 0,10,11
 895 106 895 106 1011.5 220 c 128,-1,12
 1128 334 1128 334 1128 509 c 2,13,-1
 1128 545 l 1,14,-1
 730 545 l 1,15,-1
 730 694 l 1,16,-1
 1277 694 l 1,17,-1
 1277 -7 l 1,18,-1
 1170 -7 l 1,19,-1
 1128 168 l 1,20,21
 1033 61 1033 61 923.5 10 c 128,-1,22
 814 -41 814 -41 680 -41 c 0,23,24
 505 -41 505 -41 368 45.5 c 128,-1,25
 231 132 231 132 155 288 c 128,-1,26
 79 444 79 444 79 643 c 0,27,28
 79 729 79 729 95.5 816 c 128,-1,29
 112 903 112 903 156.5 998.5 c 128,-1,30
 201 1094 201 1094 269 1166.5 c 128,-1,31
 337 1239 337 1239 451 1286.5 c 128,-1,32
 565 1334 565 1334 709 1334 c 0,33,34
 935 1334 935 1334 1079.5 1224 c 128,-1,35
 1224 1114 1224 1114 1258 914 c 1,36,-1
 1087 914 l 1,37,38
 1060 1041 1060 1041 959 1113.5 c 128,-1,39
 858 1186 858 1186 708 1186 c 0,40,41
 500 1186 500 1186 373.5 1040 c 128,-1,42
 247 894 247 894 247 652 c 0,4,5
EndSplineSet
Validated: 1
EndChar

StartChar: gdotaccent
Encoding: 289 289 229
Width: 1000
GlyphClass: 2
Flags: W
LayerCount: 2
Fore
SplineSet
552 1203 m 1,0,-1
 552 1016 l 1,1,-1
 364 1016 l 1,2,-1
 364 1203 l 1,3,-1
 552 1203 l 1,0,-1
442 -41 m 0,4,5
 276 -41 276 -41 164.5 95 c 128,-1,6
 53 231 53 231 53 456 c 0,7,8
 53 685 53 685 163.5 827.5 c 128,-1,9
 274 970 274 970 454 970 c 0,10,11
 631 970 631 970 742 806 c 1,12,-1
 742 943 l 1,13,-1
 881 943 l 1,14,-1
 881 155 l 2,15,16
 881 49 881 49 871.5 -28.5 c 128,-1,17
 862 -106 862 -106 835 -178 c 128,-1,18
 808 -250 808 -250 762 -294.5 c 128,-1,19
 716 -339 716 -339 639.5 -365.5 c 128,-1,20
 563 -392 563 -392 458 -392 c 0,21,22
 293 -392 293 -392 193.5 -316.5 c 128,-1,23
 94 -241 94 -241 83 -108 c 1,24,-1
 235 -108 l 1,25,26
 243 -152 243 -152 265.5 -183.5 c 128,-1,27
 288 -215 288 -215 313 -230.5 c 128,-1,28
 338 -246 338 -246 372 -254.5 c 128,-1,29
 406 -263 406 -263 424.5 -264.5 c 128,-1,30
 443 -266 443 -266 464 -266 c 0,31,32
 542 -266 542 -266 594.5 -243.5 c 128,-1,33
 647 -221 647 -221 675.5 -174 c 128,-1,34
 704 -127 704 -127 715.5 -67 c 128,-1,35
 727 -7 727 -7 727 79 c 2,36,-1
 727 127 l 1,37,38
 664 39 664 39 596.5 -1 c 128,-1,39
 529 -41 529 -41 442 -41 c 0,4,5
470 832 m 0,40,41
 350 832 350 832 279.5 733 c 128,-1,42
 209 634 209 634 209 464 c 0,43,44
 209 292 209 292 278.5 194.5 c 128,-1,45
 348 97 348 97 472 97 c 0,46,47
 591 97 591 97 659 193.5 c 128,-1,48
 727 290 727 290 727 458 c 0,49,50
 727 635 727 635 659 733.5 c 128,-1,51
 591 832 591 832 470 832 c 0,40,41
EndSplineSet
Validated: 1
EndChar

StartChar: gcommaaccent
Encoding: 291 291 231
Width: 1254
GlyphClass: 2
Flags: W
LayerCount: 2
Fore
SplineSet
522 1049 m 1,0,-1
 376 1049 l 1,1,-1
 376 1174 l 2,2,3
 376 1332 376 1332 522 1332 c 1,4,-1
 522 1255 l 1,5,-1
 516 1255 l 2,6,7
 499 1255 499 1255 490 1253.5 c 128,-1,8
 481 1252 481 1252 469.5 1245 c 128,-1,9
 458 1238 458 1238 453 1220.5 c 128,-1,10
 448 1203 448 1203 448 1175 c 1,11,-1
 522 1175 l 1,12,-1
 522 1049 l 1,0,-1
442 -41 m 0,13,14
 276 -41 276 -41 164.5 95 c 128,-1,15
 53 231 53 231 53 456 c 0,16,17
 53 685 53 685 163.5 827.5 c 128,-1,18
 274 970 274 970 454 970 c 0,19,20
 631 970 631 970 742 806 c 1,21,-1
 742 943 l 1,22,-1
 881 943 l 1,23,-1
 881 155 l 2,24,25
 881 49 881 49 871.5 -28.5 c 128,-1,26
 862 -106 862 -106 835 -178 c 128,-1,27
 808 -250 808 -250 762 -294.5 c 128,-1,28
 716 -339 716 -339 639.5 -365.5 c 128,-1,29
 563 -392 563 -392 458 -392 c 0,30,31
 293 -392 293 -392 193.5 -316.5 c 128,-1,32
 94 -241 94 -241 83 -108 c 1,33,-1
 235 -108 l 1,34,35
 243 -152 243 -152 265.5 -183.5 c 128,-1,36
 288 -215 288 -215 313 -230.5 c 128,-1,37
 338 -246 338 -246 372 -254.5 c 128,-1,38
 406 -263 406 -263 424.5 -264.5 c 128,-1,39
 443 -266 443 -266 464 -266 c 0,40,41
 542 -266 542 -266 594.5 -243.5 c 128,-1,42
 647 -221 647 -221 675.5 -174 c 128,-1,43
 704 -127 704 -127 715.5 -67 c 128,-1,44
 727 -7 727 -7 727 79 c 2,45,-1
 727 127 l 1,46,47
 664 39 664 39 596.5 -1 c 128,-1,48
 529 -41 529 -41 442 -41 c 0,13,14
470 832 m 0,49,50
 350 832 350 832 279.5 733 c 128,-1,51
 209 634 209 634 209 464 c 0,52,53
 209 292 209 292 278.5 194.5 c 128,-1,54
 348 97 348 97 472 97 c 0,55,56
 591 97 591 97 659 193.5 c 128,-1,57
 727 290 727 290 727 458 c 0,58,59
 727 635 727 635 659 733.5 c 128,-1,60
 591 832 591 832 470 832 c 0,49,50
EndSplineSet
Validated: 1
EndChar

StartChar: Hcircumflex
Encoding: 292 292 232
Width: 1299
GlyphClass: 2
Flags: W
LayerCount: 2
Fore
SplineSet
569 1654 m 1,0,-1
 739 1654 l 1,1,-1
 912 1383 l 1,2,-1
 799 1383 l 1,3,-1
 653 1556 l 1,4,-1
 511 1383 l 1,5,-1
 396 1383 l 1,6,-1
 569 1654 l 1,0,-1
991 598 m 1,7,-1
 317 598 l 1,8,-1
 317 0 l 1,9,-1
 149 0 l 1,10,-1
 149 1313 l 1,11,-1
 317 1313 l 1,12,-1
 317 745 l 1,13,-1
 991 745 l 1,14,-1
 991 1313 l 1,15,-1
 1159 1313 l 1,16,-1
 1159 0 l 1,17,-1
 991 0 l 1,18,-1
 991 598 l 1,7,-1
EndSplineSet
Validated: 1
EndChar

StartChar: hcircumflex
Encoding: 293 293 233
Width: 1000
GlyphClass: 2
Flags: W
LayerCount: 2
Fore
SplineSet
115 1654 m 1,0,-1
 285 1654 l 1,1,-1
 458 1383 l 1,2,-1
 345 1383 l 1,3,-1
 199 1556 l 1,4,-1
 57 1383 l 1,5,-1
 -58 1383 l 1,6,-1
 115 1654 l 1,0,-1
725 653 m 2,7,8
 725 706 725 706 706 744.5 c 128,-1,9
 687 783 687 783 656 802.5 c 128,-1,10
 625 822 625 822 594 830.5 c 128,-1,11
 563 839 563 839 530 839 c 0,12,13
 415 839 415 839 345.5 752 c 128,-1,14
 276 665 276 665 276 521 c 2,15,-1
 276 0 l 1,16,-1
 126 0 l 1,17,-1
 126 1313 l 1,18,-1
 276 1313 l 1,19,-1
 276 814 l 1,20,21
 342 900 342 900 409.5 935 c 128,-1,22
 477 970 477 970 578 970 c 0,23,24
 715 970 715 970 795 901 c 128,-1,25
 875 832 875 832 875 713 c 2,26,-1
 875 0 l 1,27,-1
 725 0 l 1,28,-1
 725 653 l 2,7,8
EndSplineSet
Validated: 1
EndChar

StartChar: Hbar
Encoding: 294 294 234
Width: 1299
GlyphClass: 2
Flags: W
LayerCount: 2
Fore
SplineSet
317 907 m 1,0,-1
 317 745 l 1,1,-1
 991 745 l 1,2,-1
 991 907 l 1,3,-1
 317 907 l 1,0,-1
149 1037 m 1,4,-1
 149 1313 l 1,5,-1
 317 1313 l 1,6,-1
 317 1037 l 1,7,-1
 991 1037 l 1,8,-1
 991 1313 l 1,9,-1
 1159 1313 l 1,10,-1
 1159 1037 l 1,11,-1
 1238 1037 l 1,12,-1
 1238 911 l 1,13,-1
 1159 911 l 1,14,-1
 1159 0 l 1,15,-1
 991 0 l 1,16,-1
 991 598 l 1,17,-1
 319 598 l 1,18,-1
 319 0 l 1,19,-1
 149 0 l 1,20,-1
 149 911 l 1,21,-1
 70 911 l 1,22,-1
 70 1037 l 1,23,-1
 149 1037 l 1,4,-1
EndSplineSet
Validated: 1
EndChar

StartChar: hbar
Encoding: 295 295 235
Width: 1000
GlyphClass: 2
Flags: W
LayerCount: 2
Fore
SplineSet
725 653 m 2,0,1
 725 706 725 706 706 744.5 c 128,-1,2
 687 783 687 783 656 802.5 c 128,-1,3
 625 822 625 822 594 830.5 c 128,-1,4
 563 839 563 839 530 839 c 0,5,6
 415 839 415 839 345.5 752 c 128,-1,7
 276 665 276 665 276 521 c 2,8,-1
 276 0 l 1,9,-1
 126 0 l 1,10,-1
 126 1080 l 1,11,-1
 12 1080 l 1,12,-1
 12 1176 l 1,13,-1
 126 1176 l 1,14,-1
 126 1313 l 1,15,-1
 276 1313 l 1,16,-1
 276 1176 l 1,17,-1
 545 1176 l 1,18,-1
 545 1080 l 1,19,-1
 276 1080 l 1,20,-1
 276 814 l 1,21,22
 342 900 342 900 409.5 935 c 128,-1,23
 477 970 477 970 578 970 c 0,24,25
 715 970 715 970 795 901 c 128,-1,26
 875 832 875 832 875 713 c 2,27,-1
 875 0 l 1,28,-1
 725 0 l 1,29,-1
 725 653 l 2,0,1
EndSplineSet
Validated: 1
EndChar

StartChar: Itilde
Encoding: 296 296 236
Width: 500
GlyphClass: 2
Flags: W
LayerCount: 2
Fore
SplineSet
137 1572 m 0,0,1
 183 1572 183 1572 262.5 1538.5 c 128,-1,2
 342 1505 342 1505 377 1505 c 0,3,4
 423 1505 423 1505 444 1572 c 1,5,-1
 548 1572 l 1,6,7
 523 1385 523 1385 388 1385 c 0,8,9
 353 1385 353 1385 262.5 1418.5 c 128,-1,10
 172 1452 172 1452 147 1452 c 0,11,12
 106 1452 106 1452 87 1386 c 1,13,-1
 -16 1386 l 1,14,15
 -2 1475 -2 1475 38 1523.5 c 128,-1,16
 78 1572 78 1572 137 1572 c 0,0,1
349 1313 m 1,17,-1
 349 0 l 1,18,-1
 180 0 l 1,19,-1
 180 1313 l 1,20,-1
 349 1313 l 1,17,-1
EndSplineSet
Validated: 1
EndChar

StartChar: itilde
Encoding: 297 297 237
Width: 500
GlyphClass: 2
Flags: W
LayerCount: 2
Fore
SplineSet
116 1202 m 0,0,1
 162 1202 162 1202 241.5 1168.5 c 128,-1,2
 321 1135 321 1135 356 1135 c 0,3,4
 402 1135 402 1135 423 1202 c 1,5,-1
 527 1202 l 1,6,7
 502 1015 502 1015 367 1015 c 0,8,9
 332 1015 332 1015 241.5 1048.5 c 128,-1,10
 151 1082 151 1082 126 1082 c 0,11,12
 85 1082 85 1082 66 1016 c 1,13,-1
 -37 1016 l 1,14,15
 -23 1105 -23 1105 17 1153.5 c 128,-1,16
 57 1202 57 1202 116 1202 c 0,0,1
319 943 m 1,17,-1
 319 0 l 1,18,-1
 169 0 l 1,19,-1
 169 943 l 1,20,-1
 319 943 l 1,17,-1
EndSplineSet
Validated: 1
EndChar

StartChar: Imacron
Encoding: 298 298 238
Width: 500
GlyphClass: 2
Flags: W
LayerCount: 2
Fore
SplineSet
512 1568 m 1,0,-1
 512 1441 l 1,1,-1
 18 1441 l 1,2,-1
 18 1568 l 1,3,-1
 512 1568 l 1,0,-1
349 1313 m 1,4,-1
 349 0 l 1,5,-1
 180 0 l 1,6,-1
 180 1313 l 1,7,-1
 349 1313 l 1,4,-1
EndSplineSet
Validated: 1
EndChar

StartChar: imacron
Encoding: 299 299 239
Width: 500
GlyphClass: 2
Flags: W
LayerCount: 2
Fore
SplineSet
491 1204 m 1,0,-1
 491 1077 l 1,1,-1
 -3 1077 l 1,2,-1
 -3 1204 l 1,3,-1
 491 1204 l 1,0,-1
319 943 m 1,4,-1
 319 0 l 1,5,-1
 169 0 l 1,6,-1
 169 943 l 1,7,-1
 319 943 l 1,4,-1
EndSplineSet
Validated: 1
EndChar

StartChar: Ibreve
Encoding: 300 300 240
Width: 500
GlyphClass: 2
Flags: W
LayerCount: 2
Fore
SplineSet
-6 1628 m 1,0,-1
 101 1628 l 1,1,2
 114 1509 114 1509 267 1509 c 0,3,4
 340 1509 340 1509 383 1540 c 128,-1,5
 426 1571 426 1571 431 1628 c 1,6,-1
 537 1628 l 1,7,8
 519 1385 519 1385 263 1385 c 0,9,10
 227 1385 227 1385 193 1391 c 128,-1,11
 159 1397 159 1397 122.5 1413.5 c 128,-1,12
 86 1430 86 1430 59 1456 c 128,-1,13
 32 1482 32 1482 14 1526.5 c 128,-1,14
 -4 1571 -4 1571 -6 1628 c 1,0,-1
349 1313 m 1,15,-1
 349 0 l 1,16,-1
 180 0 l 1,17,-1
 180 1313 l 1,18,-1
 349 1313 l 1,15,-1
EndSplineSet
Validated: 1
EndChar

StartChar: ibreve
Encoding: 301 301 241
Width: 500
GlyphClass: 2
Flags: W
LayerCount: 2
Fore
SplineSet
-28 1258 m 1,0,-1
 79 1258 l 1,1,2
 92 1139 92 1139 245 1139 c 0,3,4
 318 1139 318 1139 361 1170 c 128,-1,5
 404 1201 404 1201 409 1258 c 1,6,-1
 515 1258 l 1,7,8
 497 1015 497 1015 241 1015 c 0,9,10
 205 1015 205 1015 171 1021 c 128,-1,11
 137 1027 137 1027 100.5 1043.5 c 128,-1,12
 64 1060 64 1060 37 1086 c 128,-1,13
 10 1112 10 1112 -8 1156.5 c 128,-1,14
 -26 1201 -26 1201 -28 1258 c 1,0,-1
319 943 m 1,15,-1
 319 0 l 1,16,-1
 169 0 l 1,17,-1
 169 943 l 1,18,-1
 319 943 l 1,15,-1
EndSplineSet
Validated: 1
EndChar

StartChar: Iogonek
Encoding: 302 302 242
Width: 500
GlyphClass: 2
Flags: W
LayerCount: 2
Fore
SplineSet
286 -370 m 0,0,1
 184 -370 184 -370 116 -323.5 c 128,-1,2
 48 -277 48 -277 48 -199 c 0,3,4
 48 -135 48 -135 94 -82.5 c 128,-1,5
 140 -30 140 -30 222 0 c 1,6,-1
 348 0 l 1,7,8
 249 -56 249 -56 214 -95 c 128,-1,9
 179 -134 179 -134 179 -191 c 0,10,11
 179 -288 179 -288 309 -288 c 0,12,13
 376 -288 376 -288 423 -270 c 1,14,-1
 423 -350 l 1,15,16
 335 -370 335 -370 286 -370 c 0,0,1
349 1313 m 1,17,-1
 349 0 l 1,18,-1
 180 0 l 1,19,-1
 180 1313 l 1,20,-1
 349 1313 l 1,17,-1
EndSplineSet
Validated: 5
EndChar

StartChar: iogonek
Encoding: 303 303 243
Width: 399
GlyphClass: 2
Flags: W
LayerCount: 2
Fore
SplineSet
207 -370 m 0,0,1
 105 -370 105 -370 37 -323.5 c 128,-1,2
 -31 -277 -31 -277 -31 -199 c 0,3,4
 -31 -135 -31 -135 15 -82.5 c 128,-1,5
 61 -30 61 -30 143 0 c 1,6,-1
 269 0 l 1,7,8
 170 -56 170 -56 135 -95 c 128,-1,9
 100 -134 100 -134 100 -191 c 0,10,11
 100 -288 100 -288 230 -288 c 0,12,13
 297 -288 297 -288 344 -270 c 1,14,-1
 344 -350 l 1,15,16
 256 -370 256 -370 207 -370 c 0,0,1
270 1313 m 1,17,-1
 270 1123 l 1,18,-1
 119 1123 l 1,19,-1
 119 1313 l 1,20,-1
 270 1313 l 1,17,-1
271 943 m 1,21,-1
 271 0 l 1,22,-1
 121 0 l 1,23,-1
 121 943 l 1,24,-1
 271 943 l 1,21,-1
EndSplineSet
Validated: 5
EndChar

StartChar: Idotaccent
Encoding: 304 304 244
Width: 500
GlyphClass: 2
Flags: W
LayerCount: 2
Fore
SplineSet
358 1630 m 1,0,-1
 358 1443 l 1,1,-1
 170 1443 l 1,2,-1
 170 1630 l 1,3,-1
 358 1630 l 1,0,-1
349 1313 m 1,4,-1
 349 0 l 1,5,-1
 180 0 l 1,6,-1
 180 1313 l 1,7,-1
 349 1313 l 1,4,-1
EndSplineSet
Validated: 1
EndChar

StartChar: dotlessi
Encoding: 305 305 245
Width: 500
GlyphClass: 2
Flags: W
LayerCount: 2
Fore
SplineSet
319 943 m 1,0,-1
 319 0 l 1,1,-1
 169 0 l 1,2,-1
 169 943 l 1,3,-1
 319 943 l 1,0,-1
EndSplineSet
Validated: 1
EndChar

StartChar: Jcircumflex
Encoding: 308 308 248
Width: 900
GlyphClass: 2
Flags: W
LayerCount: 2
Fore
SplineSet
598 1654 m 1,0,-1
 768 1654 l 1,1,-1
 941 1383 l 1,2,-1
 828 1383 l 1,3,-1
 682 1556 l 1,4,-1
 540 1383 l 1,5,-1
 425 1383 l 1,6,-1
 598 1654 l 1,0,-1
398 98 m 0,7,8
 512 98 512 98 556 174 c 128,-1,9
 600 250 600 250 600 389 c 2,10,-1
 600 1313 l 1,11,-1
 767 1313 l 1,12,-1
 767 328 l 2,13,14
 767 158 767 158 667 58.5 c 128,-1,15
 567 -41 567 -41 396 -41 c 0,16,17
 227 -41 227 -41 129 52.5 c 128,-1,18
 31 146 31 146 31 306 c 2,19,-1
 31 421 l 1,20,-1
 202 421 l 1,21,-1
 202 336 l 2,22,23
 202 222 202 222 252.5 160 c 128,-1,24
 303 98 303 98 398 98 c 0,7,8
EndSplineSet
Validated: 1
EndChar

StartChar: jcircumflex
Encoding: 309 309 249
Width: 399
GlyphClass: 2
Flags: W
LayerCount: 2
Fore
SplineSet
126 943 m 1,0,-1
 276 943 l 1,1,-1
 276 -197 l 2,2,3
 276 -292 276 -292 210.5 -342 c 128,-1,4
 145 -392 145 -392 18 -392 c 0,5,6
 -10 -392 -10 -392 -32 -386 c 1,7,-1
 -32 -259 l 1,8,9
 -2 -262 -2 -262 4 -262 c 0,10,11
 73 -262 73 -262 99.5 -234.5 c 128,-1,12
 126 -207 126 -207 126 -137 c 2,13,-1
 126 943 l 1,0,-1
115 1334 m 1,14,-1
 285 1334 l 1,15,-1
 458 1063 l 1,16,-1
 345 1063 l 1,17,-1
 199 1236 l 1,18,-1
 57 1063 l 1,19,-1
 -58 1063 l 1,20,-1
 115 1334 l 1,14,-1
EndSplineSet
Validated: 1
EndChar

StartChar: kgreenlandic
Encoding: 312 312 252
Width: 900
GlyphClass: 2
Flags: W
LayerCount: 2
Fore
SplineSet
254 943 m 1,0,-1
 254 544 l 1,1,-1
 653 943 l 1,2,-1
 846 943 l 1,3,-1
 356 475 l 1,4,-1
 904 0 l 1,5,-1
 718 0 l 1,6,-1
 254 389 l 1,7,-1
 254 0 l 1,8,-1
 104 0 l 1,9,-1
 104 943 l 1,10,-1
 254 943 l 1,0,-1
EndSplineSet
Validated: 1
EndChar

StartChar: Lacute
Encoding: 313 313 253
Width: 1000
GlyphClass: 2
Flags: W
LayerCount: 2
Fore
SplineSet
298 1690 m 1,0,-1
 502 1690 l 1,1,-1
 234 1424 l 1,2,-1
 126 1424 l 1,3,-1
 298 1690 l 1,0,-1
312 1313 m 1,4,-1
 312 148 l 1,5,-1
 960 148 l 1,6,-1
 960 0 l 1,7,-1
 144 0 l 1,8,-1
 144 1313 l 1,9,-1
 312 1313 l 1,4,-1
EndSplineSet
Validated: 1
EndChar

StartChar: lacute
Encoding: 314 314 254
Width: 399
GlyphClass: 2
Flags: W
LayerCount: 2
Fore
SplineSet
288 1690 m 1,0,-1
 492 1690 l 1,1,-1
 224 1424 l 1,2,-1
 116 1424 l 1,3,-1
 288 1690 l 1,0,-1
274 1313 m 1,4,-1
 274 0 l 1,5,-1
 122 0 l 1,6,-1
 122 1313 l 1,7,-1
 274 1313 l 1,4,-1
EndSplineSet
Validated: 1
EndChar

StartChar: Lslash
Encoding: 321 321 261
Width: 1000
GlyphClass: 2
Flags: W
LayerCount: 2
Fore
SplineSet
312 731 m 1,0,-1
 619 948 l 1,1,-1
 619 811 l 1,2,-1
 312 593 l 1,3,-1
 312 148 l 1,4,-1
 994 148 l 1,5,-1
 994 0 l 1,6,-1
 144 0 l 1,7,-1
 144 504 l 1,8,-1
 0 401 l 1,9,-1
 0 540 l 1,10,-1
 144 641 l 1,11,-1
 144 1313 l 1,12,-1
 312 1313 l 1,13,-1
 312 731 l 1,0,-1
EndSplineSet
Validated: 1
EndChar

StartChar: lslash
Encoding: 322 322 262
Width: 399
GlyphClass: 2
Flags: W
LayerCount: 2
Fore
SplineSet
263 758 m 1,0,-1
 382 850 l 1,1,-1
 382 734 l 1,2,-1
 263 643 l 1,3,-1
 263 0 l 1,4,-1
 113 0 l 1,5,-1
 113 564 l 1,6,-1
 0 473 l 1,7,-1
 0 588 l 1,8,-1
 113 679 l 1,9,-1
 113 1313 l 1,10,-1
 263 1313 l 1,11,-1
 263 758 l 1,0,-1
EndSplineSet
Validated: 1
EndChar

StartChar: Nacute
Encoding: 323 323 263
Width: 1299
GlyphClass: 2
Flags: W
LayerCount: 2
Fore
SplineSet
700 1690 m 1,0,-1
 904 1690 l 1,1,-1
 636 1424 l 1,2,-1
 528 1424 l 1,3,-1
 700 1690 l 1,0,-1
1163 1313 m 1,4,-1
 1163 0 l 1,5,-1
 974 0 l 1,6,-1
 295 1063 l 1,7,-1
 295 0 l 1,8,-1
 137 0 l 1,9,-1
 137 1313 l 1,10,-1
 319 1313 l 1,11,-1
 1004 240 l 1,12,-1
 1004 1313 l 1,13,-1
 1163 1313 l 1,4,-1
EndSplineSet
Validated: 1
EndChar

StartChar: nacute
Encoding: 324 324 264
Width: 1000
GlyphClass: 2
Flags: W
LayerCount: 2
Fore
SplineSet
558 1330 m 1,0,-1
 762 1330 l 1,1,-1
 494 1064 l 1,2,-1
 386 1064 l 1,3,-1
 558 1330 l 1,0,-1
126 943 m 1,4,-1
 264 943 l 1,5,-1
 264 785 l 1,6,7
 327 884 327 884 399.5 927 c 128,-1,8
 472 970 472 970 578 970 c 0,9,10
 714 970 714 970 795 900 c 128,-1,11
 876 830 876 830 876 713 c 2,12,-1
 876 0 l 1,13,-1
 727 0 l 1,14,-1
 727 653 l 2,15,16
 727 739 727 739 674.5 789 c 128,-1,17
 622 839 622 839 533 839 c 0,18,19
 417 839 417 839 347 752 c 128,-1,20
 277 665 277 665 277 521 c 2,21,-1
 277 0 l 1,22,-1
 126 0 l 1,23,-1
 126 943 l 1,4,-1
EndSplineSet
Validated: 1
EndChar

StartChar: Ncaron
Encoding: 327 327 267
Width: 1299
GlyphClass: 2
Flags: W
LayerCount: 2
Fore
SplineSet
736 1421 m 1,0,-1
 564 1421 l 1,1,-1
 392 1692 l 1,2,-1
 506 1692 l 1,3,-1
 651 1520 l 1,4,-1
 794 1692 l 1,5,-1
 909 1692 l 1,6,-1
 736 1421 l 1,0,-1
1163 1313 m 1,7,-1
 1163 0 l 1,8,-1
 974 0 l 1,9,-1
 295 1063 l 1,10,-1
 295 0 l 1,11,-1
 137 0 l 1,12,-1
 137 1313 l 1,13,-1
 319 1313 l 1,14,-1
 1004 240 l 1,15,-1
 1004 1313 l 1,16,-1
 1163 1313 l 1,7,-1
EndSplineSet
Validated: 1
EndChar

StartChar: ncaron
Encoding: 328 328 268
Width: 1000
GlyphClass: 2
Flags: W
LayerCount: 2
Fore
SplineSet
587 1061 m 1,0,-1
 415 1061 l 1,1,-1
 243 1332 l 1,2,-1
 357 1332 l 1,3,-1
 502 1160 l 1,4,-1
 645 1332 l 1,5,-1
 760 1332 l 1,6,-1
 587 1061 l 1,0,-1
126 943 m 1,7,-1
 264 943 l 1,8,-1
 264 785 l 1,9,10
 327 884 327 884 399.5 927 c 128,-1,11
 472 970 472 970 578 970 c 0,12,13
 714 970 714 970 795 900 c 128,-1,14
 876 830 876 830 876 713 c 2,15,-1
 876 0 l 1,16,-1
 727 0 l 1,17,-1
 727 653 l 2,18,19
 727 739 727 739 674.5 789 c 128,-1,20
 622 839 622 839 533 839 c 0,21,22
 417 839 417 839 347 752 c 128,-1,23
 277 665 277 665 277 521 c 2,24,-1
 277 0 l 1,25,-1
 126 0 l 1,26,-1
 126 943 l 1,7,-1
EndSplineSet
Validated: 1
EndChar

StartChar: Eng
Encoding: 330 330 270
Width: 1299
GlyphClass: 2
Flags: W
LayerCount: 2
Fore
SplineSet
1004 240 m 1,0,-1
 1004 1313 l 1,1,-1
 1163 1313 l 1,2,-1
 1163 -197 l 2,3,4
 1163 -292 1163 -292 1093.5 -342 c 128,-1,5
 1024 -392 1024 -392 896 -392 c 0,6,7
 868 -392 868 -392 846 -386 c 1,8,-1
 846 -241 l 1,9,10
 876 -242 876 -242 882 -242 c 0,11,12
 943 -244 943 -244 973.5 -219.5 c 128,-1,13
 1004 -195 1004 -195 1004 -137 c 2,14,-1
 1004 -48 l 1,15,-1
 295 1063 l 1,16,-1
 295 0 l 1,17,-1
 137 0 l 1,18,-1
 137 1313 l 1,19,-1
 319 1313 l 1,20,-1
 1004 240 l 1,0,-1
EndSplineSet
Validated: 33
EndChar

StartChar: eng
Encoding: 331 331 271
Width: 1000
GlyphClass: 2
Flags: W
LayerCount: 2
Fore
SplineSet
876 713 m 2,0,-1
 876 -197 l 2,1,2
 876 -292 876 -292 810.5 -342 c 128,-1,3
 745 -392 745 -392 619 -392 c 0,4,5
 591 -392 591 -392 569 -386 c 1,6,-1
 569 -259 l 1,7,8
 600 -262 600 -262 605 -262 c 0,9,10
 673 -262 673 -262 700 -234.5 c 128,-1,11
 727 -207 727 -207 727 -137 c 2,12,-1
 727 653 l 2,13,14
 727 739 727 739 674.5 789 c 128,-1,15
 622 839 622 839 533 839 c 0,16,17
 417 839 417 839 347 752 c 128,-1,18
 277 665 277 665 277 521 c 2,19,-1
 277 0 l 1,20,-1
 126 0 l 1,21,-1
 126 943 l 1,22,-1
 264 943 l 1,23,-1
 264 785 l 1,24,25
 327 884 327 884 399.5 927 c 128,-1,26
 472 970 472 970 578 970 c 0,27,28
 714 970 714 970 795 900 c 128,-1,29
 876 830 876 830 876 713 c 2,0,-1
EndSplineSet
Validated: 1
EndChar

StartChar: Omacron
Encoding: 332 332 272
Width: 1400
GlyphClass: 2
Flags: W
LayerCount: 2
Fore
SplineSet
947 1568 m 1,0,-1
 947 1441 l 1,1,-1
 453 1441 l 1,2,-1
 453 1568 l 1,3,-1
 947 1568 l 1,0,-1
1336 636 m 0,4,5
 1336 494 1336 494 1291.5 370.5 c 128,-1,6
 1247 247 1247 247 1166.5 155.5 c 128,-1,7
 1086 64 1086 64 966 11.5 c 128,-1,8
 846 -41 846 -41 702 -41 c 0,9,10
 418 -41 418 -41 243 148.5 c 128,-1,11
 68 338 68 338 68 646 c 0,12,13
 68 953 68 953 243 1143.5 c 128,-1,14
 418 1334 418 1334 701 1334 c 0,15,16
 989 1334 989 1334 1162.5 1143.5 c 128,-1,17
 1336 953 1336 953 1336 636 c 0,4,5
701 1186 m 0,18,19
 492 1186 492 1186 363.5 1037.5 c 128,-1,20
 235 889 235 889 235 646 c 128,-1,21
 235 403 235 403 363.5 254.5 c 128,-1,22
 492 106 492 106 702 106 c 0,23,24
 910 106 910 106 1039.5 253.5 c 128,-1,25
 1169 401 1169 401 1169 638 c 0,26,27
 1169 887 1169 887 1041 1036.5 c 128,-1,28
 913 1186 913 1186 701 1186 c 0,18,19
EndSplineSet
Validated: 1
EndChar

StartChar: omacron
Encoding: 333 333 273
Width: 1000
GlyphClass: 2
Flags: W
LayerCount: 2
Fore
SplineSet
736 1204 m 1,0,-1
 736 1077 l 1,1,-1
 242 1077 l 1,2,-1
 242 1204 l 1,3,-1
 736 1204 l 1,0,-1
490 970 m 0,4,5
 693 970 693 970 805.5 835.5 c 128,-1,6
 918 701 918 701 918 457 c 0,7,8
 918 225 918 225 804 92 c 128,-1,9
 690 -41 690 -41 492 -41 c 0,10,11
 291 -41 291 -41 178 93 c 128,-1,12
 65 227 65 227 65 464 c 128,-1,13
 65 701 65 701 178.5 835.5 c 128,-1,14
 292 970 292 970 490 970 c 0,4,5
492 832 m 128,-1,16
 366 832 366 832 293.5 733 c 128,-1,17
 221 634 221 634 221 464 c 0,18,19
 221 293 221 293 293.5 195 c 128,-1,20
 366 97 366 97 492 97 c 0,21,22
 616 97 616 97 688.5 194.5 c 128,-1,23
 761 292 761 292 761 458 c 0,24,25
 761 635 761 635 689.5 733.5 c 128,-1,15
 618 832 618 832 492 832 c 128,-1,16
EndSplineSet
Validated: 1
EndChar

StartChar: Obreve
Encoding: 334 334 274
Width: 1400
GlyphClass: 2
Flags: W
LayerCount: 2
Fore
SplineSet
429 1628 m 1,0,-1
 536 1628 l 1,1,2
 549 1509 549 1509 702 1509 c 0,3,4
 775 1509 775 1509 818 1540 c 128,-1,5
 861 1571 861 1571 866 1628 c 1,6,-1
 972 1628 l 1,7,8
 954 1385 954 1385 698 1385 c 0,9,10
 662 1385 662 1385 628 1391 c 128,-1,11
 594 1397 594 1397 557.5 1413.5 c 128,-1,12
 521 1430 521 1430 494 1456 c 128,-1,13
 467 1482 467 1482 449 1526.5 c 128,-1,14
 431 1571 431 1571 429 1628 c 1,0,-1
1336 636 m 0,15,16
 1336 494 1336 494 1291.5 370.5 c 128,-1,17
 1247 247 1247 247 1166.5 155.5 c 128,-1,18
 1086 64 1086 64 966 11.5 c 128,-1,19
 846 -41 846 -41 702 -41 c 0,20,21
 418 -41 418 -41 243 148.5 c 128,-1,22
 68 338 68 338 68 646 c 0,23,24
 68 953 68 953 243 1143.5 c 128,-1,25
 418 1334 418 1334 701 1334 c 0,26,27
 989 1334 989 1334 1162.5 1143.5 c 128,-1,28
 1336 953 1336 953 1336 636 c 0,15,16
701 1186 m 0,29,30
 492 1186 492 1186 363.5 1037.5 c 128,-1,31
 235 889 235 889 235 646 c 128,-1,32
 235 403 235 403 363.5 254.5 c 128,-1,33
 492 106 492 106 702 106 c 0,34,35
 910 106 910 106 1039.5 253.5 c 128,-1,36
 1169 401 1169 401 1169 638 c 0,37,38
 1169 887 1169 887 1041 1036.5 c 128,-1,39
 913 1186 913 1186 701 1186 c 0,29,30
EndSplineSet
Validated: 1
EndChar

StartChar: obreve
Encoding: 335 335 275
Width: 1000
GlyphClass: 2
Flags: W
LayerCount: 2
Fore
SplineSet
220 1258 m 1,0,-1
 327 1258 l 1,1,2
 340 1139 340 1139 493 1139 c 0,3,4
 566 1139 566 1139 609 1170 c 128,-1,5
 652 1201 652 1201 657 1258 c 1,6,-1
 763 1258 l 1,7,8
 745 1015 745 1015 489 1015 c 0,9,10
 453 1015 453 1015 419 1021 c 128,-1,11
 385 1027 385 1027 348.5 1043.5 c 128,-1,12
 312 1060 312 1060 285 1086 c 128,-1,13
 258 1112 258 1112 240 1156.5 c 128,-1,14
 222 1201 222 1201 220 1258 c 1,0,-1
490 970 m 0,15,16
 693 970 693 970 805.5 835.5 c 128,-1,17
 918 701 918 701 918 457 c 0,18,19
 918 225 918 225 804 92 c 128,-1,20
 690 -41 690 -41 492 -41 c 0,21,22
 291 -41 291 -41 178 93 c 128,-1,23
 65 227 65 227 65 464 c 128,-1,24
 65 701 65 701 178.5 835.5 c 128,-1,25
 292 970 292 970 490 970 c 0,15,16
492 832 m 128,-1,27
 366 832 366 832 293.5 733 c 128,-1,28
 221 634 221 634 221 464 c 0,29,30
 221 293 221 293 293.5 195 c 128,-1,31
 366 97 366 97 492 97 c 0,32,33
 616 97 616 97 688.5 194.5 c 128,-1,34
 761 292 761 292 761 458 c 0,35,36
 761 635 761 635 689.5 733.5 c 128,-1,26
 618 832 618 832 492 832 c 128,-1,27
EndSplineSet
Validated: 1
EndChar

StartChar: Ohungarumlaut
Encoding: 336 336 276
Width: 1400
GlyphClass: 2
Flags: W
LayerCount: 2
Fore
SplineSet
655 1692 m 1,0,-1
 858 1692 l 1,1,-1
 591 1422 l 1,2,-1
 483 1422 l 1,3,-1
 655 1692 l 1,0,-1
967 1692 m 1,4,-1
 1171 1692 l 1,5,-1
 903 1422 l 1,6,-1
 795 1422 l 1,7,-1
 967 1692 l 1,4,-1
1336 636 m 0,8,9
 1336 494 1336 494 1291.5 370.5 c 128,-1,10
 1247 247 1247 247 1166.5 155.5 c 128,-1,11
 1086 64 1086 64 966 11.5 c 128,-1,12
 846 -41 846 -41 702 -41 c 0,13,14
 418 -41 418 -41 243 148.5 c 128,-1,15
 68 338 68 338 68 646 c 0,16,17
 68 953 68 953 243 1143.5 c 128,-1,18
 418 1334 418 1334 701 1334 c 0,19,20
 989 1334 989 1334 1162.5 1143.5 c 128,-1,21
 1336 953 1336 953 1336 636 c 0,8,9
701 1186 m 0,22,23
 492 1186 492 1186 363.5 1037.5 c 128,-1,24
 235 889 235 889 235 646 c 128,-1,25
 235 403 235 403 363.5 254.5 c 128,-1,26
 492 106 492 106 702 106 c 0,27,28
 910 106 910 106 1039.5 253.5 c 128,-1,29
 1169 401 1169 401 1169 638 c 0,30,31
 1169 887 1169 887 1041 1036.5 c 128,-1,32
 913 1186 913 1186 701 1186 c 0,22,23
EndSplineSet
Validated: 1
EndChar

StartChar: ohungarumlaut
Encoding: 337 337 277
Width: 1000
GlyphClass: 2
Flags: W
LayerCount: 2
Fore
SplineSet
430 1332 m 1,0,-1
 633 1332 l 1,1,-1
 366 1062 l 1,2,-1
 258 1062 l 1,3,-1
 430 1332 l 1,0,-1
742 1332 m 1,4,-1
 946 1332 l 1,5,-1
 678 1062 l 1,6,-1
 570 1062 l 1,7,-1
 742 1332 l 1,4,-1
490 970 m 0,8,9
 693 970 693 970 805.5 835.5 c 128,-1,10
 918 701 918 701 918 457 c 0,11,12
 918 225 918 225 804 92 c 128,-1,13
 690 -41 690 -41 492 -41 c 0,14,15
 291 -41 291 -41 178 93 c 128,-1,16
 65 227 65 227 65 464 c 128,-1,17
 65 701 65 701 178.5 835.5 c 128,-1,18
 292 970 292 970 490 970 c 0,8,9
492 832 m 128,-1,20
 366 832 366 832 293.5 733 c 128,-1,21
 221 634 221 634 221 464 c 0,22,23
 221 293 221 293 293.5 195 c 128,-1,24
 366 97 366 97 492 97 c 0,25,26
 616 97 616 97 688.5 194.5 c 128,-1,27
 761 292 761 292 761 458 c 0,28,29
 761 635 761 635 689.5 733.5 c 128,-1,19
 618 832 618 832 492 832 c 128,-1,20
EndSplineSet
Validated: 1
EndChar

StartChar: OE
Encoding: 338 338 278
Width: 1800
GlyphClass: 2
Flags: W
LayerCount: 2
Fore
SplineSet
77 641 m 0,0,1
 77 800 77 800 112.5 925 c 128,-1,2
 148 1050 148 1050 203.5 1125 c 128,-1,3
 259 1200 259 1200 333 1249 c 128,-1,4
 407 1298 407 1298 476 1316 c 128,-1,5
 545 1334 545 1334 616 1334 c 0,6,7
 833 1334 833 1334 946 1176 c 1,8,-1
 946 1313 l 1,9,-1
 1717 1313 l 1,10,-1
 1717 1164 l 1,11,-1
 1112 1164 l 1,12,-1
 1112 737 l 1,13,-1
 1703 737 l 1,14,-1
 1703 588 l 1,15,-1
 1112 588 l 1,16,-1
 1112 148 l 1,17,-1
 1726 148 l 1,18,-1
 1726 0 l 1,19,-1
 946 0 l 1,20,-1
 946 133 l 1,21,22
 883 46 883 46 803 5 c 128,-1,23
 723 -36 723 -36 614 -36 c 0,24,25
 542 -36 542 -36 472.5 -18.5 c 128,-1,26
 403 -1 403 -1 329.5 46.5 c 128,-1,27
 256 94 256 94 201.5 167.5 c 128,-1,28
 147 241 147 241 112 363 c 128,-1,29
 77 485 77 485 77 641 c 0,0,1
245 648 m 0,30,31
 245 538 245 538 261 450.5 c 128,-1,32
 277 363 277 363 306 306 c 128,-1,33
 335 249 335 249 370 209.5 c 128,-1,34
 405 170 405 170 448.5 149.5 c 128,-1,35
 492 129 492 129 531.5 120.5 c 128,-1,36
 571 112 571 112 614 112 c 0,37,38
 839 112 839 112 946 328 c 1,39,-1
 946 970 l 1,40,41
 839 1186 839 1186 616 1186 c 0,42,43
 561 1186 561 1186 513 1174 c 128,-1,44
 465 1162 465 1162 414 1126 c 128,-1,45
 363 1090 363 1090 327 1032.5 c 128,-1,46
 291 975 291 975 268 876.5 c 128,-1,47
 245 778 245 778 245 648 c 0,30,31
EndSplineSet
Validated: 1
EndChar

StartChar: oe
Encoding: 339 339 279
Width: 1699
GlyphClass: 2
Flags: W
LayerCount: 2
Fore
SplineSet
924 421 m 1,0,1
 925 346 925 346 944 287 c 128,-1,2
 963 228 963 228 991 193 c 128,-1,3
 1019 158 1019 158 1057 135.5 c 128,-1,4
 1095 113 1095 113 1129.5 105 c 128,-1,5
 1164 97 1164 97 1200 97 c 0,6,7
 1385 97 1385 97 1447 286 c 1,8,-1
 1598 286 l 1,9,10
 1569 133 1569 133 1463 46 c 128,-1,11
 1357 -41 1357 -41 1198 -41 c 0,12,13
 1083 -41 1083 -41 992 7 c 128,-1,14
 901 55 901 55 847 144 c 1,15,16
 737 -41 737 -41 499 -41 c 0,17,18
 295 -41 295 -41 183.5 91 c 128,-1,19
 72 223 72 223 72 466 c 0,20,21
 72 707 72 707 183.5 838.5 c 128,-1,22
 295 970 295 970 499 970 c 0,23,24
 743 970 743 970 852 780 c 1,25,26
 907 870 907 870 998.5 920 c 128,-1,27
 1090 970 1090 970 1199 970 c 0,28,29
 1331 970 1331 970 1432.5 904 c 128,-1,30
 1534 838 1534 838 1580 722 c 0,31,32
 1618 627 1618 627 1618 421 c 1,33,-1
 924 421 l 1,0,1
499 832 m 128,-1,35
 373 832 373 832 300.5 734.5 c 128,-1,36
 228 637 228 637 228 466 c 0,37,38
 228 293 228 293 300.5 195 c 128,-1,39
 373 97 373 97 499 97 c 0,40,41
 624 97 624 97 696 194.5 c 128,-1,42
 768 292 768 292 768 461 c 0,43,44
 768 636 768 636 696.5 734 c 128,-1,34
 625 832 625 832 499 832 c 128,-1,35
926 544 m 1,45,-1
 1457 544 l 1,46,47
 1457 672 1457 672 1384.5 752 c 128,-1,48
 1312 832 1312 832 1198 832 c 128,-1,49
 1084 832 1084 832 1010.5 753.5 c 128,-1,50
 937 675 937 675 926 544 c 1,45,-1
EndSplineSet
Validated: 1
EndChar

StartChar: Racute
Encoding: 340 340 280
Width: 1299
GlyphClass: 2
Flags: W
LayerCount: 2
Fore
SplineSet
688 1690 m 1,0,-1
 892 1690 l 1,1,-1
 624 1424 l 1,2,-1
 516 1424 l 1,3,-1
 688 1690 l 1,0,-1
965 648 m 1,4,5
 1031 620 1031 620 1071.5 577.5 c 128,-1,6
 1112 535 1112 535 1126 488.5 c 128,-1,7
 1140 442 1140 442 1143 391 c 128,-1,8
 1146 340 1146 340 1144.5 289.5 c 128,-1,9
 1143 239 1143 239 1145 193.5 c 128,-1,10
 1147 148 1147 148 1165.5 107.5 c 128,-1,11
 1184 67 1184 67 1222 41 c 1,12,-1
 1222 0 l 1,13,-1
 1019 0 l 1,14,15
 983 85 983 85 983 214 c 2,16,-1
 983 331 l 2,17,18
 983 453 983 453 931 509 c 128,-1,19
 879 565 879 565 767 565 c 2,20,-1
 335 565 l 1,21,-1
 335 0 l 1,22,-1
 168 0 l 1,23,-1
 168 1313 l 1,24,-1
 773 1313 l 2,25,26
 966 1313 966 1313 1068.5 1222 c 128,-1,27
 1171 1131 1171 1131 1171 961 c 0,28,29
 1171 848 1171 848 1123 775 c 128,-1,30
 1075 702 1075 702 965 648 c 1,4,5
997 938 m 0,31,32
 997 1006 997 1006 977.5 1052 c 128,-1,33
 958 1098 958 1098 920.5 1121.5 c 128,-1,34
 883 1145 883 1145 840 1154.5 c 128,-1,35
 797 1164 797 1164 739 1164 c 2,36,-1
 335 1164 l 1,37,-1
 335 713 l 1,38,-1
 739 713 l 2,39,40
 873 713 873 713 935 767 c 128,-1,41
 997 821 997 821 997 938 c 0,31,32
EndSplineSet
Validated: 33
EndChar

